<?xml version="1.0" standalone="no"?>
<!DOCTYPE svg PUBLIC "-//W3C//DTD SVG 1.1//EN" "http://www.w3.org/Graphics/SVG/1.1/DTD/svg11.dtd" >
<svg xmlns="http://www.w3.org/2000/svg">
<metadata></metadata>
<defs>
<font id="bubblegum_sansregular" horiz-adv-x="991" >
<font-face units-per-em="2048" ascent="1638" descent="-410" />
<missing-glyph horiz-adv-x="409" />
<glyph horiz-adv-x="0" />
<glyph unicode="&#xd;" horiz-adv-x="681" />
<glyph unicode=" "  horiz-adv-x="409" />
<glyph unicode="&#x09;" horiz-adv-x="409" />
<glyph unicode="&#xa0;" horiz-adv-x="409" />
<glyph unicode="!" horiz-adv-x="440" d="M61 1337q18 18 123 25l33 2q111 0 154 -29q6 -4 6 -7t-5 -26.5t-11.5 -55.5t-12.5 -68q-14 -86 -14 -123t-6 -172q-23 -387 -29 -459q-41 -14 -84 -14l-84 10q0 195 -17.5 424t-35.5 360zM82 129q0 57 40 97t97 40t97 -40t40 -97t-40 -97t-97 -40t-97 40t-40 97z" />
<glyph unicode="&#x22;" horiz-adv-x="688" d="M61 1356q37 27 113 26.5t113 -22.5q-51 -254 -51 -340q-29 -14 -63 -14t-62 14q0 82 -37 272zM401 1356q37 27 113 26.5t113 -22.5q-52 -254 -52 -340q-29 -14 -62.5 -14t-61.5 14q0 82 -37 272z" />
<glyph unicode="#" horiz-adv-x="1105" d="M61.5 489q-0.5 56 22.5 78h207v211h-211q-18 23 -18.5 79t22.5 79h207v213q23 16 79 16t79 -20v-209h210v213q23 16 79.5 16t78.5 -20v-209h211q16 -23 16 -78t-18 -80h-209v-211h211q16 -23 16 -78t-18 -79h-209v-209q-23 -18 -80 -18.5t-78 22.5v205h-210v-209 q-23 -18 -80.5 -18.5t-77.5 22.5v205h-211q-18 23 -18.5 79zM449 567h210v211h-210v-211z" />
<glyph unicode="$" horiz-adv-x="1077" d="M61 274q0 111 6.5 130.5t68 45t124.5 25.5q6 -231 57 -280q20 -16 78 -18.5t101 3.5v447q-256 98 -320 164q-86 84 -86 189t102.5 205.5t303.5 145.5v90q47 45 118 45h13v-114q86 10 166.5 10t87 -6t6.5 -27q0 -131 -43 -172l-58 2q-86 0 -159 -10l-2 -340 q156 -55 260 -125q131 -90 131 -240.5t-105.5 -266.5t-285.5 -173v-123q-43 -43 -117 -43h-12v135q-96 -14 -177 -14q-158 0 -231 16q-27 25 -27 299zM369 983q0 -68 127 -123v258q-127 -43 -127 -135zM625 215q145 70 145 209q0 86 -145 151v-360z" />
<glyph unicode="%" horiz-adv-x="1267" d="M61 1036q0 127 69 228.5t192.5 101.5t193.5 -102.5t70 -243.5t-79 -212t-183 -71q-262 0 -263 299zM121 2l866 1362q20 4 41 4q41 0 111 -39l-867 -1362q-20 -4 -38.5 -4t-49 9.5t-63.5 29.5zM201 1032q0 -176 122.5 -176t122.5 176q0 94 -35.5 152.5t-87 58.5t-87 -58.5 t-35.5 -152.5zM680 285q0 125 69.5 227t193.5 102t193.5 -102t69.5 -244.5t-78.5 -212t-185.5 -69.5q-262 0 -262 299zM819 281q0 -177 123 -177q59 0 92 45.5t33 135.5t-36 148.5t-88 58.5t-88 -58.5t-36 -152.5z" />
<glyph unicode="&#x26;" horiz-adv-x="1267" d="M82 373q0 313 303 465q-55 145 -55 239q0 147 120.5 224t278.5 77q104 -6 113 -14q31 -59 30 -160q0 -18 -2 -26q-57 8 -114.5 8t-114.5 -31t-57 -117t108.5 -315t216.5 -385q43 55 64.5 152.5t21.5 175.5l-2 28q57 0 112.5 -19.5t82.5 -37.5l29 -19q0 -279 -177 -460 q57 -80 129 -138q2 -2 2 -4q0 -20 -80.5 -66t-140.5 -46q-70 82 -98 121q-131 -76 -291 -76q-213 0 -346 107.5t-133 316.5zM322 393q0 -100 60 -168.5t175 -68.5t176 39q-150 225 -250 442q-57 -18 -106 -76q-55 -68 -55 -168z" />
<glyph unicode="'" horiz-adv-x="348" d="M61 1356q37 27 113 26.5t113 -22.5q-51 -254 -51 -340q-29 -14 -63 -14t-62 14q0 82 -37 272z" />
<glyph unicode="(" horiz-adv-x="593" d="M61 664.5q0 156.5 32 301t76 241t92 171t80 108.5t46 39t84 5t94 -4q10 -4 6 -10q-70 -74 -144.5 -213.5t-112.5 -300t-38 -339t38 -339t96 -267.5q102 -184 161 -243q4 -6 -6 -11q-25 -4 -94.5 -4t-83.5 5.5t-46 39t-80 108.5t-92 170t-76 240.5t-32 302z" />
<glyph unicode=")" horiz-adv-x="593" d="M25 -186q72 80 144.5 216t110 295.5t37.5 338t-37.5 338t-95.5 268.5q-98 180 -159 246q-6 6 4 10q25 4 95.5 4t84.5 -6t45 -39t79 -107.5t92 -171t75.5 -241t31.5 -301t-31.5 -302t-75.5 -240.5t-92 -170t-79 -107.5t-45 -39t-85 -6.5t-95 4q-14 0 -4 11z" />
<glyph unicode="*" horiz-adv-x="509" d="M41 1122l135 68l-131 67q0 25 12 46l31 38l129 -84l-10 150q14 10 55 10l39 -6l-6 -151l123 79q16 -6 37 -43l14 -36l-135 -70l131 -66q0 -20 -19 -53l-24 -31l-127 80l6 -143q-12 -12 -45 -12l-49 6l10 149l-125 -78q-14 2 -33 35z" />
<glyph unicode="+" horiz-adv-x="1105" d="M61.5 675.5q-0.5 57.5 22.5 80.5h389v395q25 16 80 16t80 -18v-393h395q16 -23 16 -80.5t-20 -77.5h-391v-393q-23 -18 -80 -18.5t-80 22.5v389h-393q-18 20 -18.5 77.5z" />
<glyph unicode="," horiz-adv-x="370" d="M55 104q0 57 34 97.5t92.5 40.5t88 -46.5t29.5 -107.5q0 -131 -51 -203.5t-96 -83.5q-61 0 -86 47q92 66 102 150q-113 0 -113 106z" />
<glyph unicode="-" horiz-adv-x="1175" d="M61.5 398q-0.5 59 22.5 79h1014q16 -23 16 -80t-18 -78h-1016q-18 20 -18.5 79z" />
<glyph unicode="." horiz-adv-x="382" d="M72 107.5q0 52.5 35.5 88t85 35.5t84 -34.5t34.5 -84t-37.5 -87t-87 -37.5t-82 33.5t-32.5 86z" />
<glyph unicode="/" horiz-adv-x="1146" d="M0 -84l963 1524q31 6 61 6q61 0 123 -21l-969 -1523q-29 -6 -57 -6q-60 0 -121 20z" />
<glyph unicode="0" horiz-adv-x="1288" d="M61 651q0 162 61.5 325t199 279.5t323.5 116.5q141 0 256 -67.5t183.5 -176t105.5 -235.5t37 -283.5t-53.5 -293t-141.5 -205.5q-172 -137 -387 -138q-293 0 -455 207q-57 72 -93 190.5t-36 280.5zM334 635q0 -227 81 -340t230.5 -113t230 113t80.5 340t-89 374.5 t-222 147.5t-222 -147.5t-89 -374.5z" />
<glyph unicode="1" horiz-adv-x="686" d="M41 1130.5q0 77.5 20.5 98t206 89t226.5 68.5q6 0 6 -2q6 -6 6 -149l-8 -791q0 -215 10 -225q35 2 68.5 2t37.5 -4q10 -43 10.5 -125t-10.5 -82h-51q-193 0 -344 -22l-55 -8q-10 8 -10 101t12 105l84 15q-2 29 -2 106l8 578q0 182 -14 196q-2 2 -18.5 2t-60.5 -7t-80 -15 t-39 -8t-3 77.5z" />
<glyph unicode="2" horiz-adv-x="1079" d="M61.5 97.5q-0.5 99.5 16.5 121.5q162 152 323 332q315 350 315.5 479t-192.5 129q-156 0 -213 -110q-41 -76 -57 -166q-4 -4 -31.5 -4t-78 10t-58.5 18t-8 79t8 184.5t16.5 120.5t69.5 24q172 47 378 47t330 -85t124 -218q0 -145 -193 -387q-152 -190 -330 -383l-57 -64 q-6 -14 117 -14q336 0 471 43q6 0 6 -4q0 -53 -19.5 -136t-43 -106.5t-281.5 -23.5l-371 14q-117 0 -172 -4t-59 -4q-10 8 -10.5 107.5z" />
<glyph unicode="3" horiz-adv-x="1112" d="M61 304q0 73 2 93q2 10 50.5 25.5t87.5 15.5t39 -4q0 -109 53 -177.5t186 -68.5t210 69t77 154t-49 134t-131 69q-133 37 -291 37q-8 0 -8 4q0 92 43 181q14 30 18 30q25 -4 73 -4t104.5 19.5t80.5 48.5q45 49 45 94q0 70 -70.5 104.5t-150.5 34.5q-137 0 -233 -28 l-29 -11q-14 0 -14 49.5t10 108.5t22 72q96 29 222.5 28.5t211.5 -14.5t162.5 -48t122.5 -99.5t45 -161.5t-66.5 -166t-138.5 -94q-10 -4 1.5 -8.5t32 -11.5t73.5 -35.5t93 -66.5t73 -106.5t33 -169t-58.5 -190.5t-154.5 -141q-193 -102 -441 -103q-178 0 -276 31l-33 10 q-8 10 -17.5 116.5t-9.5 179.5z" />
<glyph unicode="4" horiz-adv-x="1171" d="M41 489q0 55 245.5 428t377.5 517q14 14 79.5 22t129 8t63.5 -18q0 -4 -2 -6q-127 -145 -127 -162q184 -4 184 -31q-10 -309 -10 -624v-78q102 0 125.5 5t23.5 -7q0 -57 -29.5 -125t-45.5 -84q-2 -2 -72 -6q0 -238 23 -340q0 -20 -88.5 -43t-151.5 -23l-55 6 q-8 12 -8.5 84t8.5 310q-117 -6 -366 -6.5t-257 8.5q-18 18 -30.5 60t-14.5 75zM346 549q0 -10 152 -10l221 2q14 344 14 482t-6 138q-45 -45 -213 -302t-168 -310z" />
<glyph unicode="5" horiz-adv-x="1060" d="M82 198.5q0 194.5 13.5 208t88 36t117.5 22.5q0 -221 96 -254l27 -2q88 0 176 45q51 25 83 81t32 126.5t-31 116t-76 71t-108 39.5q-109 27 -238 27l-158 -8l-4 86q0 221 23.5 383.5t28 167t62.5 4.5t255 10t300 10t114 -10q20 -29 20 -117t-10 -98q-66 6 -144.5 6 t-162.5 -2q-182 -8 -194.5 -20.5t-12.5 -99.5t4 -89q207 0 383 -94q68 -35 118 -82t82.5 -123t32.5 -170q0 -233 -202.5 -364.5t-536.5 -131.5q-139 0 -164 17q-14 14 -14 208.5z" />
<glyph unicode="6" horiz-adv-x="1144" d="M61.5 544q-0.5 126 28.5 239.5t92.5 224t153.5 196.5t223 138.5t291 52.5q33 0 37 -4q53 -70 53 -209q0 -13 -4 -13q-57 4 -76 5q-166 0 -293 -92.5t-176 -229.5q61 14 154 14q252 0 395 -110.5t143 -288.5q0 -123 -46 -218t-119 -151q-152 -109 -334 -108 q-125 0 -222.5 43t-152.5 105.5t-90 144.5q-57 135 -57.5 261zM332 539q0 -150 70.5 -234t193.5 -84q90 0 155.5 59.5t65.5 153.5q0 209 -323 209q-84 0 -158 -22q-4 -49 -4 -82z" />
<glyph unicode="7" horiz-adv-x="1015" d="M63 1167q3 170 15 182.5t165.5 12.5t238.5 -1t157 -1q199 -4 270 14q23 6 60 -65.5t37 -110.5q-35 -25 -112 -135.5t-163 -269t-149.5 -367.5t-63.5 -387v-19q0 -55 6 -75q0 -14 -73 -21l-23 -2q-147 0 -195 33q-18 10 -18 18q0 145 47 317.5t108.5 307.5t137.5 266 q98 172 170 273q0 20 -154.5 20t-208.5 -53q-51 -47 -69 -150l-6 -32q-10 -10 -85 14.5t-89 50.5q-6 10 -3 180z" />
<glyph unicode="8" horiz-adv-x="1191" d="M61 348q0 129 109 254q55 63 158 127l18 10v9q-215 106 -215 262q0 94 53.5 170.5t134.5 119.5q164 88 328 89q246 0 377 -144q68 -74 68 -164t-77 -177t-165 -132q-8 -6 -3 -9t40 -20.5t62.5 -34t67.5 -48t66 -62.5q68 -82 68 -174q0 -184 -163 -316.5t-394.5 -132.5 t-382 106.5t-150.5 266.5zM362 374.5q0 -67.5 59.5 -123.5t173.5 -56t190.5 67.5t76.5 136t-63.5 129t-126 87t-81 26.5t-68.5 -31.5t-105.5 -99.5t-55.5 -135.5zM426 1030.5q0 -59.5 86 -106.5t118 -47t108.5 64.5t76.5 113.5t-50 85t-130 36t-144.5 -43t-64.5 -102.5z" />
<glyph unicode="9" horiz-adv-x="1142" d="M61 893q0 162 80 272q150 207 418 207q129 0 227.5 -43t152.5 -105.5t89 -144.5q53 -131 53 -273t-48 -284.5t-139 -268.5t-249 -205t-352 -79q-31 0 -35 4q-53 66 -53 203q0 19 12 19l68 -5q170 0 295 94.5t184 256.5q-72 -16 -182 -17q-252 0 -386.5 103.5 t-134.5 265.5zM328 944q0 -143 147 -182q68 -16 176.5 -16.5t159.5 26.5q4 14 4 51q0 150 -69.5 235t-196.5 85q-92 0 -156.5 -53.5t-64.5 -145.5z" />
<glyph unicode=":" horiz-adv-x="382" d="M72 107.5q0 52.5 35.5 88t85 35.5t84 -34.5t34.5 -84t-37.5 -87t-87 -37.5t-82 33.5t-32.5 86zM72 749.5q0 51.5 35.5 88t85 36.5t84 -34.5t34.5 -83.5t-37.5 -87t-87 -38t-82 33.5t-32.5 85z" />
<glyph unicode=";" horiz-adv-x="370" d="M51 749.5q0 51.5 37 88t85 36.5t83 -34.5t35 -83.5t-37 -87t-86 -38t-83 33.5t-34 85zM55 104q0 -106 113 -106q-10 -84 -102 -150q25 -47 86 -47q45 10 96 83t51 204q0 61 -29.5 107.5t-88 46.5t-92.5 -40t-34 -98z" />
<glyph unicode="&#x3c;" horiz-adv-x="985" d="M64 623.5q2 56.5 24 78.5q621 340 774 381q56 -23 56 -127l-3 -36q-27 -8 -243 -113q-342 -162 -342 -167t8 -7q580 -221 606 -248v-8q0 -94 -59 -150q-182 76 -652 244l-161 59q-10 37 -8 93.5z" />
<glyph unicode="=" horiz-adv-x="1075" d="M61.5 490q-0.5 57 22.5 77h913q16 -23 16.5 -79t-20.5 -78h-913q-18 23 -18.5 80zM61.5 858q-0.5 57 22.5 78h913q16 -23 16.5 -79t-20.5 -79h-913q-18 23 -18.5 80z" />
<glyph unicode="&#x3e;" horiz-adv-x="985" d="M61 377v8q20 20 461 193l146 55q8 2 8 6q-31 20 -295 146t-291 135q-10 137 53 163q68 -18 261.5 -113.5t353.5 -181.5l160 -86q18 -18 24 -84l2 -20l-10 -68q-625 -225 -813 -303q-59 55 -60 150z" />
<glyph unicode="?" horiz-adv-x="811" d="M51 1206q0 66 19 111q55 24 161 24q281 0 400 -95t119 -234q0 -176 -152 -287q-57 -43 -139 -78l-33 -14q-14 -6 -27.5 -85t-13.5 -114q-10 -10 -58 -23.5t-80 -13.5t-48 4q-23 37 -23 160t10 158q324 78 324 262q0 160 -295 160q-104 0 -152 -21q-12 20 -12 86z M133 116.5q0 57.5 40 97.5t97.5 40t97.5 -40t40 -97.5t-40 -97t-97.5 -39.5t-97.5 39.5t-40 97z" />
<glyph unicode="@" horiz-adv-x="2031" d="M61 418q0 256 144 495q76 131 185.5 233.5t280.5 167t376.5 64.5t369.5 -59t265.5 -151.5t168.5 -213.5q119 -221 119 -475q0 -242 -125 -454q-61 -106 -167.5 -173t-239.5 -67q-113 0 -201 76q-78 70 -86 211q0 4 -2 4t-6 -4q-109 -86 -254.5 -86t-224 69.5t-78.5 184 t50 193.5t118.5 120t148.5 68q123 41 199 41l2 2q0 100 -254 100q-100 0 -150 -8h-2q0 41 27 103.5t47 82.5q0 6 49 10t92 4q236 0 346.5 -91t110.5 -283l-2 -54q-2 -156 -2 -258t4 -143q14 -123 117 -123q70 0 122 49t79 127q49 150 49 283q0 358 -193.5 539.5 t-496.5 181.5q-195 0 -363 -88t-276.5 -266.5t-108.5 -413.5q0 -319 209 -508q74 -66 188.5 -107t221 -40.5t141.5 8.5q2 -6 2 -39t-21.5 -101.5t-40.5 -85.5q-6 -10 -65 -14q-186 0 -337 53t-248 140.5t-165 203.5q-123 217 -123 492zM838 295q0 -43 30.5 -71.5t80.5 -28.5 t86 10t71 49t35 100v78q0 45 -2 45q-82 0 -156 -26q-145 -55 -145 -156z" />
<glyph unicode="A" horiz-adv-x="1261" d="M51 -29q0 82 146 478q-27 23 -62 93t-35 117q0 2 170 9q168 487 191 514q8 6 73.5 19t83.5 13l-4 27q-4 29 -9 62.5t-5 44.5q0 6 35 24q100 49 207 49q20 -121 54 -308t132 -572t189 -537l14 -24q0 -10 -39 -35t-102.5 -47.5t-116.5 -22.5q-18 0 -89 232.5t-96 351.5 q-29 2 -176 2t-172 -8q-109 -356 -123 -514q0 -2 -50 -2t-103 6q-113 16 -113 28zM510 674q227 0 229 -4q-70 295 -76 329.5t-10 34.5t-10 -8q-18 -35 -68.5 -168t-64.5 -184z" />
<glyph unicode="B" horiz-adv-x="1185" d="M82 1354l2 6q12 10 130 18t233.5 8t212 -14t187.5 -45t146.5 -91t55.5 -135t-32 -135.5t-79 -101.5q-72 -61 -139 -94q-4 -4 -4 -6q2 -2 29.5 -10.5t53 -19.5t62.5 -29.5t67.5 -44t57.5 -58.5q59 -70 59 -189.5t-73.5 -224t-196.5 -163.5q-246 -119 -559 -119l-105 6 q-6 8 -12 148.5t-6 226.5l10 782q0 82 -4 86q-23 23 -59.5 99.5t-36.5 99.5zM428 430q0 -188 18 -289q5 -2 11 -2q137 0 260 80t123 189q0 78 -62 129q-106 86 -297 86q-47 0 -50 -2.5t-3 -190.5zM432 829q2 -2 21.5 -2t64.5 11.5t98.5 33t91 65.5t37.5 92t-28.5 77 t-71.5 43t-83 20.5t-76.5 6.5t-40 -3.5t-8.5 -168t-5 -175.5z" />
<glyph unicode="C" horiz-adv-x="1228" d="M72 553q0 231 102 430q59 117 149.5 205t244 145.5t347.5 57.5q66 0 117 -12.5t51 -16.5q0 -98 -13 -224t-15 -128q-10 -10 -85 -33t-112 -23v13q0 92 -26.5 129t-92.5 37q-145 0 -270 -153t-125 -419q0 -141 70 -254q37 -59 107.5 -96t166.5 -37q193 0 375 178 q8 0 33.5 -25.5t50.5 -68.5q51 -82 51 -100.5t-63.5 -68.5t-192.5 -101t-264 -51q-299 0 -452.5 172t-153.5 444z" />
<glyph unicode="D" horiz-adv-x="1280" d="M84 1350.5q0 17.5 2 19.5q20 20 242 21q426 0 658.5 -178.5t232.5 -477.5q0 -147 -47.5 -271t-126 -209t-176 -149.5t-205.5 -101.5q-213 -70 -388 -70q-82 0 -94 12.5t-12 364.5l6 809q-23 35 -57.5 124t-34.5 106.5zM430 670q0 -469 14 -484q4 -4 30 -4t78 14.5 t122.5 54.5t130 99.5t100.5 160.5t41 216t-41 196t-96 122.5t-127 68.5q-111 41 -211 41q-27 0 -27 -2q-14 -14 -14 -483z" />
<glyph unicode="E" horiz-adv-x="1085" d="M82 795q-1 2 108 6l3 221q0 88 -5 96q-23 23 -58.5 109t-35.5 110q23 23 719 23q172 0 172 -8q0 -43 -19.5 -94.5t-41 -82t-30.5 -27.5t-84 3t-208 -9t-145.5 -21.5t-12.5 -225.5l2 -86q82 2 242 2t160 -6q0 -74 -49 -168q-18 -33 -23 -31q-53 0 -182 -9t-150 -22 q-2 -2 -2 -172t11 -180q33 -33 352 -33q129 0 174 7.5t45 5.5q0 -49 -33 -117t-69 -102q-20 -20 -368 -20q-10 0 -19 -1q-328 0 -340 17q-13 10 -13 198v41q0 169 4 354q-37 33 -70.5 102.5t-33.5 119.5z" />
<glyph unicode="F" horiz-adv-x="1038" d="M82 801q0 2 106 6q2 86 2 198.5t-2 114.5q-23 23 -58.5 108t-35.5 109q23 23 711 23q172 0 172 -8q0 -43 -19.5 -94.5t-41 -81t-27.5 -27.5t-73.5 2t-209 -9t-154 -20.5t-12.5 -222.5l2 -86q193 4 295.5 4t102.5 -6q0 -80 -49 -168q-16 -31 -21 -31h-20q-66 0 -182.5 -10 t-123 -16t-6.5 -256t27 -340q0 -27 -79 -42.5t-136 -15.5l-64 7q-4 20 -4 279t2 364q-35 33 -68.5 101.5t-33.5 117.5z" />
<glyph unicode="G" horiz-adv-x="1292" d="M72 555q0 229 84 416q53 117 136 203t229.5 143t338.5 57q43 0 119 -10t81 -16.5t5 -45t-10.5 -106.5t-22.5 -80q-63 33 -215 33q-217 0 -346 -145.5t-129 -425.5q0 -180 73.5 -289t207 -109t216.5 65.5t83 110.5v66q0 125 -13 137q-14 19 -190 19l-125 -7q-8 0 -8 27 t18.5 90.5t47 92t483.5 28.5q117 0 116 -10q0 -47 -25.5 -128t-43.5 -108q-2 -551 -13.5 -571.5t-75 -46t-107.5 -25.5t-44 6q0 111 -10 133l-4 4l-6 -4q-120 -120 -313 -120h-3q-266 0 -400 172t-134 444z" />
<glyph unicode="H" horiz-adv-x="1286" d="M82 791q0 6 100 6q2 145 2 333v44q-53 98 -53 194q0 8 2 10q12 2 22.5 2h46.5t101.5 -13t104 -29.5t38.5 -26.5q-14 -100 -14 -467v-41l273 2q152 0 151 -4q0 268 8 391t8 127t30 20.5t83 31.5t91 15t38 -8q-23 -295 -22 -628v-14q0 -341 20.5 -507t89.5 -235 q0 -4 -19.5 -20.5t-92 -39t-136.5 -22.5l-24 4q-39 39 -54.5 161t-17.5 513q-35 2 -222 2t-206 -6q-2 -57 -2 -253t16 -327q0 -23 -65.5 -38t-121.5 -15t-67.5 11t-11.5 376v242q-27 25 -61.5 94t-34.5 115z" />
<glyph unicode="I" horiz-adv-x="628" d="M92 41q0 90 14 109q25 12 80 12q-4 70 -4 496.5t11 488.5h-5q-55 0 -92 -12q-4 0 -4 93t12 105t164 22.5t254 10.5q6 0 6 -33l-6 -151q0 -8 -6 -8q-70 0 -74 -3.5t-6 -85.5q-8 -324 -8 -560t16 -345q27 2 84 2q8 0 8 -101q0 -4 1 -7q0 -94 -13 -94q-297 0 -426 -29 q-6 0 -6 90z" />
<glyph unicode="J" horiz-adv-x="1036" d="M41 53q0 272 22 393l9 46q12 16 75.5 35.5t112.5 19.5q0 -225 53.5 -302t161.5 -77q195 0 195 362l2 322q0 250 -23 272q-41 41 -170 41h-8q-8 4 -8 41t10 76t17.5 46t64.5 20q167 32 378 32h13q29 0 29 -4q0 -49 -26.5 -124.5t-26.5 -77.5l4 -392q0 -412 -21 -495 q-41 -166 -159.5 -251t-280.5 -85q-70 0 -126 12t-77 25l-20 14q-72 -55 -170 -55q-20 0 -23 2z" />
<glyph unicode="K" horiz-adv-x="1163" d="M82 1317q0 8 41 22q111 41 195.5 41t89 -5t4.5 -79.5t-11 -382.5q0 -12 4.5 -12t10.5 8q115 152 276.5 329t195.5 177t87 -22.5t89 -48t36 -33.5v-2q-80 -51 -178.5 -141.5t-160 -158t-61.5 -77.5q0 -76 167 -442l274 -475q1 -3 -9 -12q-12 -11 -36.5 -26.5t-55.5 -29.5 q-72 -37 -151 -37q-74 74 -164 275.5t-148.5 365.5t-62.5 164q-10 0 -64.5 -85t-54.5 -102v-133q0 -352 13 -411q2 -6 -23 -19q-70 -35 -176 -35l-70 11q-6 6 -6 100l23 956q0 145 -10.5 161t-37 78t-26.5 81z" />
<glyph unicode="L" horiz-adv-x="1120" d="M82 1346q0 8 45 22q113 41 199 41t91 -6t5 -123l-12 -844q0 -158 6 -233q33 -8 105.5 -8t124.5 12t88 44t58.5 59.5t38.5 82.5q25 74 50 195q0 2 29.5 2t94 -27.5t64.5 -42.5q0 -158 -16 -356q-16 -221 -40 -221t-91.5 17t-102.5 32q-184 -31 -477 -33l-102 -2l-82 10 q-8 8 -8 180l8 785q0 240 -11.5 255t-38 77.5t-26.5 81.5z" />
<glyph unicode="M" horiz-adv-x="1492" d="M82 1327l2 6q6 8 102.5 14.5t212 6.5t126 -10.5t98.5 -257t131 -381.5q4 -10 10 -10.5t20.5 43.5t119 307.5t138.5 297.5q18 19 198 19h17q164 0 164 -10q0 -35 -27.5 -121t-45.5 -121q71 -640 71 -1135v-14q0 -20 -83 -37.5t-136 -17.5t-53 8q6 84 6 271.5t-10 445.5 q-10 322 -25 321l-12 -12q-41 -76 -105.5 -256t-107.5 -324l-43 -141q-10 -23 -58 -23h-2q-50 0 -82 6.5t-34 12.5q-6 23 -127 359.5t-139 359.5q-6 12 -10.5 12t-6.5 -14q-37 -186 -37 -547.5t11 -419.5q-51 -49 -207 -49q-45 0 -74 12q0 344 59 981l19 211 q-29 35 -54.5 106.5t-25.5 100.5z" />
<glyph unicode="N" horiz-adv-x="1255" d="M82 1322q0 17 4 21.5t103.5 11.5t205 7t117.5 -10q362 -811 369.5 -827.5t11.5 -16.5l8 14v58q0 174 -11 434t-24 323q29 27 106 46.5t139.5 19.5t62.5 -10q0 -41 -14.5 -96.5t-14.5 -57.5q-15 -91 -15 -287v-91q0 -126 2 -191q2 -86 2.5 -165t2.5 -156t2 -140 q4 -135 4 -189l2 -28q0 -6 -27 -17q-78 -32 -207 -32h-8l-76 8q-82 231 -239.5 583.5t-176 380t-22.5 27.5l-6 -14q-8 -57 -8 -246.5t9 -413t22 -280.5q-56 -49 -201 -49q-41 0 -74 12v61q0 313 21 910l8 198q-27 35 -52.5 110t-25.5 92z" />
<glyph unicode="O" horiz-adv-x="1359" d="M61 557q0 129 31 241.5t57.5 160t43 56.5t129.5 9h38q0 102 40 178t104 113q117 67 222 67h3q569 0 569 -716q0 -223 -75 -398q-43 -98 -113 -168.5t-185.5 -115.5t-265.5 -45q-305 0 -451.5 176t-146.5 442zM322 567q0 -172 96 -293.5t244 -121.5q372 0 372 530 q0 481 -286 481q-82 0 -126 -47t-44 -119.5t46 -171t93 -155.5l45 -58q0 -25 -76 -46t-121 -21q-10 0 -41.5 39t-73.5 119.5t-61 170.5q-31 -31 -49 -125t-18 -182z" />
<glyph unicode="P" horiz-adv-x="1177" d="M82 1334.5q0 17.5 5 22.5t131 12t254 7t228.5 -14t206 -52t168 -117t62.5 -202t-75 -225t-181 -156q-221 -113 -398 -135l-75 -8q8 -418 20 -479q-22 -23 -89 -36t-114 -13t-75 12l12 1182q-29 33 -54.5 108.5t-25.5 93zM408 694q458 41 458 292q0 83 -85 129t-216 46 l-147 -12q-10 -74 -10 -455z" />
<glyph unicode="Q" horiz-adv-x="1359" d="M61 561q0 129 31 241.5t57.5 161t45 57.5t88 9t77.5 -2q0 102 40 177t102 112q115 69 224 69h3q569 0 569 -716q0 -426 -239 -611q55 -112 55 -165q-25 -39 -89 -66t-112 -27h-8q0 49 -28 138l-11 28q-87 -24 -198 -24h-9q-305 0 -451.5 176t-146.5 442zM322 571 q0 -172 96 -293.5t244 -121.5q66 0 120 16q-68 137 -96 176q66 53 178 53q18 -10 66 -86l14 -24q90 131 90 395q0 483 -289 483q-80 0 -123.5 -48t-43.5 -120.5t46 -171t93 -155.5l45 -58q0 -25 -76 -46t-121 -21q-10 0 -43 39t-73.5 119.5t-59.5 171.5q-33 -33 -50 -126.5 t-17 -181.5z" />
<glyph unicode="R" horiz-adv-x="1202" d="M82 1334.5q0 17.5 4 22.5t130 12t255 7t229.5 -14t209 -50t172 -114t63.5 -199.5t-86 -226t-234 -176.5q0 -33 129 -294t205 -337q2 -2 2 -7t-33 -19q-90 -43 -194 -43l-51 4q-45 45 -157 299t-124 311q-25 -14 -194 -43q4 -412 20 -479q-22 -23 -90 -36t-113 -13t-78 12 l13 1182q-27 33 -52.5 108.5t-25.5 93zM406 694q242 23 355 114t113 180t-88 131t-223 42q-72 0 -145 -12q-12 -88 -12 -455z" />
<glyph unicode="S" horiz-adv-x="1062" d="M62 169q0 11 -1 21q0 183 9 222q6 18 71.5 44.5t126.5 26.5q0 -242 51 -293q20 -20 78 -20q131 0 228.5 73.5t97.5 174.5q0 68 -63.5 119t-154.5 89t-181.5 80t-154 115.5t-63.5 173.5q0 150 179.5 274t519.5 124q80 0 90 -11q2 -6 2 -29.5t-14 -91t-37 -92.5 q-33 5 -75 5h-5q-42 0 -98 -8q-60 -8 -124.5 -26t-105.5 -54.5t-41 -89t62.5 -92.5t150.5 -73.5t177.5 -76.5t151.5 -126t62 -200q0 -207 -197.5 -351.5t-498.5 -144.5q-152 0 -225 17q-18 18 -18 220z" />
<glyph unicode="T" horiz-adv-x="964" d="M20 1155q0 98 33 172l13 25q160 2 361.5 13t364 11t162.5 -8q0 -59 -10 -142t-24 -98q-46 10 -174 10q-10 0 -19 1q-109 0 -115 -6q-14 -14 -14 -534.5t61 -633.5v-2q0 -18 -79.5 -34.5t-126.5 -16.5q-66 0 -107 18q-14 17 -14 234l14 852q0 104 -5 109t-34 5 q-63 0 -225 -20l-55 -8z" />
<glyph unicode="U" horiz-adv-x="1210" d="M61 1282q0 8 39 25q100 39 186.5 39t90.5 -4.5t5 -63.5l-17 -563q0 -532 225 -533q68 0 115 28t86 101q80 142 80 549l-1 5q0 411 -22 548q23 10 57 10q154 0 205 -53q18 -92 18 -584q0 -502 -165 -688q-82 -92 -177.5 -129t-220.5 -37q-244 0 -354.5 185.5t-110.5 640.5 q0 172 6 268q4 70 4 90q0 7 -1 8q-12 23 -30 78t-18 80z" />
<glyph unicode="V" horiz-adv-x="1226" d="M20 1284q0 4 29 16q86 39 156.5 39t70.5 -6q8 -100 122 -530t196 -596q18 -37 37 -19q6 6 8 15q55 104 158.5 424.5t103.5 527.5q0 25 -46 53.5t-83 32.5q-2 4 -2 22.5t10.5 58.5t18.5 46q188 51 377 51q31 -4 30 -8q0 -176 -95 -527.5t-195.5 -626.5t-131.5 -306 q-90 -49 -303 -49q-20 0 -24 4q-68 61 -252.5 616t-184.5 762z" />
<glyph unicode="W" horiz-adv-x="1605" d="M20 1319q0 4 21 16q68 34 148 34h5q82 -1 82 -5q14 -266 60.5 -560t89.5 -403q4 -14 9 -14t11 14q168 649 205 689q72 28 198 28h9q74 -4 80 -10t41 -171t76 -364.5t50 -239.5t25 3q35 96 88.5 350t53.5 479q0 23 -38 44.5t-77 25.5q-2 6 -2 25.5t9.5 57.5t15.5 44 q186 49 372 49q33 -4 33 -6q0 -203 -77.5 -554t-159.5 -611t-106.5 -284t-114 -42t-136.5 -18t-47 6q-4 16 -39 209q-102 539 -116.5 572.5t-18.5 33.5l-10 -12q-51 -127 -115.5 -396.5t-64.5 -308.5q0 -8 -39 -23q-103 -38 -204 -38h-5q-23 0 -29 6q-55 55 -169 603 t-114 771z" />
<glyph unicode="X" horiz-adv-x="1282" d="M10 25.5q0 7.5 17 21.5q156 158 479 662q-233 420 -279 458q-16 14 -57 30.5t-74 16.5q-2 4 -2 23.5t13.5 59.5t19.5 46.5t39 12.5q88 16 179 16t96 -4t30 -53q115 -223 188 -365q274 432 302 432q57 0 118.5 -24.5t96 -52t34.5 -39.5q-143 -121 -424 -549 q326 -580 486 -697q0 -27 -97.5 -79t-170.5 -52h-9q-75 74 -360 588q-315 -506 -329.5 -525.5t-24.5 -19.5q-82 0 -150 22.5t-94.5 43t-26.5 28z" />
<glyph unicode="Y" horiz-adv-x="1277" d="M10 1220.5q0 18.5 13.5 58.5t18.5 45t38 11q88 16 178 17h17q73 0 78 -4q5 -5 57 -113q160 -340 235 -455h4q12 45 175 325.5t190 280.5q61 0 122.5 -16t96.5 -35.5t33 -31.5q-109 -121 -288 -388.5t-212 -386.5q-4 -41 -4 -264t16 -293q0 -25 -66 -37q-62 -12 -122 -12 h-5q-62 1 -87 17l6 563v26q-57 80 -203.5 343.5t-159.5 279.5q-47 47 -129 47q-2 4 -2 22.5z" />
<glyph unicode="Z" horiz-adv-x="1175" d="M41 121q0 35 2 43q33 70 204 301t322.5 435t151.5 226q-1 12 -153 12l-4 1q-149 0 -210 -31q-29 -10 -110 -154l-27 -45q-29 0 -81 31t-52 47q0 49 21.5 147.5t47 176.5t33.5 78q57 0 116.5 -26t64.5 -26q184 27 412.5 27t264.5 -12q16 -14 38 -63.5t22 -110.5 q0 -6 -17 -23q-127 -143 -392 -518t-265 -420q0 -14 171 -14t224 33q33 29 90.5 116.5t75.5 141.5q0 4 17.5 4t72 -32.5t54.5 -57.5q0 -92 -41 -259t-60 -184q-6 -6 -28 -6q-45 0 -142 21l-30 8q-16 2 -84 2l-641 -19q-20 0 -44 57.5t-24 92.5z" />
<glyph unicode="[" horiz-adv-x="436" d="M61 492v413q0 487 5 494q12 27 113.5 87t131.5 60q66 -14 105 -61q-145 -117 -158 -168q-4 -469 -4 -658l4 -651q6 -25 45 -66.5t76 -72.5l37 -31q-35 -43 -105 -59q-31 0 -132 60.5t-113 84.5q-4 8 -5 568z" />
<glyph unicode="\" horiz-adv-x="1146" d="M0 1425q53 20 103 20.5t81 -5.5l963 -1524q-55 -20 -103.5 -20t-74.5 6z" />
<glyph unicode="]" horiz-adv-x="436" d="M20 -162q145 117 158 170q4 467 4 658l-4 651q-6 23 -45 64.5t-76 72.5l-37 31q33 41 105 61q31 0 132 -60.5t114 -86.5q4 -12 4 -357v-815q0 -295 -4 -303q-12 -25 -113.5 -85t-132.5 -60q-66 12 -105 59z" />
<glyph unicode="^" horiz-adv-x="595" d="M31 326q0 27 79.5 129t118.5 125q31 0 72 -27q39 27 70 27q39 -23 116.5 -127.5t77.5 -130.5q-4 -18 -30.5 -41t-45.5 -23q-12 16 -92 97t-96 91q-18 -10 -99 -87.5t-96 -96.5q-18 0 -44.5 22.5t-30.5 41.5z" />
<glyph unicode="_" horiz-adv-x="1103" d="M61.5 23.5q-0.5 58.5 22.5 78.5h942q16 -23 16 -80t-18 -77h-944q-18 20 -18.5 78.5z" />
<glyph unicode="`" d="M342 1176q0 25 46 58.5t79 33.5q39 -23 95 -100.5t56 -104.5q-4 -18 -29.5 -41t-43.5 -23q-20 25 -91 88.5t-112 88.5z" />
<glyph unicode="a" horiz-adv-x="940" d="M51 211q0 115 50.5 193.5t118 119.5t149.5 66q125 41 196 41l4 2q0 100 -254 100q-100 0 -149 -8h-2q0 41 25.5 102.5t43 80t146.5 18.5q233 0 344 -89t111 -276v-104q0 -256 6 -299q16 -113 69 -162q0 -23 -80.5 -68t-146.5 -45q-18 0 -38.5 54.5t-24 81t-5.5 26.5 l-6 -4q-109 -86 -254 -86t-224 70.5t-79 185.5zM303 264q0 -43 31 -71.5t93 -28.5t120.5 37t58.5 125v77q0 45 -2 46q-137 0 -237 -72q-63 -45 -64 -113z" />
<glyph unicode="b" horiz-adv-x="954" d="M102 -139q15 57 15 434l-4 756q0 256 10 266q25 25 81 47t107 22t51 -8q-4 -20 -11 -232q-5 -165 -5 -232v-31h33q227 0 371 -105q57 -43 100 -128t43 -197q0 -195 -157.5 -325t-387.5 -167q0 -47 -2 -51q-27 -27 -93.5 -41t-108.5 -14t-42 6zM344 518q0 -277 8 -332 q53 0 110.5 17.5t93.5 44t65.5 84t29.5 149.5t-64.5 141.5t-148.5 49.5l-94 -6v-148z" />
<glyph unicode="c" horiz-adv-x="790" d="M61 358q0 252 169 401.5t413 149.5q47 0 55 -2q12 -10 13 -101q0 -85 -25 -104h-14q-158 0 -256 -73q-41 -31 -72 -96.5t-31 -157.5t55.5 -152.5t178.5 -60.5q96 0 170 37q8 4 10 4q16 -16 16 -110.5t-22 -112.5q-68 -39 -201 -39q-233 0 -346 118.5t-113 298.5z" />
<glyph unicode="d" d="M61 313q0 231 143.5 394.5t409.5 171.5l-4 303q0 127 6 133q25 25 81.5 48t107.5 23t51 -8q-16 -340 -16 -723t12 -456q14 -111 68 -164q0 -20 -85 -64.5t-145 -44.5q-6 0 -18 17q-39 51 -47 139q0 6 -4 6l-7 -4q-86 -123 -256 -123q-137 0 -217 108.5t-80 243.5z M307 371q0 -76 36 -124t108.5 -48t116.5 63.5t44 99.5q0 228 6 302q0 4 -22 4h-8q-131 0 -206 -84t-75 -213z" />
<glyph unicode="e" horiz-adv-x="866" d="M61 396.5q0 201.5 130.5 350t365.5 148.5q96 0 177 -51t81 -179t-111.5 -253t-304.5 -191q0 -25 50.5 -40t99.5 -15q156 0 246 55q2 2 6 2t4 -39q0 -118 -51 -184q-70 -47 -272.5 -47t-311.5 121t-109 322.5zM301 418q0 -29 8 -29q74 2 170 85t96 177q0 59 -63 60 q-84 0 -147.5 -86t-63.5 -207z" />
<glyph unicode="f" horiz-adv-x="614" d="M41 975q0 80 18 98q37 2 80 4l-4 248q-4 33 151.5 108.5t254.5 75.5q12 0 31.5 -46t19.5 -71.5t-2 -31.5q-6 0 -53.5 -21.5t-98.5 -55.5t-53 -58q-8 -53 -12 -146h8q166 0 166 -6q0 -96 -39 -160q-14 -25 -25 -24q-66 4 -112 4v-102l10 -820q0 -80 -4 -100 q-78 -57 -207 -57l-57 10q30 220 30 802v38q0 154 -2 225l-90 -4q-10 10 -10 90z" />
<glyph unicode="g" horiz-adv-x="937" d="M55 332q0 246 158 405.5t453 159.5q72 0 71 -10q6 -35 6 -76l-2 -31h23q66 0 88 -12v-260l4 -485q0 -160 -43 -284t-104.5 -192.5t-141.5 -111.5q-129 -72 -260 -72q-6 0 -24.5 31t-35 84t-16.5 98h39q41 0 79 7t93.5 40t94 86t67.5 157.5t29 244.5q0 8 -2 8l-6 -6 q-86 -133 -269 -133q-137 0 -219 108.5t-82 243.5zM301 389q0 -63 38 -110.5t110.5 -47.5t122 57.5t49.5 92.5q0 233 8 299l-43 6q-131 0 -208 -85t-77 -212z" />
<glyph unicode="h" horiz-adv-x="935" d="M82 -47q16 90 16 444l-6 711q0 199 10 209q25 25 80.5 47t106.5 22t51 -8q-2 -18 -8 -268t-6 -328v-18q0 -10 6 -10l41 41q23 20 91 56t128.5 36t100.5 -20.5t66.5 -49.5t45 -83t28 -100t15.5 -126q6 -109 6 -275l-8 -272q-6 -16 -69.5 -28.5t-104.5 -12.5l-68 10 q20 184 20 354q0 3 1 7q0 166 -25 252q-25 88 -100 88q-49 0 -92 -39t-60 -78l-18 -39q4 -141 4 -303t-10 -170q-61 -55 -226 -55q-16 0 -16 6z" />
<glyph unicode="i" horiz-adv-x="450" d="M102 1077.5q0 59.5 45.5 102.5t101.5 43t91 -37t35 -96.5t-46 -101.5t-102.5 -42t-90.5 36t-34 95.5zM117 446.5q0 317.5 14 346.5q46 36 160 36h6q47 0 57 -12l-2 -104l-4 -332q0 -160 9.5 -234.5t52.5 -140.5q0 -20 -84 -65t-144 -45q-18 0 -36.5 61t-23.5 116.5 t-5 373z" />
<glyph unicode="j" horiz-adv-x="595" d="M-133 -424h20q76 0 174 43q190 96 191 449q4 135 4 312t-14 193q-29 27 -123 50l-31 6q-4 8 -4 22q0 94 29 123q123 61 340 62q37 0 41 -5q-7 -276 -7 -530l5 -289q0 -160 -43 -282.5t-104.5 -190t-141.5 -108.5q-127 -68 -260 -68q-6 0 -24.5 31t-35 84t-16.5 98z M209 1078.5q0 58.5 45 101.5t101.5 43t91 -37t34.5 -96.5t-46 -101.5t-102.5 -42t-90 37t-33.5 95.5z" />
<glyph unicode="k" horiz-adv-x="882" d="M102 -47q17 90 17 444l-6 711q0 199 10 209q25 25 80 47t106 22t51 -8q-2 -10 -9 -286.5t-7 -357.5t2 -92t8 -11l4 2q66 70 195 174t166 104q121 -76 121 -123q-61 -39 -145.5 -106.5t-92.5 -85.5q0 -16 36 -117.5t105.5 -239t139.5 -206.5q0 -25 -90.5 -62t-155.5 -37 q-25 0 -95.5 192.5t-97.5 299.5l-4 6q-8 0 -51 -59.5t-43 -79.5l6 -209q0 -74 -8 -82q-27 -27 -92.5 -41t-107.5 -14t-42 6z" />
<glyph unicode="l" horiz-adv-x="456" d="M102 291l9 741q0 162 -4.5 219.5t-4.5 61.5q0 20 69 46.5t122 26.5t53 -8q-10 -76 -10 -532l-4 -502q0 -141 4 -174q10 -90 59 -164q0 -20 -84 -65t-143 -45q-16 0 -36.5 61t-25 106.5t-4.5 227.5z" />
<glyph unicode="m" horiz-adv-x="1370" d="M102 -47q15 88 15 301l-6 481q0 131 10 142q25 23 76 42t98 19t47 -8q-8 -90 -8 -137.5t4 -47.5t12 9.5t29.5 29t80 53t107.5 33.5q133 0 201 -118q116 163 256 163h2q127 0 182 -108q57 -121 68 -242q12 -176 12 -364l-8 -240q0 -14 -67.5 -27.5t-108.5 -13.5l-66 10 q23 203 23 328t-3 179.5t-15.5 108.5t-38 77.5t-64.5 23.5t-69.5 -21.5t-44 -42t-13.5 -26.5q6 -66 6 -303l-8 -162q0 -16 -65.5 -28.5t-106.5 -12.5l-66 10q19 167 19 311v8q0 136 -16 194t-81 58.5t-110 -65t-45 -100.5v-43l2 -217q0 -201 -8 -211q-51 -49 -215 -49 q-16 0 -17 6z" />
<glyph unicode="n" horiz-adv-x="952" d="M102 -47q14 92 15 303l-6 461q0 127 10 137q23 23 78 40t103 17t48 -10q-6 -49 -6 -98t6 -49l6 4q10 14 31 35.5t87.5 57.5t127 36t102 -21.5t68.5 -52.5t46.5 -88t29.5 -106.5t16 -131.5q6 -113 6 -286l-6 -240q0 -14 -67.5 -27.5t-108.5 -13.5l-67 10q20 184 20 357.5 t-22.5 260.5t-90 87t-109.5 -37t-54 -74l-15 -35v-28l2 -76v-156q0 -219 -8 -227q-27 -27 -92.5 -41t-107.5 -14t-42 6z" />
<glyph unicode="o" d="M61 396.5q0 199.5 142.5 354t384.5 154.5q98 -4 106 -12t8 -39t-6 -68q31 0 79 -35.5t79 -72.5t53.5 -103.5t22.5 -148.5q0 -195 -118 -337t-319.5 -142t-316.5 125t-115 324.5zM295 399q0 -160 102 -221q38 -25 105 -25q0 1 2 1q68 0 129 63.5t61 188t-63 163.5 q-47 31 -92 31h-17q-4 8 -4 35t6 51q-84 0 -156.5 -75.5t-72.5 -211.5z" />
<glyph unicode="p" horiz-adv-x="937" d="M92 -256l10 952q0 168 -6 234q25 25 83.5 47t101.5 22t53 -6l-2 -96q545 0 545 -422q0 -115 -46.5 -208t-114 -147t-147.5 -91q-137 -63 -245 -64v-31q0 -307 16 -409q-27 -27 -92.5 -42t-106.5 -15t-41 6q-8 66 -8 270zM324 295l2 -102q125 0 219 71.5t94 206.5 q0 221 -309 221l-2 -26v-70z" />
<glyph unicode="q" horiz-adv-x="987" d="M61 391q0 117 44.5 211t107.5 148.5t143 89.5q137 63 256 63q2 6 2 62q18 27 71.5 43t103 16t55.5 -6q1 -6 1 -37t-1 -88q-10 -338 -10 -498.5t2 -197.5h36q27 0 35 1t8 -1q0 -31 -19 -90.5t-62 -118.5q-6 -12 -6 -114q-1 -3 -1 -7q0 -97 13 -178q12 -84 59 -142 q-23 -33 -99.5 -63.5t-133.5 -30.5q-43 61 -54 174q-6 53 -6 342q-545 0 -545 422zM299 418q0 -92 52 -147.5t113.5 -71t137.5 -15.5q6 203 6 410l-2 104q-113 0 -210 -77.5t-97 -202.5z" />
<glyph unicode="r" horiz-adv-x="667" d="M92 -47q14 79 14 323l-4 465q0 121 9 129q23 23 78 40.5t103 17.5t48 -10q-6 -55 -6 -126t4 -71t8 5t13.5 16.5t39 40t64.5 48.5q88 57 188 58q16 -27 17 -82q0 -117 -29 -166l-8 -16l-27 4q-147 0 -231 -121q-33 -49 -33 -74v-180q0 -246 -6 -252q-57 -55 -225 -55 q-16 0 -17 6z" />
<glyph unicode="s" horiz-adv-x="729" d="M61 57v15q160 0 244 55t84 115q0 39 -51 82t-112.5 75.5t-113 87t-51.5 113.5q0 125 156 229.5t332 104.5q20 0 53 -56.5t35 -115.5q-41 0 -123 -25q-162 -51 -162 -127q0 -53 160 -145q61 -35 112.5 -96t53.5 -133q0 -111 -103.5 -198t-223.5 -125t-210 -38 q-10 0 -28 25q-51 68 -52 157z" />
<glyph unicode="t" horiz-adv-x="475" d="M0 982q0 79 18 95q45 2 109 4q0 119 -6 154t-6 41q1 20 71 47q69 27 121 27h2q53 0 53 -9q-4 -47 -10 -258q154 0 154 -6q0 -70 -20.5 -124t-39.5 -54h-96q-4 -303 -4 -492.5t6 -252.5q12 -106 84 -174q0 -23 -78.5 -66t-148.5 -43q-6 0 -23.5 20.5t-37 67.5t-24.5 92 t-5 321.5t6 522.5l-115 -2q-10 10 -10 89z" />
<glyph unicode="u" horiz-adv-x="935" d="M82 567q0 221 18 262q53 43 172 43q47 0 58 -10q0 -2 -2 -55q-10 -156 -10 -240q0 -14 -1 -27q1 -64 3 -97q2 -40 3 -51t6 -39.5t15 -49.5q31 -59 95.5 -59t114.5 64.5t48 90.5v70q0 375 12 403q10 18 64.5 39t108 21t61.5 -8l-4 -97q-12 -293 -12 -453q0 -8 -1 -16 q0 -145 9 -186q14 -102 55 -164q0 -20 -84 -65t-143 -45q-16 0 -37 61.5t-25 118.5l-2 43l-2 4q-49 -76 -124 -121t-146 -45q-215 0 -246 334q-4 53 -4 274z" />
<glyph unicode="v" horiz-adv-x="903" d="M20 872q0 4 21.5 17.5t75 28t121.5 14.5q125 -508 188 -649q2 -10 8 0q37 66 113 347t84 367q2 12 45 21.5t112.5 9.5t94.5 -20q0 -59 -145.5 -529.5t-162.5 -486.5q-29 -29 -157 -35l-43 -2q-57 0 -94 12q0 43 -130.5 433.5t-130.5 471.5z" />
<glyph unicode="w" horiz-adv-x="1343" d="M35 862q0 4 21.5 17.5t75.5 27t122 13.5q76 -446 139 -588q4 -10 10 0q35 68 72 209t45 227q2 10 49.5 18.5t92.5 8.5q137 0 141 -27q68 -383 108 -467h9q45 96 100 336t63 340q123 0 201 -43q25 -12 25 -16q0 -90 -62.5 -317.5t-125 -413t-71 -193.5t-72 -17.5 t-116.5 -9.5t-69 8q-18 18 -67.5 198.5t-68.5 305.5h-6q-31 -125 -83 -295t-64 -183t-82 -26.5t-111 -13.5t-47 6q-16 14 -122.5 405.5t-106.5 489.5z" />
<glyph unicode="x" horiz-adv-x="911" d="M20 27q0 39 263 426q-199 276 -199 307q12 43 67.5 96t100.5 66q16 -47 172 -269q199 276 278 336q23 0 96.5 -45t73.5 -67q-139 -141 -311 -406q221 -286 340 -356q0 -39 -71.5 -116t-108.5 -77q-59 25 -295 336q-166 -276 -205 -369q-51 0 -117.5 50.5t-83.5 87.5z" />
<glyph unicode="y" horiz-adv-x="935" d="M82 600q0 162 16 264l6 29q0 14 62.5 28.5t103.5 14.5l66 -10q-23 -203 -23 -342.5t29 -231.5t96.5 -92t107.5 40t50 79l10 39q-4 129 -4 277.5t10 158.5q27 27 93.5 41t107.5 14t41 -6q-16 -96 -16 -332l2 -544q0 -160 -42 -285t-102.5 -192.5t-138.5 -110.5 q-127 -72 -258 -72q-6 0 -24.5 31t-35 83t-16.5 97q78 0 156 30t108.5 63.5t61.5 84.5q63 100 63 326l-2 59q0 12 -4 12.5t-8 -6t-10 -15.5t-29.5 -32.5t-50.5 -42.5q-72 -49 -144.5 -49t-114.5 18.5t-69.5 47t-46 81t-29 97.5t-14.5 123q-8 109 -8 225z" />
<glyph unicode="z" horiz-adv-x="897" d="M61 117q20 74 180 282.5t238 282.5q3 3 3 5q0 15 -91 25q-106 12 -185 12.5t-97 -1.5q0 96 19 137t26 47q18 19 181 19h11q157 0 289 -14q137 -14 149 -27q39 -57 39 -166q-106 -80 -245.5 -266.5t-139.5 -227.5q80 0 232.5 -14t165.5 -29v-22q0 -137 -33 -170 q-78 6 -209 6q-242 0 -414 -29l-57 -8q-16 0 -39 57.5t-23 100.5z" />
<glyph unicode="{" horiz-adv-x="505" d="M10 662q0 16 86 100l29 26q8 56 8 220l-2 297q0 88 4 94q12 27 113.5 87t132.5 60q66 -14 104 -61q-147 -117 -157 -168q-6 -205 -6 -351.5t6 -183.5q-123 -96 -123 -120q0 -20 92 -95l31 -24q-6 -39 -6 -174l6 -361q8 -45 121 -139l36 -31q-35 -43 -104 -59 q-31 0 -132.5 60.5t-113.5 84.5q-4 8 -4 115l2 274q0 166 -8 224q-115 104 -115 125z" />
<glyph unicode="|" horiz-adv-x="366" d="M104 -86v1507q27 27 78 27q43 0 57.5 -6t22.5 -8v-1518q-18 -18 -49 -18h-37q-27 0 -39 4t-16 5t-6 3q-7 0 -11 4z" />
<glyph unicode="}" horiz-adv-x="505" d="M20 -162q145 117 158 170q4 203 4 355.5t-4 179.5q121 96 121 119q0 20 -90 96l-31 24q4 25 4 172l-4 363q-6 23 -45 64.5t-76 72.5l-37 31q33 41 105 61q31 0 132 -60.5t109.5 -80t8.5 -109.5l-2 -305q0 -143 6 -203q117 -106 117 -126q0 -8 -29 -40t-57 -59l-31 -26 q-6 -60 -6 -203l2 -305q0 -88 -4 -105q-12 -25 -113.5 -85t-132.5 -60q-66 12 -105 59z" />
<glyph unicode="~" horiz-adv-x="626" d="M61.5 444.5q-0.5 61.5 12.5 73.5q51 39 105 39t138 -14.5t137.5 -14.5t96.5 35q14 0 14 -51q0 -74 -16 -111q-41 -31 -85 -30.5t-133 14.5t-140.5 14t-116.5 -32q-12 16 -12.5 77.5z" />
<glyph unicode="&#xa1;" horiz-adv-x="440" d="M63 -459l9 37q37 172 37 231.5t14 312.5t20 322q39 17 84 17l84 -10q0 -195 16.5 -424.5t32.5 -362.5l19 -131q-20 -20 -121 -27l-35 -2q-111 0 -153 29q-6 4 -7 8zM84 739.5q0 57.5 40 97.5t97.5 40t97 -40t39.5 -97.5t-39.5 -97.5t-97 -40t-97.5 40t-40 97.5z" />
<glyph unicode="&#xa2;" horiz-adv-x="792" d="M61 591q0 183 109 315.5t285 185.5v98q39 39 118 39h2v-111q49 6 93.5 6t50.5 -2q10 -10 10 -107t-24 -97h-11q-57 0 -119 -13v-522q84 6 160 35q16 -16 16.5 -107.5t-20.5 -115.5q-57 -23 -156 -29v-66q-35 -35 -100 -39h-20v105q-201 16 -297.5 129t-96.5 296zM311 594 q0 -156 144 -199v467q-144 -84 -144 -268z" />
<glyph unicode="&#xa3;" horiz-adv-x="1085" d="M20 690q0 96 52 148h118q0 297 3 309q14 41 66 83t110 70q143 70 372 70q37 -41 37 -156q-29 0 -75 -5t-136 -42t-123 -96q-6 -29 -14 -233h275q-1 -93 -52 -148h-227q-2 -94 -2 -287.5t8 -201.5q25 -25 175.5 -25t220 68.5t90.5 165.5q33 -2 74.5 -23.5t41.5 -56.5 t-27.5 -145.5t-70.5 -168.5q-25 -31 -199 -30q-170 0 -313 14l-55 4q-98 -20 -162 -20l-96 8q0 45 45 143l16 33q14 29 18 522h-170z" />
<glyph unicode="&#xa4;" horiz-adv-x="958" d="M61 248l146 229q-49 82 -49 177.5t53 172.5l-150 236q47 18 93.5 18t72.5 -6l90 -145q78 45 164 45t162 -43l88 139q27 6 55 6q63 0 111 -18l-147 -232q53 -78 53 -177t-53 -177l147 -229q-47 -18 -93 -18.5t-73 5.5l-88 140q-70 -43 -161 -43t-169 45l-86 -137 q-27 -6 -55 -7q-63 0 -111 19zM272 651q0 -88 60.5 -148.5t147.5 -60.5t148.5 60.5t61.5 148.5t-61.5 148.5t-148.5 60.5t-147.5 -60.5t-60.5 -148.5z" />
<glyph unicode="&#xa5;" horiz-adv-x="1251" d="M10 1196q0 29 13.5 75t19.5 52q27 27 262 27q27 0 31 -4.5t37 -63.5q133 -250 186 -342t54 -95t7.5 -6t10.5 9q41 84 166 278.5t198 259.5q61 0 121 -15t91.5 -32.5t29.5 -29.5q-190 -209 -365 -473h136q0 -92 -52 -146h-170q-47 -96 -47 -137h269q0 -92 -52 -145h-219 q0 -328 17 -394q0 -49 -199 -49q-49 1 -78 17l-2 84q0 137 8 342h-305q0 94 49 145h265q2 14 2 35v6l-64 96h-252q0 94 49 146h111q-25 41 -54.5 92t-48 81.5t-38.5 63.5q-37 61 -54.5 75.5t-58.5 31t-74 16.5z" />
<glyph unicode="&#xa6;" horiz-adv-x="366" d="M104 -86v666q27 27 64 26.5t94 -14.5v-676q-18 -18 -49 -18h-37q-27 0 -39 4t-16 5t-6 3q-6 0 -11 4zM104 776v645q27 27 78 27q43 0 57.5 -6t22.5 -8v-656q-18 -18 -49 -18h-37q-27 0 -39 4t-16 5t-6 1q-7 4 -11 6z" />
<glyph unicode="&#xa7;" horiz-adv-x="1052" d="M61 639q0 98 93 174q72 57 176 113l2 2q-121 76 -121 161t72.5 142t181.5 84q193 47 348 47h27q8 0 16 -41t8 -69.5t-10 -69.5h-20q-150 0 -259 -39q-70 -25 -69 -64q0 -29 49 -57.5t121 -58t143.5 -63.5t121.5 -85t50 -113q0 -92 -74.5 -159.5t-193.5 -126.5q-4 -2 0 -4 q119 -78 119 -162t-73 -141.5t-181 -83.5q-193 -47 -346 -48h-27q-8 0 -16.5 43t-8.5 75t9 63h20q152 0 260 39q70 25 70 63q0 57 -242 146q-92 35 -169 97t-77 136zM322 666.5q0 -48.5 88 -96.5t121.5 -48t116.5 51.5t83 100.5t-86 96t-122 47t-118.5 -51t-82.5 -99.5z" />
<glyph unicode="&#xa8;" d="M193 1115q0 46 31.5 78t74.5 32t73.5 -31t30.5 -74t-32.5 -75.5t-76.5 -32.5t-72.5 28.5t-28.5 74.5zM578 1115q0 46 31.5 78t74.5 32t72.5 -31t29.5 -74t-31.5 -75.5t-75.5 -32.5t-72.5 28.5t-28.5 74.5z" />
<glyph unicode="&#xa9;" horiz-adv-x="768" d="M61 651q0 133 95.5 228.5t228.5 95.5t227.5 -95.5t94.5 -228.5t-94.5 -228t-227.5 -95t-228.5 95t-95.5 228zM127 651.5q0 -106.5 76 -182.5t182.5 -76t182 76t75.5 182.5t-75.5 182t-182 75.5t-182.5 -75.5t-76 -182zM213 652q0 77 51 129.5t120 52.5t85 -17 q4 -2 4 -30.5t-5 -28.5t-22.5 6t-50.5 6t-71.5 -26.5t-38.5 -86t31.5 -91t84.5 -31.5q41 0 53.5 6t20.5 8q6 -6 6 -29t-8 -31q-25 -18 -95.5 -18t-117.5 52t-47 129z" />
<glyph unicode="&#xaa;" horiz-adv-x="649" d="M61 662.5q0 80.5 46.5 137t109.5 81.5q115 43 174 43l2 2q0 63 -162 63l-96 -4q0 25 16.5 65t27.5 51t93 11q289 0 289 -231v-68q0 -164 6 -192q8 -68 43 -103q0 -14 -51 -43t-94 -29q-10 0 -24.5 34t-15.5 51.5t-3 17.5l-4 -4q-70 -53 -162 -53t-143.5 45t-51.5 125.5z M223 690q0 -27 20.5 -46t60.5 -19t77 23.5t37 80.5v49q0 29 -2 29q-57 0 -125 -28.5t-68 -88.5z" />
<glyph unicode="&#xab;" horiz-adv-x="1134" d="M20 458q0 38 202 259t239 221q45 8 95 8t67 -4q18 -8 14 -16q-66 -53 -226.5 -241.5t-160.5 -223.5t160.5 -224.5t226.5 -240.5q8 -12 -2 -12q-29 -10 -80 -11l-94 9q-43 0 -242 219t-199 257zM485 458q0 38 202 259t239 221q45 8 94 8t65 -4q23 -8 15 -16 q-66 -55 -225.5 -242.5t-159.5 -222.5t159.5 -223.5t225.5 -241.5q4 -4 2 -8q-2 -14 -82 -15l-94 9q-43 0 -242 219t-199 257z" />
<glyph unicode="&#xac;" horiz-adv-x="1075" d="M61.5 858q-0.5 57 22.5 78h913q16 -23 17 -78v-653q-23 -18 -80 -18.5t-80 22.5v569h-774q-18 23 -18.5 80z" />
<glyph unicode="&#xad;" horiz-adv-x="1175" d="M61.5 398q-0.5 59 22.5 79h1014q16 -23 16 -80t-18 -78h-1016q-18 20 -18.5 79z" />
<glyph unicode="&#xae;" horiz-adv-x="768" d="M61 651q0 133 95.5 228.5t228.5 95.5t227.5 -95.5t94.5 -228.5t-94.5 -228t-227.5 -95t-228.5 95t-95.5 228zM127 651.5q0 -106.5 76 -182.5t182.5 -76t182 76t75.5 182.5t-75.5 182t-182 75.5t-182.5 -75.5t-76 -182zM260 821q6 6 100 6q164 0 164 -90q0 -68 -78 -102 q0 -6 33 -63.5t51 -75.5q-16 -16 -57 -17h-14q-12 12 -38 67.5t-28 67.5q-10 -4 -53 -10q4 -113 6 -119q-14 -12 -55 -12l-19 4l9 291q-20 20 -21 53zM340 659q59 6 88 29t29 45q0 41 -76 41l-39 -2q-2 -15 -2 -113z" />
<glyph unicode="&#xaf;" horiz-adv-x="952" d="M225.5 1110.5q-0.5 58.5 22.5 79.5h487q16 -23 16.5 -80t-18.5 -78h-489q-18 20 -18.5 78.5z" />
<glyph unicode="&#xb0;" horiz-adv-x="364" d="M20 1126.5q0 69.5 49.5 119.5t115 50t112.5 -48t47 -113.5t-49 -115.5t-116.5 -50t-113 44t-45.5 113.5zM96 1129.5q0 -37.5 24.5 -61.5t59.5 -24t61.5 27t26.5 61.5t-24.5 60.5t-59 26t-61.5 -26t-27 -63.5z" />
<glyph unicode="&#xb1;" horiz-adv-x="1105" d="M61.5 285.5q-0.5 58.5 22.5 79.5h942q16 -23 16 -80.5t-18 -77.5h-944q-18 20 -18.5 78.5zM61.5 866q-0.5 58 22.5 80h389v273q25 16 80 16t80 -18v-271h395q16 -23 16 -80t-20 -78h-391v-270q-23 -18 -80 -18t-80 22v266h-393q-18 20 -18.5 78z" />
<glyph unicode="&#xb2;" horiz-adv-x="628" d="M51 667.5q0 57.5 10 67.5q125 113 238 254t113 191q0 70 -107 69q-53 0 -86 -25.5t-43 -52t-20 -73.5q-2 -2 -39 -2t-54 16q-2 2 -2 100.5t7.5 105.5t42.5 17q86 27 203.5 27t186 -47t68.5 -121q0 -125 -319 -457q0 -8 26 -8h39q186 0 258 23h2q2 0 2.5 -15.5t-11 -61.5 t-24 -58.5t-155.5 -12.5l-205 6l-123 -4h-4q-4 4 -4 61.5z" />
<glyph unicode="&#xb3;" horiz-adv-x="710" d="M84 782v37q2 6 27.5 14.5t48 8.5t22.5 -2q0 -135 121 -135q84 0 126 37.5t42 91.5q0 127 -254 127q-10 0 -10 4q0 47 15.5 79.5t17.5 32.5q14 -2 48 -2t68 19q51 29 51.5 68.5t-38.5 59t-100.5 19.5t-127.5 -20q-4 2 -5 57t16 68q53 16 137 16q283 0 282 -174 q0 -57 -35.5 -95t-74.5 -53l-2 -4q109 -37 151 -121q18 -37 19 -81q0 -127 -107.5 -188.5t-253.5 -61.5q-102 0 -170 22q-14 14 -14 176z" />
<glyph unicode="&#xb4;" d="M414 1063q0 27 56 104.5t95 100.5q33 0 79 -34t46 -58q-41 -25 -112 -88.5t-91 -88.5q-18 0 -43.5 22.5t-29.5 41.5z" />
<glyph unicode="&#xb5;" horiz-adv-x="935" d="M-305 -424h20q76 0 174 43q190 96 191 449q4 125 3 202.5t-1 297.5t18 261q53 43 172 43q47 0 58 -10q0 -2 -2 -55q-10 -156 -10.5 -240t2 -124t3.5 -51t6 -39.5t15 -49.5q31 -59 95.5 -59t114.5 64.5t48 90.5v70q0 375 12 403q10 18 64.5 39t108 21t61.5 -8l-4 -97 q-12 -293 -12.5 -452.5t8.5 -202.5q14 -102 55 -164q0 -20 -84 -65t-143 -45q-16 0 -37 61.5t-25 118.5l-2 43l-2 4q-49 -76 -124 -121t-146 -45h-15q-6 -145 -52 -258t-106.5 -174.5t-138.5 -99.5q-125 -63 -249 -64q-6 0 -24.5 31t-35 84t-16.5 98z" />
<glyph unicode="&#xb6;" horiz-adv-x="1064" d="M61 903q0 123 99 230q119 131 375 188q145 33 331 37h17q78 0 78 -12q-12 -223 -13 -537l4 -303l2 -539q-33 -25 -71 -24q-70 0 -103 18q12 86 13 498l-2 487q0 225 4 266q-63 0 -129 -28q-14 -14 -15 -307l6 -727q0 -113 -4 -134q-8 -20 -48 -33.5t-81 -13.5t-41 6 q14 35 14.5 279t-1.5 264q-109 27 -199 69t-163 126t-73 190z" />
<glyph unicode="&#xb7;" horiz-adv-x="382" d="M72 428q0 51 35.5 88t85 37t84 -35t34.5 -84t-37.5 -87t-87 -38t-82 34t-32.5 85z" />
<glyph unicode="&#xb8;" horiz-adv-x="790" d="M383 -289.5q0 13.5 2 17.5q41 0 72.5 17t31.5 35.5t-22.5 33t-44.5 18.5l-25 4q0 59 39 125q41 0 86 -20q-16 -29 -16 -62q31 -12 62.5 -44t31.5 -58q0 -49 -64.5 -84t-125.5 -35q-6 0 -16.5 19.5t-10.5 33z" />
<glyph unicode="&#xb9;" horiz-adv-x="485" d="M82 1227q0 43 11 54t114.5 52t124.5 41h2q4 -4 4 -74l-6 -448q0 -121 6 -127q25 2 41 2t16 -2q8 -25 8 -70t-6 -45h-32q-96 0 -185 -12l-30 -4q-6 6 -6.5 56t6.5 57l47 8l-2 55l8 344q0 78 -8 86q0 2 -9.5 2t-33.5 -6l-68 -12q-2 0 -2 43z" />
<glyph unicode="&#xba;" horiz-adv-x="679" d="M61 792q0 128 91.5 227t246.5 99q61 -2 67.5 -8t6.5 -24.5t-6 -43.5q18 0 50 -23.5t52 -47.5q49 -55 49 -170t-75.5 -206t-204.5 -91t-203 80t-74 208zM213 795q0 -96 53 -136q27 -23 75 -22.5t87 41.5t39 121q0 123 -98 123h-13l-2 16q0 25 4 41q-53 0 -99 -49t-46 -135 z" />
<glyph unicode="&#xbb;" horiz-adv-x="1134" d="M33 918q2 14 82 14l94 -8q37 0 238.5 -221.5t201.5 -259t-198.5 -257t-241.5 -219.5q-45 -8 -94 -8t-66 4q-25 8 -14 19q66 53 225.5 241.5t159.5 223t-160 222t-225 242.5q-4 2 -2 7zM496 918q4 14 84 14l94 -8q37 0 238.5 -221.5t201.5 -259t-198.5 -257t-241.5 -219.5 q-45 -8 -95.5 -8t-78.5 10q-10 0 -2 13q66 51 226.5 240.5t160.5 224t-161 223t-226 241.5q-2 2 -2 7z" />
<glyph unicode="&#xbc;" horiz-adv-x="1376" d="M82 1227q0 43 11 54t114.5 52t124.5 41h2q4 -4 4 -74l-6 -448q0 -121 6 -127q25 2 41 2t16 -2q8 -25 8 -70t-6 -45h-32q-96 0 -185 -12l-30 -4q-6 6 -6.5 56t6.5 57l47 8l-2 55l8 344q0 78 -8 86q0 2 -9.5 2t-33.5 -6l-68 -12q-2 0 -2 43zM96 -55l936 1476q27 8 53 9 q51 0 93 -25l-942 -1477q-35 -6 -60 -6q-49 0 -80 23zM696 272q0 31 135.5 235t206.5 284q10 18 80 18t70 -6t-36 -48t-36 -48q102 -2 103 -17q-6 -201 -7 -387q57 0 69.5 2t12.5 -4q0 -31 -16 -68.5t-25 -46.5l-39 -4q0 -133 13 -186q0 -10 -49.5 -22.5t-83.5 -12.5l-29 2 q-6 6 -6 46t4 171q-86 -4 -210 -4t-132 4q-20 20 -25 92zM862 305q0 -6 84 -6l123 2q6 152 6 246t-4 94q-20 -20 -114.5 -163.5t-94.5 -172.5z" />
<glyph unicode="&#xbd;" horiz-adv-x="1419" d="M82 1227q0 43 11 54t114.5 52t124.5 41h2q4 -4 4 -74l-6 -448q0 -121 6 -127q25 2 41 2t16 -2q8 -25 8 -70t-6 -45h-32q-96 0 -185 -12l-30 -4q-6 6 -6.5 56t6.5 57l47 8l-2 55l8 344q0 78 -8 86q0 2 -9.5 2t-33.5 -6l-68 -12q-2 0 -2 43zM96 -55l936 1476q27 8 53 9 q51 0 93 -25l-942 -1477q-35 -6 -60 -6q-49 0 -80 23zM831.5 51.5q-0.5 57.5 10.5 67.5q125 113 237.5 254t112.5 190q0 70 -107 70q-53 0 -85.5 -25.5t-43 -52.5t-20.5 -74q-2 -2 -39 -2t-53 17q-2 2 -2 100t7 105.5t40 17.5q88 27 205.5 26.5t186.5 -47.5t69 -120 q-1 -125 -320 -457q0 -8 27 -8h39q186 0 258 22h2q2 0 2 -15.5t-11.5 -61.5t-23.5 -58t-156 -12l-204 6l-123 -4h-4q-4 4 -4.5 61.5z" />
<glyph unicode="&#xbe;" horiz-adv-x="1527" d="M84 782v37q2 6 27.5 14.5t48 8.5t22.5 -2q0 -135 121 -135q84 0 126 37.5t42 91.5q0 127 -254 127q-10 0 -10 4q0 47 15.5 79.5t17.5 32.5q14 -2 48 -2t68 19q51 29 51.5 68.5t-38.5 59t-100.5 19.5t-127.5 -20q-4 2 -5 57t16 68q53 16 137 16q283 0 282 -174 q0 -57 -35.5 -95t-74.5 -53l-2 -4q109 -37 151 -121q18 -37 19 -81q0 -127 -107.5 -188.5t-253.5 -61.5q-102 0 -170 22q-14 14 -14 176zM248 -55l936 1476q27 8 53 9q51 0 92 -25l-942 -1477q-33 -6 -59 -6q-49 0 -80 23zM848 272q0 31 135 235t207 284q10 18 79.5 18 t69.5 -6t-35.5 -48t-35.5 -48q102 -2 102 -17q-6 -201 -6 -387q57 0 69.5 2t12.5 -4q0 -31 -16.5 -68.5t-24.5 -46.5l-39 -4q0 -133 12 -186q0 -10 -49 -22.5t-84 -12.5l-28 2q-6 6 -6.5 46t3.5 171q-86 -4 -209.5 -4t-132.5 4q-20 20 -24 92zM1014 305q0 -6 84 -6l123 2 q6 152 6 246t-4 94q-20 -20 -114.5 -163.5t-94.5 -172.5z" />
<glyph unicode="&#xbf;" horiz-adv-x="811" d="M61 -156q0 117 58 195q59 76 111.5 105.5t78 43t51 22.5t27.5 11q14 6 26.5 84t12.5 115q12 12 58 24.5t80 12.5t50 -4q23 -37 23 -155t-12 -163q-324 -78 -324 -262q0 -160 295 -160q104 0 152 21q12 -20 12 -87t-19 -108q-55 -26 -161 -26q-281 0 -400 96t-119 235z M406 737.5q0 57.5 39.5 97t97 39.5t97.5 -39.5t40 -97t-40 -97.5t-97.5 -40t-97 40t-39.5 97.5z" />
<glyph unicode="&#xc0;" horiz-adv-x="1261" d="M51 -29q0 82 146 478q-27 23 -62 93t-35 117q0 2 170 9q168 487 191 514q8 6 73.5 19t83.5 13l-4 27q-4 29 -9 62.5t-5 44.5q0 6 35 24q100 49 207 49q20 -121 54 -308t132 -572t189 -537l14 -24q0 -10 -39 -35t-102.5 -47.5t-116.5 -22.5q-18 0 -89 232.5t-96 351.5 q-29 2 -176 2t-172 -8q-109 -356 -123 -514q0 -2 -50 -2t-103 6q-113 16 -113 28zM510 674q227 0 229 -4q-70 295 -76 329.5t-10 34.5t-10 -8q-18 -35 -68.5 -168t-64.5 -184zM528 1651q0 25 46.5 58.5t78.5 33.5q39 -23 95.5 -100.5t56.5 -104.5q-4 -18 -30 -40.5 t-44 -22.5q-20 25 -91 88t-112 88z" />
<glyph unicode="&#xc1;" horiz-adv-x="1261" d="M51 -29q0 -12 83 -23t133 -11t50 2q14 158 123 514q25 8 172 8t176 -2q25 -119 95.5 -351.5t89.5 -232.5q53 0 116.5 22.5t102.5 47t39 35.5q-12 23 -14 24q-90 152 -183.5 506t-142.5 633l-49 278q-106 0 -207 -49q-35 -18 -35 -24q0 -10 5 -44t9 -63l4 -27 q-18 0 -83.5 -13t-73.5 -19q-23 -27 -191 -514q-170 -6 -170 -9q0 -47 35 -117.5t62 -92.5q-145 -395 -146 -478zM492 1473q0 27 56 104.5t95 99.5q33 0 79 -33.5t46 -58.5q-41 -25 -112 -88t-91 -88q-18 0 -43.5 22.5t-29.5 41.5zM510 674q14 51 64.5 184t68.5 168 q6 8 10 8l4 -6q12 -63 82 -358q-2 4 -229 4z" />
<glyph unicode="&#xc2;" horiz-adv-x="1261" d="M51 -29q0 82 146 478q-27 23 -62 93t-35 117q0 2 170 9q168 487 191 514q8 6 73.5 19t83.5 13l-4 27q-4 29 -9 62.5t-5 44.5q0 6 35 24q100 49 207 49q20 -121 54 -308t132 -572t189 -537l14 -24q0 -10 -39 -35t-102.5 -47.5t-116.5 -22.5q-18 0 -89 232.5t-96 351.5 q-29 2 -176 2t-172 -8q-109 -356 -123 -514q0 -2 -50 -2t-103 6q-113 16 -113 28zM428 1518q0 27 56.5 104.5t95.5 99.5q31 0 71 -26q41 27 70 26q39 -23 95 -100.5t56 -103.5q-4 -18 -30.5 -41t-44.5 -23q-10 14 -70 69.5t-76 65.5q-18 -10 -75.5 -63t-71.5 -72 q-18 0 -45 22.5t-31 41.5zM510 674q227 0 229 -4q-70 295 -76 329.5t-10 34.5t-10 -8q-18 -35 -68.5 -168t-64.5 -184z" />
<glyph unicode="&#xc3;" horiz-adv-x="1261" d="M51 -29q0 82 146 478q-27 23 -62 93t-35 117q0 2 170 9q168 487 191 514q8 6 73.5 19t83.5 13l-4 27q-4 29 -9 62.5t-5 44.5q0 6 35 24q100 49 207 49q20 -121 54 -308t132 -572t189 -537l14 -24q0 -10 -39 -35t-102.5 -47.5t-116.5 -22.5q-18 0 -89 232.5t-96 351.5 q-29 2 -176 2t-172 -8q-109 -356 -123 -514q0 -2 -50 -2t-103 6q-113 16 -113 28zM444.5 1556.5q-0.5 61.5 12.5 73.5q51 39 105 39t97 -14.5t96.5 -14.5t96.5 35q14 0 14 -53q0 -72 -16 -109q-41 -31 -85 -30.5t-92 14.5t-99.5 14t-116.5 -32q-12 16 -12.5 77.5zM510 674 q227 0 229 -4q-70 295 -76 329.5t-10 34.5t-10 -8q-18 -35 -68.5 -168t-64.5 -184z" />
<glyph unicode="&#xc4;" horiz-adv-x="1261" d="M51 -29q0 -12 83 -23t133 -11t50 2q14 158 123 514q25 8 172 8t176 -2q25 -119 95.5 -351.5t89.5 -232.5q53 0 116.5 22.5t102.5 47t39 35.5q-12 23 -14 24q-90 152 -183.5 506t-142.5 633l-49 278q-106 0 -207 -49q-35 -18 -35 -24q0 -10 5 -44t9 -63l4 -27 q-18 0 -83.5 -13t-73.5 -19q-23 -27 -191 -514q-170 -6 -170 -9q0 -47 35 -117.5t62 -92.5q-145 -395 -146 -478zM403 1596q0 46 32 78t75 32t73.5 -30.5t30.5 -73.5t-32.5 -76t-76.5 -33t-73 28.5t-29 74.5zM510 674q14 51 64.5 184t68.5 168q6 8 10 8l4 -6q12 -63 82 -358 q-2 4 -229 4zM788 1596q0 46 32 78t75 32t72.5 -30.5t29.5 -73.5t-31.5 -76t-75.5 -33t-73 28.5t-29 74.5z" />
<glyph unicode="&#xc5;" horiz-adv-x="1261" d="M51 -29q0 -12 83 -23t133 -11t50 2q14 158 123 514q25 8 172 8t176 -2q25 -119 95.5 -351.5t89.5 -232.5q53 0 116.5 22.5t102.5 47t39 35.5q-12 23 -14 24q-90 152 -183.5 506t-142.5 633l-49 278q-106 0 -207 -49q-35 -18 -35 -24q0 -10 5 -44t9 -63l4 -27 q-18 0 -83.5 -13t-73.5 -19q-23 -27 -191 -514q-170 -6 -170 -9q0 -47 35 -117.5t62 -92.5q-145 -395 -146 -478zM510 674q14 51 64.5 184t68.5 168q6 8 10 8l4 -6q12 -63 82 -358q-2 4 -229 4zM567 1602.5q0 58.5 41 100.5t96.5 42t94.5 -40t39 -95.5t-42 -97.5t-97.5 -42 t-93.5 37t-38 95.5zM643 1604.5q0 -25.5 16.5 -42t41 -16.5t43 18.5t18.5 43t-17.5 42t-41 17.5t-42 -18.5t-18.5 -44z" />
<glyph unicode="&#xc6;" horiz-adv-x="1751" d="M51 -70q0 72 152 519q-27 23 -63 92t-36 116q0 4 170 9q174 496 193 514q8 8 76.5 21t81.5 13l-4 27q-4 29 -9.5 61.5t-5.5 42t34 27t92.5 32.5t111.5 15q35 -209 40 -209t7 4q0 129 12 142q166 8 458 8t292 -8q0 -43 -19.5 -94.5t-41 -81t-31 -26.5t-82 3t-205.5 -9 t-145.5 -21.5t-12.5 -223.5l2 -86q193 4 295.5 4t102.5 -6q0 -80 -50 -168q-16 -31 -20 -29h-14q-59 0 -182.5 -11t-128.5 -16t-5 -175t8 -178q31 -31 351 -31q111 0 149 6q66 10 66 4q0 -47 -32 -113.5t-69 -103.5q-12 -12 -346 -16l12 -23q0 -10 -40.5 -33.5t-106.5 -45 t-119 -21.5q-20 0 -95 241.5t-99 356.5q-29 2 -176.5 2t-172.5 -8q-115 -381 -129 -555q0 -2 -50 -2t-103 6q-113 14 -113 28zM516 672l137 2q88 0 92 -4q-66 276 -81 356q-4 6 -8.5 6t-12.5 -18.5t-60.5 -154.5t-66.5 -187z" />
<glyph unicode="&#xc7;" horiz-adv-x="1228" d="M72 553q0 231 102 430q59 117 149.5 205t244 145.5t347.5 57.5q66 0 117 -12.5t51 -16.5q0 -98 -13 -224t-15 -128q-10 -10 -85 -33t-112 -23v13q0 92 -26.5 129t-92.5 37q-145 0 -270 -153t-125 -419q0 -141 70 -254q37 -59 107.5 -96t166.5 -37q193 0 375 178 q8 0 33.5 -25.5t50.5 -68.5q51 -82 51 -100.5t-59.5 -65.5t-181 -98t-250.5 -57q-12 -27 -13 -62q12 -6 31.5 -15.5t51.5 -42t32 -65.5q0 -59 -79 -102t-152 -43q-6 0 -19.5 25.5t-13.5 45.5l2 13q51 0 89 20.5t38 44t-28 41t-56 23.5l-27 4q0 47 33 117q-258 25 -391 191.5 t-133 420.5z" />
<glyph unicode="&#xc8;" horiz-adv-x="1085" d="M82 795q-1 2 108 6l3 221q0 88 -5 96q-23 23 -58.5 109t-35.5 110q23 23 719 23q172 0 172 -8q0 -43 -19.5 -94.5t-41 -82t-30.5 -27.5t-84 3t-208 -9t-145.5 -21.5t-12.5 -225.5l2 -86q82 2 242 2t160 -6q0 -74 -49 -168q-18 -33 -23 -31q-53 0 -182 -9t-150 -22 q-2 -2 -2 -172t11 -180q33 -33 352 -33q129 0 174 7.5t45 5.5q0 -49 -33 -117t-69 -102q-20 -20 -367.5 -20.5t-359.5 16.5q-12 10 -12.5 197.5t3.5 395.5q-37 33 -70.5 102.5t-33.5 119.5zM403 1585q0 25 46.5 58.5t78.5 33.5q39 -23 95.5 -100.5t56.5 -103.5 q-4 -18 -30 -41t-44 -23q-20 25 -91 88.5t-112 87.5z" />
<glyph unicode="&#xc9;" horiz-adv-x="1085" d="M82 795q-1 2 108 6l3 221q0 88 -5 96q-23 23 -58.5 109t-35.5 110q23 23 719 23q172 0 172 -8q0 -43 -19.5 -94.5t-41 -82t-30.5 -27.5t-84 3t-208 -9t-145.5 -21.5t-12.5 -225.5l2 -86q82 2 242 2t160 -6q0 -74 -49 -168q-18 -33 -23 -31q-53 0 -182 -9t-150 -22 q-2 -2 -2 -172t11 -180q33 -33 352 -33q129 0 174 7.5t45 5.5q0 -49 -33 -117t-69 -102q-20 -20 -367.5 -20.5t-359.5 16.5q-12 10 -12.5 197.5t3.5 395.5q-37 33 -70.5 102.5t-33.5 119.5zM430 1477q0 27 56.5 104.5t95.5 99.5q33 0 79 -33.5t46 -58.5q-41 -25 -112 -88 t-91 -88q-18 0 -44 22.5t-30 41.5z" />
<glyph unicode="&#xca;" horiz-adv-x="1085" d="M82 795q-1 2 108 6l3 221q0 88 -5 96q-23 23 -58.5 109t-35.5 110q23 23 719 23q172 0 172 -8q0 -43 -19.5 -94.5t-41 -82t-30.5 -27.5t-84 3t-208 -9t-145.5 -21.5t-12.5 -225.5l2 -86q82 2 242 2t160 -6q0 -74 -49 -168q-18 -33 -23 -31q-53 0 -182 -9t-150 -22 q-2 -2 -2 -172t11 -180q33 -33 352 -33q129 0 174 7.5t45 5.5q0 -49 -33 -117t-69 -102q-20 -20 -367.5 -20.5t-359.5 16.5q-12 10 -12.5 197.5t3.5 395.5q-37 33 -70.5 102.5t-33.5 119.5zM319 1473q0 27 56.5 104.5t95.5 99.5q31 0 72 -26q39 27 69 26q39 -23 95.5 -100.5 t56.5 -103.5q-4 -18 -30.5 -41t-45.5 -23q-10 14 -69.5 69.5t-75.5 65.5q-18 -10 -75.5 -63.5t-72.5 -71.5q-18 0 -44.5 22.5t-31.5 41.5z" />
<glyph unicode="&#xcb;" horiz-adv-x="1085" d="M82 795q-1 2 108 6l3 221q0 88 -5 96q-23 23 -58.5 109t-35.5 110q23 23 719 23q172 0 172 -8q0 -43 -19.5 -94.5t-41 -82t-30.5 -27.5t-84 3t-208 -9t-145.5 -21.5t-12.5 -225.5l2 -86q82 2 242 2t160 -6q0 -74 -49 -168q-18 -33 -23 -31q-53 0 -182 -9t-150 -22 q-2 -2 -2 -172t11 -180q33 -33 352 -33q129 0 174 7.5t45 5.5q0 -49 -33 -117t-69 -102q-20 -20 -367.5 -20.5t-359.5 16.5q-12 10 -12.5 197.5t3.5 395.5q-37 33 -70.5 102.5t-33.5 119.5zM246 1525q0 46 31.5 77.5t74.5 31.5t74 -30.5t31 -73.5t-33 -76t-77 -33t-72.5 29 t-28.5 75zM631 1525q0 46 31.5 77.5t74.5 31.5t73 -30.5t30 -73.5t-32 -76t-76 -33t-72.5 29t-28.5 75z" />
<glyph unicode="&#xcc;" horiz-adv-x="628" d="M92 41q0 90 14 109q25 12 80 12q-4 70 -4 496.5t11 488.5h-5q-55 0 -92 -12q-4 0 -4 93t12 105t164 22.5t254 10.5q6 0 6 -33l-6 -151q0 -8 -6 -8q-70 0 -74 -3.5t-6 -85.5q-8 -324 -8 -560t16 -345q27 2 84 2q8 0 8.5 -101t-12.5 -101q-297 0 -426 -29q-6 0 -6 90z M176 1585q0 25 46 58.5t79 33.5q39 -23 95.5 -100.5t56.5 -103.5q-4 -18 -30 -41t-44 -23q-20 25 -91 88.5t-112 87.5z" />
<glyph unicode="&#xcd;" horiz-adv-x="628" d="M92 41.5q0 -90.5 6 -90.5q129 29 426 29l6 6q6 55 6.5 125.5t-8.5 70.5q-57 0 -84 -2q-16 109 -16 330t2 358q8 299 12 302.5t74 3.5q6 0 6 8l6 151q0 33 -6 33q-215 0 -315.5 -15.5t-102.5 -17.5q-12 -12 -12 -105t4 -93q37 12 92 12h5q-10 -61 -10.5 -488.5t3.5 -496.5 q-55 0 -80 -12q-14 -18 -14 -108.5zM176 1473q0 27 56.5 104.5t95.5 99.5q33 0 79 -33.5t46 -58.5q-41 -25 -112 -88t-91 -88q-18 0 -44 22.5t-30 41.5z" />
<glyph unicode="&#xce;" horiz-adv-x="628" d="M92 41q0 90 14 109q25 12 80 12q-4 70 -4 496.5t11 488.5h-5q-55 0 -92 -12q-4 0 -4 93t12 105t164 22.5t254 10.5q6 0 6 -33l-6 -151q0 -8 -6 -8q-70 0 -74 -3.5t-6 -85.5q-8 -324 -8 -560t16 -345q27 2 84 2q8 0 8.5 -101t-12.5 -101q-297 0 -426 -29q-6 0 -6 90z M92 1473q0 27 56.5 104.5t95.5 99.5q31 0 71 -26q39 27 70 26q39 -23 95.5 -100.5t56.5 -103.5q-4 -18 -31 -41t-45 -23q-10 14 -70 69.5t-76 65.5q-18 -10 -75.5 -63.5t-71.5 -71.5q-18 0 -45 22.5t-31 41.5z" />
<glyph unicode="&#xcf;" horiz-adv-x="628" d="M18 1525q0 46 32 77.5t75 31.5t73.5 -30.5t30.5 -73.5t-32.5 -76t-76.5 -33t-73 29t-29 75zM92 41.5q0 -90.5 6 -90.5q129 29 426 29l6 6q6 55 6.5 125.5t-8.5 70.5q-57 0 -84 -2q-16 109 -16 330t2 358q8 299 12 302.5t74 3.5q6 0 6 8l6 151q0 33 -6 33 q-215 0 -315.5 -15.5t-102.5 -17.5q-12 -12 -12 -105t4 -93q37 12 92 12h5q-10 -61 -10.5 -488.5t3.5 -496.5q-55 0 -80 -12q-14 -18 -14 -108.5zM403 1525q0 46 32 77.5t75 31.5t72.5 -30.5t29.5 -73.5t-31.5 -76t-75.5 -33t-73 29t-29 75z" />
<glyph unicode="&#xd0;" horiz-adv-x="1280" d="M47.5 688.5q-0.5 28.5 7.5 49t17 22.5h100q4 250 4 360q-23 35 -57.5 124t-34.5 106.5t2 19.5q20 20 242 21q426 0 658.5 -178.5t232.5 -477.5q0 -147 -47.5 -271t-126 -209t-176 -149.5t-206 -100.5t-205 -53.5t-180 -17.5t-96 12.5t-12.5 364.5v322h-102 q-20 27 -20.5 55.5zM430 614q0 -414 14 -428q4 -4 30 -4t78 14.5t122.5 54.5t130 99.5t100.5 160.5t41 216t-41 196t-96 122.5t-127 68.5q-111 41 -211 41q-27 0 -27 -2q-10 -10 -14 -393h193q18 -31 18 -66t-20 -61h-191v-19z" />
<glyph unicode="&#xd1;" horiz-adv-x="1255" d="M82 1322q0 17 4 21.5t103.5 11.5t205 7t117.5 -10q362 -811 369.5 -827.5t11.5 -16.5l8 14v58q0 174 -11 434t-24 323q29 27 106 46.5t139.5 19.5t62.5 -10q0 -41 -14.5 -96.5t-14.5 -57.5q-14 -92 -14.5 -287.5t1 -281.5t2.5 -165t3 -156t2 -140q4 -135 4 -189l2 -28 q0 -6 -27 -17q-80 -33 -215 -32l-76 8q-82 231 -239.5 583.5t-176 380t-22.5 27.5l-6 -14q-8 -57 -8 -246.5t9 -413t22 -280.5q-56 -49 -201 -49q-41 0 -74 12v61q0 313 21 910l8 198q-27 35 -52.5 110t-25.5 92zM479 1495q0 57 13 70q55 37 100 37t97.5 -15.5t72.5 -15.5 q76 0 129 45q8 0 8 -71.5t-8 -80.5q-45 -43 -115 -43q-27 0 -84 16.5t-90 16.5t-58.5 -7t-40 -12t-16.5 -5q-8 8 -8 65z" />
<glyph unicode="&#xd2;" horiz-adv-x="1359" d="M61 557q0 129 31 241.5t57.5 160t43 56.5t129.5 9h38q0 102 40 178t104 113q119 68 225 67q569 0 569 -716q0 -223 -75 -398q-43 -98 -113 -168.5t-185.5 -115.5t-265.5 -45q-305 0 -451.5 176t-146.5 442zM322 567q0 -172 96 -293.5t244 -121.5q372 0 372 530 q0 481 -286 481q-82 0 -126 -47t-44 -119.5t46 -171t93 -155.5l45 -58q0 -25 -76 -46t-121 -21q-10 0 -41.5 39t-73.5 119.5t-61 170.5q-31 -31 -49 -125t-18 -182zM541 1585q0 25 46 58.5t79 33.5q39 -23 95 -100.5t56 -103.5q-4 -18 -30 -41t-44 -23q-20 25 -90.5 88.5 t-111.5 87.5z" />
<glyph unicode="&#xd3;" horiz-adv-x="1359" d="M61 557q0 129 31 241.5t57.5 160t43 56.5t129.5 9h38q0 102 40 178t104 113q119 68 225 67q569 0 569 -716q0 -223 -75 -398q-43 -98 -113 -168.5t-185.5 -115.5t-265.5 -45q-305 0 -451.5 176t-146.5 442zM322 567q0 -172 96 -293.5t244 -121.5q372 0 372 530 q0 481 -286 481q-82 0 -126 -47t-44 -119.5t46 -171t93 -155.5l45 -58q0 -25 -76 -46t-121 -21q-10 0 -41.5 39t-73.5 119.5t-61 170.5q-31 -31 -49 -125t-18 -182zM541 1473q0 27 56 104.5t95 99.5q33 0 79 -33.5t46 -58.5q-41 -25 -112 -88t-91 -88q-18 0 -43.5 22.5 t-29.5 41.5z" />
<glyph unicode="&#xd4;" horiz-adv-x="1359" d="M61 557q0 129 31 241.5t57.5 160t43 56.5t129.5 9h38q0 102 40 178t104 113q119 68 225 67q569 0 569 -716q0 -223 -75 -398q-43 -98 -113 -168.5t-185.5 -115.5t-265.5 -45q-305 0 -451.5 176t-146.5 442zM322 567q0 -172 96 -293.5t244 -121.5q372 0 372 530 q0 481 -286 481q-82 0 -126 -47t-44 -119.5t46 -171t93 -155.5l45 -58q0 -25 -76 -46t-121 -21q-10 0 -41.5 39t-73.5 119.5t-61 170.5q-31 -31 -49 -125t-18 -182zM457 1473q0 27 56 104.5t95 99.5q31 0 72 -26q39 27 70 26q39 -23 95 -100.5t56 -103.5q-4 -18 -30.5 -41 t-45.5 -23q-10 14 -69.5 69.5t-75.5 65.5q-18 -10 -75.5 -63.5t-72.5 -71.5q-18 0 -44.5 22.5t-30.5 41.5z" />
<glyph unicode="&#xd5;" horiz-adv-x="1359" d="M61 557q0 129 31 241.5t57.5 160t43 56.5t129.5 9h38q0 102 40 178t104 113q119 68 225 67q569 0 569 -716q0 -223 -75 -398q-43 -98 -113 -168.5t-185.5 -115.5t-265.5 -45q-305 0 -451.5 176t-146.5 442zM322 567q0 -172 96 -293.5t244 -121.5q372 0 372 530 q0 481 -286 481q-82 0 -126 -47t-44 -119.5t46 -171t93 -155.5l45 -58q0 -25 -76 -46t-121 -21q-10 0 -41.5 39t-73.5 119.5t-61 170.5q-31 -31 -49 -125t-18 -182zM500 1527.5q0 61.5 12 74.5q51 39 105.5 38.5t97.5 -14.5t96 -14t96 35q14 0 15 -54q0 -72 -17 -108 q-41 -31 -85 -31t-92 14.5t-99 14.5t-117 -33q-12 16 -12 77.5z" />
<glyph unicode="&#xd6;" horiz-adv-x="1359" d="M61 557q0 129 31 241.5t57.5 160t43 56.5t129.5 9h38q0 102 40 178t104 113q119 68 225 67q569 0 569 -716q0 -223 -75 -398q-43 -98 -113 -168.5t-185.5 -115.5t-265.5 -45q-305 0 -451.5 176t-146.5 442zM322 567q0 -172 96 -293.5t244 -121.5q372 0 372 530 q0 481 -286 481q-82 0 -126 -47t-44 -119.5t46 -171t93 -155.5l45 -58q0 -25 -76 -46t-121 -21q-10 0 -41.5 39t-73.5 119.5t-61 170.5q-31 -31 -49 -125t-18 -182zM383 1525q0 46 31.5 77.5t74.5 31.5t74 -30.5t31 -73.5t-33 -76t-77 -33t-72.5 29t-28.5 75zM768 1525 q0 46 31.5 77.5t75 31.5t73 -30.5t29.5 -73.5t-32 -76t-76 -33t-72.5 29t-28.5 75z" />
<glyph unicode="&#xd7;" horiz-adv-x="833" d="M41 311l270 365l-268 364q6 31 50 64t87 33l236 -320l237 320q45 0 90 -37q33 -23 48 -60l-271 -364l273 -365q-10 -29 -58 -65q-47 -31 -80 -31l-239 322l-238 -322q-37 0 -69 23q-55 41 -68 73z" />
<glyph unicode="&#xd8;" horiz-adv-x="1359" d="M61 557q0 129 31 241.5t57.5 160t43 56.5t129.5 9h38q0 102 40 178t104 113q119 68 225 67q176 0 297 -67l57 90q20 4 39 4q45 0 111 -39l-94 -147q160 -178 159 -557q0 -223 -75 -398q-43 -98 -113 -168.5t-185.5 -115.5t-275.5 -45t-287 61l-59 -94q-20 -4 -37 -4 q-42 0 -112 39l88 139q-180 166 -181 477zM322 567q0 -143 67 -256l510 803q-63 49 -147 49t-129 -46t-45 -105v-4q2 -66 18 -114t31 -63l14 -16q0 -25 -76 -46t-121 -21q-33 45 -49 104l-6 22q-31 -31 -49 -125t-18 -182zM492 203q78 -51 170 -51q372 0 372 530 q0 186 -45 303z" />
<glyph unicode="&#xd9;" horiz-adv-x="1210" d="M61 1282q0 8 39 25q100 39 186.5 39t90.5 -4.5t4 -63.5l-16 -563q0 -532 225 -533q68 0 115 28t86 101q80 143 79.5 554t-22.5 548q23 10 57 10q154 0 205 -53q18 -92 18 -584q0 -502 -165 -688q-82 -92 -177.5 -129t-220.5 -37q-244 0 -354.5 185.5t-110.5 640.5 q0 172 5.5 268t3.5 98q-12 23 -30 78t-18 80zM467 1585q0 25 46 58.5t79 33.5q39 -23 95 -100.5t56 -103.5q-4 -18 -29.5 -41t-43.5 -23q-20 25 -91 88.5t-112 87.5z" />
<glyph unicode="&#xda;" horiz-adv-x="1210" d="M61 1282q0 8 39 25q100 39 186.5 39t90.5 -4.5t4 -63.5l-16 -563q0 -532 225 -533q68 0 115 28t86 101q80 143 79.5 554t-22.5 548q23 10 57 10q154 0 205 -53q18 -92 18 -584q0 -502 -165 -688q-82 -92 -177.5 -129t-220.5 -37q-244 0 -354.5 185.5t-110.5 640.5 q0 172 5.5 268t3.5 98q-12 23 -30 78t-18 80zM467 1473q0 27 56.5 104.5t94.5 99.5q33 0 79 -33.5t46 -58.5q-41 -25 -111.5 -88t-90.5 -88q-18 0 -44 22.5t-30 41.5z" />
<glyph unicode="&#xdb;" horiz-adv-x="1210" d="M61 1282q0 8 39 25q100 39 186.5 39t90.5 -4.5t4 -63.5l-16 -563q0 -532 225 -533q68 0 115 28t86 101q80 143 79.5 554t-22.5 548q23 10 57 10q154 0 205 -53q18 -92 18 -584q0 -502 -165 -688q-82 -92 -177.5 -129t-220.5 -37q-244 0 -354.5 185.5t-110.5 640.5 q0 172 5.5 268t3.5 98q-12 23 -30 78t-18 80zM379 1491q0 27 56.5 104.5t94.5 100.5q31 0 72 -27q41 27 70 27q39 -23 95 -100.5t56 -104.5q-4 -18 -30.5 -41t-44.5 -23q-10 14 -70 70t-76 66q-18 -10 -75.5 -63.5t-71.5 -72.5q-18 0 -45 23t-31 41z" />
<glyph unicode="&#xdc;" horiz-adv-x="1210" d="M61 1282q0 8 39 25q100 39 186.5 39t90.5 -4.5t4 -63.5l-16 -563q0 -532 225 -533q68 0 115 28t86 101q80 143 79.5 554t-22.5 548q23 10 57 10q154 0 205 -53q18 -92 18 -584q0 -502 -165 -688q-82 -92 -177.5 -129t-220.5 -37q-244 0 -354.5 185.5t-110.5 640.5 q0 172 5.5 268t3.5 98q-12 23 -30 78t-18 80zM301 1562q0 46 32 77.5t75 31.5t73.5 -30.5t30.5 -73.5t-33 -76t-77 -33t-72.5 29t-28.5 75zM686 1562q0 46 32 77.5t75 31.5t72.5 -30.5t29.5 -73.5t-32 -76t-76 -33t-72.5 29t-28.5 75z" />
<glyph unicode="&#xdd;" horiz-adv-x="1277" d="M10 1220.5q0 18.5 13.5 58.5t18.5 45t38 11q88 16 178 16.5t95 -4t57 -112.5q160 -340 235 -455h4q12 45 175 325.5t190 280.5q61 0 122.5 -16t96.5 -35.5t33 -31.5q-109 -121 -288 -388.5t-212 -386.5q-4 -41 -4 -264t16 -293q0 -25 -65.5 -37t-127.5 -11.5t-87 16.5 l6 563v26q-57 80 -203.5 343.5t-159.5 279.5q-47 47 -129 47q-2 4 -2 22.5zM553 1481q0 27 56.5 104.5t95.5 100.5q33 0 78.5 -34t45.5 -59q-41 -25 -111.5 -88t-90.5 -88q-18 0 -44 22.5t-30 41.5z" />
<glyph unicode="&#xde;" horiz-adv-x="1198" d="M82 1346q0 8 45 22q113 41 199 41t91 -6t5 -101.5t-2 -138.5q16 2 94 2t189.5 -20.5t212 -62.5t161 -119.5t60.5 -194.5t-75 -219.5t-181 -155.5q-221 -113 -398 -135l-75 -8q2 -66 3 -109t3 -69.5t4 -34.5q2 -25 10 -49q-23 -23 -89.5 -36t-113 -13t-75.5 12l10 989 q0 227 -12.5 244.5t-39 80t-26.5 81.5zM410 477q252 23 354 104t102 189q0 82 -85 128t-216 46l-147 -12l-2 -6z" />
<glyph unicode="&#xdf;" horiz-adv-x="1193" d="M61 -252q49 186 50 795v110l-5 224v20q0 231 135.5 353t405.5 122q199 0 316 -90q98 -78 98 -219q0 -92 -73 -182t-224 -140q-27 -8 -6.5 -12t46 -11t89 -35t112 -63.5t88.5 -101t40 -162t-61.5 -181.5t-156.5 -128q-180 -82 -356 -82q-29 0 -41 2q-33 33 -51 80t-21 80 v31q291 0 377 112q41 51 41 107q0 86 -99 143.5t-200 71.5l-98 14q-10 0 -10 39v12q0 61 21.5 108.5t41.5 57.5q123 25 207 89.5t84 131.5q0 133 -197 134q-96 0 -168.5 -52.5t-89.5 -136.5q-6 -33 -6 -160l8 -725q0 -246 -14 -274q-18 -27 -89 -56.5t-116 -29.5t-78 4z" />
<glyph unicode="&#xe0;" horiz-adv-x="940" d="M51 211q0 115 50.5 193.5t118 119.5t149.5 66q125 41 196 41l4 2q0 100 -254 100q-100 0 -149 -8h-2q0 41 25.5 102.5t43 80t146.5 18.5q233 0 344 -89t111 -276v-104q0 -256 6 -299q16 -113 69 -162q0 -23 -80.5 -68t-146.5 -45q-18 0 -38.5 54.5t-24 81t-5.5 26.5 l-6 -4q-109 -86 -254 -86t-224 70.5t-79 185.5zM303 264q0 -43 31 -71.5t93 -28.5t120.5 37t58.5 125v77q0 45 -2 46q-137 0 -237 -72q-63 -45 -64 -113zM332 1176q0 25 46 58.5t79 33.5q39 -23 95 -100.5t56 -104.5q-4 -18 -29.5 -41t-43.5 -23q-20 25 -91 88.5t-112 88.5z " />
<glyph unicode="&#xe1;" horiz-adv-x="940" d="M51 211q0 115 50.5 193.5t118 119.5t149.5 66q125 41 196 41l4 2q0 100 -254 100q-100 0 -149 -8h-2q0 41 25.5 102.5t43 80t146.5 18.5q233 0 344 -89t111 -276v-104q0 -256 6 -299q16 -113 69 -162q0 -23 -80.5 -68t-146.5 -45q-18 0 -38.5 54.5t-24 81t-5.5 26.5 l-6 -4q-109 -86 -254 -86t-224 70.5t-79 185.5zM303 264q0 -43 31 -71.5t93 -28.5t120.5 37t58.5 125v77q0 45 -2 46q-137 0 -237 -72q-63 -45 -64 -113zM379 1063q0 27 56.5 104.5t94.5 100.5q33 0 79 -34t46 -58q-41 -25 -111.5 -88.5t-90.5 -88.5q-18 0 -44 22.5 t-30 41.5z" />
<glyph unicode="&#xe2;" horiz-adv-x="940" d="M51 211q0 115 50.5 193.5t118 119.5t149.5 66q125 41 196 41l4 2q0 100 -254 100q-100 0 -149 -8h-2q0 41 25.5 102.5t43 80t146.5 18.5q233 0 344 -89t111 -276v-104q0 -256 6 -299q16 -113 69 -162q0 -23 -80.5 -68t-146.5 -45q-18 0 -38.5 54.5t-24 81t-5.5 26.5 l-6 -4q-109 -86 -254 -86t-224 70.5t-79 185.5zM248 1063q0 27 56 104.5t95 100.5q31 0 72 -27q39 27 70 27q39 -23 95 -100.5t56 -104.5q-4 -18 -30.5 -41t-45.5 -23q-10 14 -69.5 70t-75.5 66q-18 -10 -75.5 -63.5t-71.5 -72.5q-18 0 -45 22.5t-31 41.5zM303 264 q0 -43 31 -71.5t93 -28.5t120.5 37t58.5 125v77q0 45 -2 46q-137 0 -237 -72q-63 -45 -64 -113z" />
<glyph unicode="&#xe3;" horiz-adv-x="940" d="M51 211q0 115 50.5 193.5t118 119.5t149.5 66q125 41 196 41l4 2q0 100 -254 100q-100 0 -149 -8h-2q0 41 25.5 102.5t43 80t146.5 18.5q233 0 344 -89t111 -276v-104q0 -256 6 -299q16 -113 69 -162q0 -23 -80.5 -68t-146.5 -45q-18 0 -38.5 54.5t-24 81t-5.5 26.5 l-6 -4q-109 -86 -254 -86t-224 70.5t-79 185.5zM270.5 1089.5q-0.5 61.5 12.5 73.5q51 39 105 39t97 -14t96.5 -14t96.5 34q14 0 14 -53q0 -72 -16 -108q-41 -31 -85 -31t-92 14t-99.5 14t-116.5 -32q-12 16 -12.5 77.5zM303 264q0 -43 31 -71.5t93 -28.5t120.5 37t58.5 125 v77q0 45 -2 46q-137 0 -237 -72q-63 -45 -64 -113z" />
<glyph unicode="&#xe4;" horiz-adv-x="940" d="M51 211q0 115 50.5 193.5t118 119.5t149.5 66q125 41 196 41l4 2q0 100 -254 100q-100 0 -149 -8h-2q0 41 25.5 102.5t43 80t146.5 18.5q233 0 344 -89t111 -276v-104q0 -256 6 -299q16 -113 69 -162q0 -23 -80.5 -68t-146.5 -45q-18 0 -38.5 54.5t-24 81t-5.5 26.5 l-6 -4q-109 -86 -254 -86t-224 70.5t-79 185.5zM174 1115q0 46 32 78t75 32t73.5 -31t30.5 -74t-33 -75.5t-77 -32.5t-72.5 28.5t-28.5 74.5zM303 264q0 -43 31 -71.5t93 -28.5t120.5 37t58.5 125v77q0 45 -2 46q-137 0 -237 -72q-63 -45 -64 -113zM559 1115q0 46 32 78 t75 32t72.5 -31t29.5 -74t-31.5 -75.5t-76 -32.5t-73 28.5t-28.5 74.5z" />
<glyph unicode="&#xe5;" horiz-adv-x="940" d="M51 211q0 115 50.5 193.5t118 119.5t149.5 66q125 41 196 41l4 2q0 100 -254 100q-100 0 -149 -8h-2q0 41 25.5 102.5t43 80t146.5 18.5q233 0 344 -89t111 -276v-104q0 -256 6 -299q16 -113 69 -162q0 -23 -80.5 -68t-146.5 -45q-18 0 -38.5 54.5t-24 81t-5.5 26.5 l-6 -4q-109 -86 -254 -86t-224 70.5t-79 185.5zM303 264q0 -43 31 -71.5t93 -28.5t120.5 37t58.5 125v77q0 45 -2 46q-137 0 -237 -72q-63 -45 -64 -113zM336 1127.5q0 58.5 41 100.5t96 42t94 -40t39 -95.5t-42 -97.5t-97 -42t-93 37t-38 95.5zM412 1129.5q0 -25.5 16 -42 t41 -16.5t43 18.5t18 43t-17 42t-40.5 17.5t-42 -18.5t-18.5 -44z" />
<glyph unicode="&#xe6;" horiz-adv-x="1411" d="M61 211q0 115 50.5 193.5t118 119.5t147.5 66q127 41 198 41l5 2q0 100 -254 100q-94 0 -152 -8q0 41 25.5 103.5t43 80t144.5 17.5q303 0 397 -142q115 111 318 111q96 0 177 -51t81 -179t-111.5 -254t-304.5 -190q0 -25 46 -40t95 -15q152 0 258 57q6 0 7 -39 q0 -119 -52 -186q-70 -47 -268 -47q-68 0 -133 16q-33 -29 -93.5 -57.5t-111.5 -28.5q-20 0 -39.5 55.5t-25.5 104.5q-2 6 -9 0q-109 -86 -255 -86t-224 70.5t-78 185.5zM313 264q0 -43 31 -71.5t93.5 -28.5t120.5 37t58 125v77q0 45 -2 46q-137 0 -237 -72 q-63 -45 -64 -113zM846 418l2 -27l6 -4q74 4 170 87t96 177q0 57 -71.5 57.5t-137 -89.5t-65.5 -201z" />
<glyph unicode="&#xe7;" horiz-adv-x="790" d="M61 358q0 252 169 401.5t413 149.5q47 0 55 -2q12 -10 12.5 -98t-24.5 -107h-14q-158 0 -256 -73q-41 -31 -72 -96.5t-31 -157.5t55.5 -152.5t178.5 -60.5q96 0 170 37q8 4 10 4q16 -16 16 -110.5t-22 -112.5q-68 -39 -199 -39q-16 -29 -16 -62q31 -12 62.5 -44t31.5 -58 q0 -49 -64.5 -84t-125.5 -35q-6 0 -16.5 19.5t-10.5 33t2 17.5q41 0 72.5 17t31.5 35.5t-22.5 33t-44.5 18.5l-25 4q0 49 31 111q-186 25 -276.5 138.5t-90.5 272.5z" />
<glyph unicode="&#xe8;" horiz-adv-x="866" d="M61 396.5q0 201.5 130.5 350t365.5 148.5q96 0 177 -51t81 -179t-111.5 -253t-304.5 -191q0 -25 50.5 -40t99.5 -15q156 0 246 55q2 2 6 2t4 -39q0 -118 -51 -184q-70 -47 -272.5 -47t-311.5 121t-109 322.5zM301 418q0 -29 8 -29q74 2 170 85t96 177q0 59 -63 60 q-84 0 -147.5 -86t-63.5 -207zM340 1159q0 25 46 58.5t79 33.5q39 -23 95 -100.5t56 -103.5q-4 -18 -29.5 -41t-43.5 -23q-20 25 -91 88.5t-112 87.5z" />
<glyph unicode="&#xe9;" horiz-adv-x="866" d="M61 396.5q0 201.5 130.5 350t365.5 148.5q96 0 177 -51t81 -179t-111.5 -253t-304.5 -191q0 -25 50.5 -40t99.5 -15q156 0 246 55q2 2 6 2t4 -39q0 -118 -51 -184q-70 -47 -272.5 -47t-311.5 121t-109 322.5zM301 418q0 -29 8 -29q74 2 170 85t96 177q0 59 -63 60 q-84 0 -147.5 -86t-63.5 -207zM373 1063q0 27 56 104.5t95 100.5q33 0 79 -34t46 -58q-41 -25 -112 -88.5t-91 -88.5q-18 0 -43.5 22.5t-29.5 41.5z" />
<glyph unicode="&#xea;" horiz-adv-x="866" d="M61 396.5q0 201.5 130.5 350t365.5 148.5q96 0 177 -51t81 -179t-111.5 -253t-304.5 -191q0 -25 50.5 -40t99.5 -15q156 0 246 55q2 2 6 2t4 -39q0 -118 -51 -184q-70 -47 -272.5 -47t-311.5 121t-109 322.5zM270 1055q0 27 56.5 104.5t95.5 100.5q31 0 72 -27 q39 27 69 27q39 -23 95.5 -101t56.5 -104q-4 -18 -31 -41t-45 -23q-10 14 -69.5 69.5t-75.5 65.5q-18 -10 -76 -63t-72 -72q-18 0 -45 22.5t-31 41.5zM301 418q0 -29 8 -29q74 2 170 85t96 177q0 59 -63 60q-84 0 -147.5 -86t-63.5 -207z" />
<glyph unicode="&#xeb;" horiz-adv-x="866" d="M61 396.5q0 201.5 130.5 350t365.5 148.5q96 0 177 -51t81 -179t-111.5 -253t-304.5 -191q0 -25 50.5 -40t99.5 -15q156 0 246 55q2 2 6 2t4 -39q0 -118 -51 -184q-70 -47 -272.5 -47t-311.5 121t-109 322.5zM137 1115q0 46 32 78t75 32t73.5 -31t30.5 -74t-32.5 -75.5 t-76.5 -32.5t-73 28.5t-29 74.5zM301 418q0 -29 8 -29q74 2 170 85t96 177q0 59 -63 60q-84 0 -147.5 -86t-63.5 -207zM522 1115q0 46 32 78t75 32t72.5 -31t29.5 -74t-31.5 -75.5t-75.5 -32.5t-73 28.5t-29 74.5z" />
<glyph unicode="&#xec;" horiz-adv-x="450" d="M98 1104q0 25 46 58.5t79 33.5q39 -23 95.5 -100.5t56.5 -104.5q-4 -18 -30 -40.5t-44 -22.5q-20 25 -91 88t-112 88zM117 446.5q0 317.5 14 346.5q47 37 166 36q47 0 57 -12l-2 -104l-4 -332q0 -160 9.5 -234.5t52.5 -140.5q0 -20 -84 -65t-144 -45q-18 0 -36.5 61 t-23.5 116.5t-5 373z" />
<glyph unicode="&#xed;" horiz-adv-x="450" d="M117 446.5q0 317.5 14 346.5q47 37 166 36q47 0 57 -12l-2 -104l-4 -332q0 -160 9.5 -234.5t52.5 -140.5q0 -20 -84 -65t-144 -45q-18 0 -36.5 61t-23.5 116.5t-5 373zM139 999q0 27 56.5 105t95.5 100q33 0 79 -33.5t46 -58.5q-41 -25 -112 -88t-91 -88q-18 0 -44 22.5 t-30 40.5z" />
<glyph unicode="&#xee;" horiz-adv-x="450" d="M20 1001q0 27 56.5 105t95.5 100q31 0 72 -26q39 27 69 26q39 -23 95.5 -100.5t56.5 -104.5q-4 -18 -30.5 -40.5t-45.5 -22.5q-10 14 -69.5 69.5t-75.5 65.5q-18 -10 -75.5 -63.5t-72.5 -71.5q-18 0 -44.5 22.5t-31.5 40.5zM117 446.5q0 317.5 14 346.5q47 37 166 36 q47 0 57 -12l-2 -104l-4 -332q0 -160 9.5 -234.5t52.5 -140.5q0 -20 -84 -65t-144 -45q-18 0 -36.5 61t-23.5 116.5t-5 373z" />
<glyph unicode="&#xef;" horiz-adv-x="450" d="M-57 1056q0 46 31.5 77.5t74.5 31.5t74 -30.5t31 -73.5t-33 -76t-77 -33t-72.5 29t-28.5 75zM117 446.5q0 317.5 14 346.5q47 37 166 36q47 0 57 -12l-2 -104l-4 -332q0 -160 9.5 -234.5t52.5 -140.5q0 -20 -84 -65t-144 -45q-18 0 -36.5 61t-23.5 116.5t-5 373z M328 1056q0 46 31.5 77.5t74.5 31.5t73 -30.5t30 -73.5t-32 -76t-76 -33t-72.5 29t-28.5 75z" />
<glyph unicode="&#xf0;" horiz-adv-x="1017" d="M61 313q0 231 141.5 392t411.5 174q2 43 2 161v13l-139 -84q-37 39 -37 86q0 14 2 20l162 96q-27 143 -180 205q43 86 70 86q68 -10 110.5 -22.5t100 -51.5t88.5 -102l116 70q37 -41 37 -86q0 -14 -2 -21l-117 -69q12 -55 13 -123v-199q0 -573 14 -673.5t64 -149.5 q0 -20 -84 -64.5t-144 -44.5q-20 0 -41.5 55.5t-25.5 112.5h-9q-86 -133 -256 -133q-137 0 -217 108.5t-80 243.5zM305 371q0 -63 37 -116.5t109.5 -53.5t116.5 62t44 99q0 252 6 300l-30 6q-133 0 -208 -85t-75 -212z" />
<glyph unicode="&#xf1;" horiz-adv-x="952" d="M102 -47q14 92 15 303l-6 461q0 127 10 137q23 23 78 40t103 17t48 -10q-6 -49 -6 -98t6 -49l6 4q10 14 31 35.5t87.5 57.5t127 36t102 -21.5t68.5 -52.5t46.5 -88t29.5 -106.5t16 -131.5q6 -113 6 -286l-6 -240q0 -14 -67.5 -27.5t-108.5 -13.5l-67 10q20 184 20 357.5 t-22.5 260.5t-90 87t-109.5 -37t-54 -74l-15 -35v-28l2 -76v-156q0 -219 -8 -227q-27 -27 -92.5 -41t-107.5 -14t-42 6zM276.5 1089.5q-0.5 61.5 12.5 73.5q51 39 105.5 39t97.5 -14t96 -14t96 34q14 0 14 -53q0 -72 -16 -108q-41 -31 -85 -31t-92 14t-99.5 14t-116.5 -32 q-12 16 -12.5 77.5z" />
<glyph unicode="&#xf2;" d="M61 396.5q0 199.5 142.5 354t384.5 154.5q98 -4 106 -12t8 -39t-6 -68q31 0 79 -35.5t79 -72.5t53.5 -103.5t22.5 -148.5q0 -195 -118 -337t-319.5 -142t-316.5 125t-115 324.5zM295 399q0 -160 102 -221q39 -25 107.5 -24.5t129 64t60.5 188t-63 163.5q-47 31 -92 31 h-17q-4 8 -4 35t6 51q-84 0 -156.5 -75.5t-72.5 -211.5zM356 1176q0 25 46.5 58.5t78.5 33.5q39 -23 95.5 -100.5t56.5 -104.5q-4 -18 -30 -41t-44 -23q-20 25 -91 88.5t-112 88.5z" />
<glyph unicode="&#xf3;" d="M61 396.5q0 199.5 142.5 354t384.5 154.5q98 -4 106 -12t8 -39t-6 -68q31 0 79 -35.5t79 -72.5t53.5 -103.5t22.5 -148.5q0 -195 -118 -337t-319.5 -142t-316.5 125t-115 324.5zM295 399q0 -160 102 -221q39 -25 107.5 -24.5t129 64t60.5 188t-63 163.5q-47 31 -92 31 h-17q-4 8 -4 35t6 51q-84 0 -156.5 -75.5t-72.5 -211.5zM358 1063q0 27 56.5 104.5t95.5 100.5q33 0 79 -34t46 -58q-41 -25 -112 -88.5t-91 -88.5q-18 0 -44 22.5t-30 41.5z" />
<glyph unicode="&#xf4;" d="M61 396.5q0 199.5 142.5 354t384.5 154.5q98 -4 106 -12t8 -39t-6 -68q31 0 79 -35.5t79 -72.5t53.5 -103.5t22.5 -148.5q0 -195 -118 -337t-319.5 -142t-316.5 125t-115 324.5zM272 1063q0 27 56.5 104.5t95.5 100.5q31 0 72 -27q41 27 69 27q39 -23 95.5 -100.5 t56.5 -104.5q-4 -18 -31 -41t-45 -23q-10 14 -69.5 70t-75.5 66q-18 -10 -76 -63.5t-72 -72.5q-18 0 -45 22.5t-31 41.5zM295 399q0 -160 102 -221q39 -25 107.5 -24.5t129 64t60.5 188t-63 163.5q-47 31 -92 31h-17q-4 8 -4 35t6 51q-84 0 -156.5 -75.5t-72.5 -211.5z" />
<glyph unicode="&#xf5;" d="M61 396.5q0 199.5 142.5 354t384.5 154.5q98 -4 106 -12t8 -39t-6 -68q31 0 79 -35.5t79 -72.5t53.5 -103.5t22.5 -148.5q0 -195 -118 -337t-319.5 -142t-316.5 125t-115 324.5zM295 399q0 -160 102 -221q39 -25 107.5 -24.5t129 64t60.5 188t-63 163.5q-47 31 -92 31 h-17q-4 8 -4 35t6 51q-84 0 -156.5 -75.5t-72.5 -211.5zM295 1068.5q0 61.5 12 74.5q51 39 105.5 39t97.5 -14.5t96 -14.5t96 35q14 0 15 -53q0 -72 -17 -109q-41 -31 -85 -31t-92 14.5t-99 14.5t-117 -33q-12 16 -12 77.5z" />
<glyph unicode="&#xf6;" d="M61 396.5q0 199.5 142.5 354t384.5 154.5q98 -4 106 -12t8 -39t-6 -68q31 0 79 -35.5t79 -72.5t53.5 -103.5t22.5 -148.5q0 -195 -118 -337t-319.5 -142t-316.5 125t-115 324.5zM199 1115q0 46 31.5 78t74.5 32t74 -31t31 -74t-33 -75.5t-77 -32.5t-72.5 28.5t-28.5 74.5 zM295 399q0 -160 102 -221q39 -25 107.5 -24.5t129 64t60.5 188t-63 163.5q-47 31 -92 31h-17q-4 8 -4 35t6 51q-84 0 -156.5 -75.5t-72.5 -211.5zM584 1115q0 46 31.5 78t74.5 32t73 -31t30 -74t-32 -75.5t-76 -32.5t-72.5 28.5t-28.5 74.5z" />
<glyph unicode="&#xf7;" horiz-adv-x="1105" d="M61.5 676.5q-0.5 58.5 22.5 79.5h944q16 -23 16 -79t-20 -79h-944q-18 20 -18.5 78.5zM449 357q0 46 31.5 78t74.5 32t72.5 -30.5t29.5 -74t-31.5 -76t-75.5 -32.5t-72.5 28.5t-28.5 74.5zM449 994q0 46 31.5 79t74.5 33t72.5 -31t29.5 -75t-31.5 -76.5t-75.5 -32.5 t-72.5 28.5t-28.5 74.5z" />
<glyph unicode="&#xf8;" d="M61.5 382q-0.5 214 142 368.5t384.5 154.5q98 -4 106 -12t8 -39t-6 -68l107 158q31 6 61 6q61 0 103 -20l-146 -217q109 -104 109 -293t-117.5 -331t-320.5 -142q-94 0 -170 28l-41 -61q-31 -6 -76 -6t-86 20l80 119q-137 121 -137.5 335zM295 399q0 -90 37 -155l289 430 q-25 12 -103 12t-150.5 -75.5t-72.5 -211.5zM444 158q29 -4 48 -4q82 0 142 63.5t60 190.5q0 53 -14 96z" />
<glyph unicode="&#xf9;" horiz-adv-x="935" d="M82 567q0 221 18 262q53 43 172 43q47 0 58 -10q0 -2 -2 -55q-10 -156 -10.5 -240t2 -124t3.5 -51t6 -39.5t15 -49.5q31 -59 95.5 -59t114.5 64.5t48 90.5v70q0 375 12 403q10 18 64.5 39t108 21t61.5 -8l-4 -97q-12 -293 -12.5 -452.5t8.5 -202.5q14 -102 55 -164 q0 -20 -84 -65t-143 -45q-16 0 -37 61.5t-25 118.5l-2 43l-2 4q-49 -76 -124 -121t-146 -45q-215 0 -246 334q-4 53 -4 274zM311 1149q0 25 46 58.5t79 33.5q39 -23 95.5 -100.5t56.5 -104.5q-4 -18 -30 -40.5t-44 -22.5q-20 25 -91 88t-112 88z" />
<glyph unicode="&#xfa;" horiz-adv-x="935" d="M82 567q0 -221 4 -274q31 -334 246 -334q72 0 146.5 45t123.5 121q2 0 2 -4l2 -43q8 -106 45 -164q10 -16 17 -16q59 0 143 45t84 65q-41 61 -55 164q-8 43 -9 162q0 201 13 493l4 97q-8 8 -61.5 8t-107.5 -20.5t-65 -39.5q-12 -29 -12 -403v-70q2 -27 -48 -91 t-109.5 -64t-88 42t-32.5 83l-2 41q-4 74 -4.5 132t3 136t6.5 130t3 54q-10 10 -45 10h-13q-109 0 -155 -32l-17 -11q-18 -41 -18 -262zM377 1036q0 27 56 105t95 100q33 0 79 -33.5t46 -58.5q-41 -25 -111.5 -88t-90.5 -88q-18 0 -44 22.5t-30 40.5z" />
<glyph unicode="&#xfb;" horiz-adv-x="935" d="M82 567q0 221 18 262q53 43 172 43q47 0 58 -10q0 -2 -2 -55q-10 -156 -10.5 -240t2 -124t3.5 -51t6 -39.5t15 -49.5q31 -59 95.5 -59t114.5 64.5t48 90.5v70q0 375 12 403q10 18 64.5 39t108 21t61.5 -8l-4 -97q-12 -293 -12.5 -452.5t8.5 -202.5q14 -102 55 -164 q0 -20 -84 -65t-143 -45q-16 0 -37 61.5t-25 118.5l-2 43l-2 4q-49 -76 -124 -121t-146 -45q-215 0 -246 334q-4 53 -4 274zM246 1063q0 27 56 104.5t95 100.5q31 0 72 -27q39 27 70 27q39 -23 95 -100.5t56 -104.5q-4 -18 -30.5 -41t-45.5 -23q-10 14 -69.5 70t-75.5 66 q-18 -10 -75.5 -63.5t-71.5 -72.5q-18 0 -45 22.5t-31 41.5z" />
<glyph unicode="&#xfc;" horiz-adv-x="935" d="M82 567q0 -221 4 -274q31 -334 246 -334q72 0 146.5 45t123.5 121q2 0 2 -4l2 -43q8 -106 45 -164q10 -16 17 -16q59 0 143 45t84 65q-41 61 -55 164q-8 43 -9 162q0 201 13 493l4 97q-8 8 -61.5 8t-107.5 -20.5t-65 -39.5q-12 -29 -12 -403v-70q2 -27 -48 -91 t-109.5 -64t-88 42t-32.5 83l-2 41q-4 74 -4.5 132t3 136t6.5 130t3 54q-10 10 -45 10h-13q-109 0 -155 -32l-17 -11q-18 -41 -18 -262zM172 1115q0 46 32 78t75 32t73.5 -31t30.5 -74t-33 -75.5t-77 -32.5t-72.5 28.5t-28.5 74.5zM557 1115q0 46 32 78t75 32t72.5 -31 t29.5 -74t-32 -75.5t-76 -32.5t-72.5 28.5t-28.5 74.5z" />
<glyph unicode="&#xfd;" horiz-adv-x="935" d="M81.5 676q0.5 -113 1.5 -168t6 -133t15.5 -123t29 -97.5t46.5 -80.5q61 -66 150.5 -66t153 35t89.5 70l25 34q4 6 8 6t4 -12l2 -59q0 -225 -63 -326q-31 -51 -61.5 -84.5t-77.5 -52.5q-109 -41 -187 -41q0 -45 16.5 -97t35 -83t24.5 -31q131 0 258 72q78 43 138.5 110.5 t102.5 192.5t42 285l-2 544q0 236 16 332q0 6 -41 6t-107.5 -14t-93.5 -41q-10 -10 -10 -188l4 -248q0 -14 -14 -48t-31 -55q-45 -55 -117.5 -55t-101.5 92t-29 231.5t23 342.5q-27 10 -67 10t-81 -10q-84 -18 -84 -33q-23 -104 -22.5 -217zM397 1055q0 27 56.5 104.5 t95.5 100.5q33 0 79 -34t46 -59q-41 -25 -112 -88t-91 -88q-18 0 -44 22.5t-30 41.5z" />
<glyph unicode="&#xfe;" horiz-adv-x="937" d="M102 -256l11 952q0 553 -7 617q25 25 83.5 47t101.5 22t53 -6l-2 -479q545 0 545 -422q0 -115 -46 -208t-114 -147t-147 -91q-137 -63 -246 -64v-31q0 -307 16 -409q-27 -27 -92 -42t-106 -15t-41 6q-8 66 -9 270zM334 295l2 -102q125 0 219 71.5t94 206.5 q0 221 -309 221v-26q-4 -80 -4 -162z" />
<glyph unicode="&#xff;" horiz-adv-x="935" d="M81.5 676q0.5 -113 1.5 -168t6 -133t15.5 -123t29 -97.5t46.5 -80.5q61 -66 150.5 -66t153 35t89.5 70l25 34q4 6 8 6t4 -12l2 -59q0 -225 -63 -326q-31 -51 -61.5 -84.5t-77.5 -52.5q-109 -41 -187 -41q0 -45 16.5 -97t35 -83t24.5 -31q131 0 258 72q78 43 138.5 110.5 t102.5 192.5t42 285l-2 544q0 236 16 332q0 6 -41 6t-107.5 -14t-93.5 -41q-10 -10 -10 -188l4 -248q0 -14 -14 -48t-31 -55q-45 -55 -117.5 -55t-101.5 92t-29 231.5t23 342.5q-27 10 -67 10t-81 -10q-84 -18 -84 -33q-23 -104 -22.5 -217zM172 1115q0 46 32 78t75 32 t73.5 -31t30.5 -74t-33 -75.5t-77 -32.5t-72.5 28.5t-28.5 74.5zM557 1115q0 46 32 78t75 32t72.5 -31t29.5 -74t-32 -75.5t-76 -32.5t-72.5 28.5t-28.5 74.5z" />
<glyph unicode="&#x152;" horiz-adv-x="1937" d="M61 557q0 129 31 241.5t57.5 160t43 56.5t129.5 9h38q0 102 40 178t104 113q119 68 225 67q184 0 311 -77v43q246 12 521.5 12t275.5 -8q0 -43 -19.5 -94.5t-41 -82t-30.5 -27.5t-84 3t-208 -9t-145.5 -21.5t-12.5 -225.5l2 -86q82 2 242 2t160 -6q0 -74 -49 -168 q-18 -33 -23 -31q-53 0 -182 -9t-150 -22q-2 -2 -2 -172t11 -180q33 -33 352 -33q129 0 174 7.5t45 5.5q0 -49 -33 -117t-69 -102q-20 -20 -367.5 -20.5t-359.5 16.5q-4 2 -9 61q-150 -102 -379 -102q-305 0 -451.5 176t-146.5 442zM322 567q0 -172 96 -293.5t244 -121.5 q372 0 372 530q0 481 -286 481q-82 0 -126 -47t-44 -119.5t46 -171t93 -155.5l45 -58q0 -25 -76 -46t-121 -21q-10 0 -41.5 39t-73.5 119.5t-61 170.5q-31 -31 -49 -125t-18 -182z" />
<glyph unicode="&#x153;" horiz-adv-x="1505" d="M61 396.5q0 199.5 142.5 354t384.5 154.5q98 -4 106 -12t8 -39t-6 -68q53 -14 107 -57q139 166 383 166q96 0 177 -51t81 -179t-111.5 -253t-304.5 -191q0 -25 50 -40t100 -15q156 0 245 55q2 2 6.5 2t4.5 -39q0 -119 -52 -184q-70 -47 -268 -47t-315 121 q-123 -127 -315.5 -127t-307.5 125t-115 324.5zM295 399q0 -160 102 -221q39 -25 107.5 -24.5t129 64t60.5 188t-63 163.5q-47 31 -92 31h-17q-4 8 -4 35t6 51q-84 0 -156.5 -75.5t-72.5 -211.5zM930 426q0 -37 8 -37q74 2 170 85t96 177q0 59 -72.5 59.5t-136 -82.5 t-65.5 -198v-4z" />
<glyph unicode="&#x178;" horiz-adv-x="1277" d="M10 1220.5q0 18.5 13.5 58.5t18.5 45t38 11q88 16 178 16.5t95 -4t57 -112.5q160 -340 235 -455h4q12 45 175 325.5t190 280.5q61 0 122.5 -16t96.5 -35.5t33 -31.5q-109 -121 -288 -388.5t-212 -386.5q-4 -41 -4 -264t16 -293q0 -25 -65.5 -37t-127.5 -11.5t-87 16.5 l6 563v26q-57 80 -203.5 343.5t-159.5 279.5q-47 47 -129 47q-2 4 -2 22.5zM342 1525q0 46 32 77.5t75 31.5t73.5 -30.5t30.5 -73.5t-33 -76t-77 -33t-72.5 29t-28.5 75zM727 1525q0 46 32 77.5t75 31.5t72.5 -30.5t29.5 -73.5t-32 -76t-76 -33t-72.5 29t-28.5 75z" />
<glyph unicode="&#x2c6;" d="M268 1063q0 27 56.5 104.5t95.5 100.5q31 0 72 -27q41 27 69 27q39 -23 95.5 -100.5t56.5 -104.5q-4 -18 -31 -41t-45 -23q-10 14 -69.5 70t-75.5 66q-18 -10 -76 -63.5t-72 -72.5q-18 0 -45 22.5t-31 41.5z" />
<glyph unicode="&#x2dc;" horiz-adv-x="952" d="M276.5 1089.5q-0.5 61.5 12.5 73.5q51 39 105.5 39t97.5 -14t96 -14t96 34q14 0 14 -53q0 -72 -16 -108q-41 -31 -85 -31t-92 14t-99.5 14t-116.5 -32q-12 16 -12.5 77.5z" />
<glyph unicode="&#x2000;" horiz-adv-x="872" />
<glyph unicode="&#x2001;" horiz-adv-x="1745" />
<glyph unicode="&#x2002;" horiz-adv-x="872" />
<glyph unicode="&#x2003;" horiz-adv-x="1745" />
<glyph unicode="&#x2004;" horiz-adv-x="581" />
<glyph unicode="&#x2005;" horiz-adv-x="436" />
<glyph unicode="&#x2006;" horiz-adv-x="290" />
<glyph unicode="&#x2007;" horiz-adv-x="290" />
<glyph unicode="&#x2008;" horiz-adv-x="218" />
<glyph unicode="&#x2009;" horiz-adv-x="349" />
<glyph unicode="&#x200a;" horiz-adv-x="96" />
<glyph unicode="&#x2010;" horiz-adv-x="1175" d="M61.5 398q-0.5 59 22.5 79h1014q16 -23 16 -80t-18 -78h-1016q-18 20 -18.5 79z" />
<glyph unicode="&#x2011;" horiz-adv-x="1175" d="M61.5 398q-0.5 59 22.5 79h1014q16 -23 16 -80t-18 -78h-1016q-18 20 -18.5 79z" />
<glyph unicode="&#x2012;" horiz-adv-x="1175" d="M61.5 398q-0.5 59 22.5 79h1014q16 -23 16 -80t-18 -78h-1016q-18 20 -18.5 79z" />
<glyph unicode="&#x2013;" horiz-adv-x="960" d="M61.5 398q-0.5 59 22.5 79h799q16 -23 16 -80t-18 -78h-801q-18 20 -18.5 79z" />
<glyph unicode="&#x2014;" horiz-adv-x="1277" d="M61.5 398q-0.5 59 22.5 79h1116q16 -23 16.5 -80t-18.5 -78h-1118q-18 20 -18.5 79z" />
<glyph unicode="&#x2018;" horiz-adv-x="376" d="M61 1155q0 92 40 161.5t112 69.5q102 0 102 -118q-10 -125 -131 -125q0 -88 76 -150q-29 -45 -94 -45q-10 0 -32.5 17.5t-35.5 38.5q-37 59 -37 151z" />
<glyph unicode="&#x2019;" horiz-adv-x="696" d="M391 1268q4 53 39 85.5t90 32.5t85 -45t30 -118.5t-33 -143t-65.5 -100.5t-56 -31t-47 14.5t-32.5 30.5q92 66 103 150q-113 0 -113 125z" />
<glyph unicode="&#x201a;" horiz-adv-x="370" d="M55 104q0 57 34 97.5t92.5 40.5t88 -46.5t29.5 -107.5q0 -131 -51 -203.5t-96 -83.5q-61 0 -86 47q92 66 102 150q-113 0 -113 106z" />
<glyph unicode="&#x201c;" horiz-adv-x="700" d="M61 1155q0 92 40 161.5t112 69.5q102 0 102 -118q-10 -125 -131 -125q0 -88 76 -150q-29 -45 -94 -45q-10 0 -32.5 17.5t-35.5 38.5q-37 59 -37 151zM385 1155q0 92 40 161.5t112 69.5q102 0 102 -118q-10 -125 -131 -125q0 -88 76 -150q-29 -45 -95 -45 q-10 0 -32.5 17.5t-34.5 38.5q-37 59 -37 151z" />
<glyph unicode="&#x201d;" horiz-adv-x="696" d="M61 1268q4 53 39 85.5t90.5 32.5t85 -45t29.5 -118.5t-32.5 -143t-65.5 -100.5t-56.5 -31t-47 14.5t-31.5 30.5q92 66 102 150q-113 0 -113 125zM391 1268q4 53 39 85.5t90 32.5t85 -45t30 -118.5t-33 -143t-65.5 -100.5t-56 -31t-47 14.5t-32.5 30.5q92 66 103 150 q-113 0 -113 125z" />
<glyph unicode="&#x201e;" horiz-adv-x="700" d="M55 125q4 53 39 86t90.5 33t85 -45t29.5 -119t-33 -143.5t-65.5 -100.5t-56 -31t-47 14.5t-31.5 30.5q92 66 102 150q-113 0 -113 125zM385 125q4 53 39 86t90 33t85 -45t30 -119t-33 -143.5t-65.5 -100.5t-56 -31t-47.5 14.5t-32 30.5q92 66 103 150q-113 0 -113 125z " />
<glyph unicode="&#x2022;" horiz-adv-x="522" d="M82 442.5q0 77.5 56.5 133t128 55.5t122.5 -52.5t51 -126t-55 -131t-129 -57.5t-124 50.5t-50 128z" />
<glyph unicode="&#x2026;" horiz-adv-x="1265" d="M72 107.5q0 52.5 35.5 88t85 35.5t84 -34.5t34.5 -84t-37.5 -87t-87 -37.5t-82 33.5t-32.5 86zM512 107.5q0 52.5 37 88t85 35.5t83 -34.5t35 -84t-37 -87t-86 -37.5t-83 33.5t-34 86zM954 107.5q0 52.5 36 88t85 35.5t84 -34.5t35 -84t-37 -87t-87 -37.5t-83 33.5 t-33 86z" />
<glyph unicode="&#x202f;" horiz-adv-x="349" />
<glyph unicode="&#x2039;" horiz-adv-x="669" d="M20 458q0 38 202 259t239 221q45 8 94 8t66 -4q23 -8 14 -16q-66 -55 -225.5 -242.5t-159.5 -222.5t159.5 -223.5t225.5 -241.5q4 -4 4 -8q-4 -14 -84 -15l-94 9q-43 0 -242 219t-199 257z" />
<glyph unicode="&#x203a;" horiz-adv-x="669" d="M33 918q2 14 82 14l94 -8q37 0 238.5 -221.5t201.5 -259t-198.5 -257t-241.5 -219.5q-45 -8 -94 -8t-66 4q-25 8 -14 19q66 53 225.5 241.5t159.5 223t-160 222t-225 242.5q-4 2 -2 7z" />
<glyph unicode="&#x205f;" horiz-adv-x="436" />
<glyph unicode="&#x20ac;" horiz-adv-x="1116" d="M41 459q0 94 51 145h101v135h-152q0 94 51 146h111q31 248 167 367.5t441 119.5q217 -8 229 -20q35 -33 35 -142q0 -41 -8 -57q-55 23 -205 23q-217 0 -306 -67t-110 -224h410q0 -92 -51 -146h-369v-135h420q0 -92 -51 -145h-359q20 -158 109.5 -224.5t306.5 -66.5 q123 0 205 22l8 -57q0 -94 -35 -141q-12 -12 -176 -19l-53 -2q-309 0 -445.5 119t-162.5 369h-162z" />
<glyph unicode="&#x2122;" horiz-adv-x="755" d="M61 772l11 49l196 8l43 -2q0 -53 -8 -61q-35 2 -58.5 2t-25.5 -2q-2 -45 -2 -153.5t14 -137.5l-22 -10l-37 -4l-20 6q-2 2 -2 31l6 243q0 8 -2 25l-91 -8zM360 465l21 299q-20 25 -21 53q4 4 56.5 4t54.5 -2t57 -160q0 -4 4 0q6 20 33 86t33 72t51 6t45 -2q0 -35 -18 -59 q18 -164 18 -289q0 -2 -20.5 -7t-33.5 -5t-13 2l2 55q0 168 -8 201h-5q-16 -29 -51 -146l-12 -34q-4 -6 -22.5 -6.5t-20.5 3t-33 89.5t-35 92h-4q-10 -43 -10 -117t2 -100v-25q-12 -12 -51 -12z" />
<glyph unicode="&#x25fc;" horiz-adv-x="993" d="M0 0v993h993v-993h-993z" />
<glyph unicode="&#xfb01;" horiz-adv-x="1064" d="M41 975q0 80 18 98q37 2 80 4l-4 248q-4 33 151.5 108.5t254.5 75.5q12 0 31.5 -46t19.5 -71.5t-2 -31.5q-6 0 -53.5 -21.5t-98.5 -55.5t-53 -58q-8 -53 -12 -146h8q166 0 166 -6q0 -96 -39 -160q-14 -25 -25 -24q-66 4 -112 4v-102l10 -820q0 -80 -4 -100 q-78 -57 -207 -57l-57 10q31 227 30 840q0 154 -2 225l-90 -4q-10 10 -10 90zM635 1077.5q0 59.5 45 102.5t101.5 43t91 -37t34.5 -96.5t-46 -101.5t-102.5 -42t-90 36t-33.5 95.5zM649 446.5q0 317.5 15 346.5q47 37 165 36q47 0 58 -12l-2 -104l-4 -332q0 -160 9 -234.5 t52 -140.5q0 -20 -84 -65t-143 -45q-18 0 -37 61t-24 116.5t-5 373z" />
<glyph unicode="&#xfb02;" horiz-adv-x="1001" d="M41 975q0 80 18 98q37 2 80 4l-4 248q-4 33 151.5 108.5t254.5 75.5q12 0 31.5 -46t19.5 -71.5t-2 -31.5q-6 0 -53.5 -21.5t-98.5 -55.5t-53 -58q-8 -53 -12 -146h8q166 0 166 -6q0 -96 -39 -160q-14 -25 -25 -24q-66 4 -112 4v-102l10 -820q0 -80 -4 -100 q-78 -57 -207 -57l-57 10q31 227 30 840q0 154 -2 225l-90 -4q-10 10 -10 90zM647 291q0 -182 4 -227.5t19 -88.5q27 -80 43 -79q59 0 143 45t84 65q-49 74 -59 164q-4 33 -4 174l4 502q0 457 10 532q0 8 -53.5 8t-122 -26.5t-68.5 -46.5q0 -4 2 -33q6 -86 6 -248z" />
</font>
</defs>
</svg>
