<?xml version="1.0" standalone="no"?>
<!DOCTYPE svg PUBLIC "-//W3C//DTD SVG 1.1//EN" "http://www.w3.org/Graphics/SVG/1.1/DTD/svg11.dtd" >
<svg xmlns="http://www.w3.org/2000/svg">
<metadata></metadata>
<defs>
<font id="fha_modernized_ideal_classiRg" horiz-adv-x="1583" >
<font-face units-per-em="2048" ascent="1638" descent="-410" />
<missing-glyph horiz-adv-x="602" />
<glyph horiz-adv-x="0" />
<glyph unicode="&#xd;" horiz-adv-x="602" />
<glyph unicode=" "  horiz-adv-x="602" />
<glyph unicode="&#x09;" horiz-adv-x="602" />
<glyph unicode="&#xa0;" horiz-adv-x="602" />
<glyph unicode="!" horiz-adv-x="497" d="M59 1491h377l-71 -121l-37 -995h-160l-37 995zM98 119q0 59 44 104t106 45q59 0 103 -45t44 -104t-44 -104.5t-103 -45.5q-61 0 -105.5 45t-44.5 105z" />
<glyph unicode="&#x22;" horiz-adv-x="694" d="M76 1407q0 51 34.5 86t84.5 35q47 0 80.5 -35t33.5 -86q0 -55 -13 -110.5t-28.5 -111t-30 -111.5t-16.5 -116q0 -12 -8 -18t-19.5 -6t-20.5 6t-9 16q-2 59 -16.5 116.5t-30 114t-28.5 111t-13 109.5zM389 1407q0 51 33 86t84 35q47 0 79.5 -35t32.5 -86q0 -55 -13 -110.5 t-28.5 -111t-31 -111.5t-17.5 -116q0 -12 -8 -17t-17 -5t-17.5 5t-8.5 15q-4 59 -17.5 116.5t-29.5 114t-28.5 111t-12.5 109.5z" />
<glyph unicode="#" horiz-adv-x="1544" d="M76 465l65 164h273l94 262h-293l59 166h293l146 401h172l-142 -401h279l141 401h180l-141 -401h275l-70 -166h-268l-92 -262h280l-59 -164h-279l-143 -402h-180l143 402h-270l-150 -402h-178l139 402h-274zM590 623h282l91 268h-277z" />
<glyph unicode="$" horiz-adv-x="1128" d="M61 1139q2 51 31 102t81 91t127 64.5t169 26.5v70l-57 100h278l-57 -100v-70q78 -8 139.5 -27.5t128.5 -47.5l70 65v-319q-37 55 -78 93t-84 62.5t-88 36.5t-88 17v-363q111 -18 191.5 -57t135 -92.5t81 -117.5t26.5 -132t-25.5 -131.5t-78 -116.5t-135.5 -91t-195 -50 v-80l57 -92h-278l57 90v80q-92 12 -182 45.5t-158 87.5l-57 -88v440q61 -164 160.5 -251t236.5 -103v522q-68 6 -141.5 29.5t-134 65.5t-98.5 101.5t-34 139.5zM246 1133q-2 -41 20.5 -72t56 -52.5t73.5 -32.5t73 -13v340q-39 -2 -79 -14.5t-71.5 -34t-52 -52.5t-20.5 -69z M633 279q117 20 177 89.5t60 149.5q0 84 -57 154.5t-180 99.5v-493z" />
<glyph unicode="%" horiz-adv-x="1773" d="M82 1196q0 70 31.5 131.5t84 107.5t122 72.5t143.5 26.5t143.5 -26.5t121.5 -72.5t84 -107.5t32 -131.5t-32 -131t-84 -107.5t-121.5 -73t-143.5 -26.5t-143.5 26.5t-122 73t-84 107.5t-31.5 131zM272 1196q0 -49 13.5 -94t38 -80t59.5 -56.5t80 -21.5t80 21.5t59.5 56.5 t37.5 80t13 94t-11 94t-34.5 80t-59.5 56.5t-85 21.5t-85 -21.5t-59.5 -56.5t-35 -80t-11.5 -94zM412 0l706 1360l-71 131h315l-707 -1360l72 -131h-315zM930 295q0 70 31.5 131t84 107.5t122 73t143.5 26.5t143.5 -26.5t121.5 -73t84 -107.5t32 -131t-32 -131.5t-84 -107.5 t-122 -72.5t-143 -26.5q-74 0 -143.5 26.5t-122 72.5t-84 107.5t-31.5 131.5zM1120 295q0 -49 13.5 -94t38 -80t59.5 -56.5t80 -21.5t79.5 21.5t59.5 56.5t38 80t13 94t-11 94t-34.5 80t-59.5 56.5t-85 21.5t-85 -21.5t-59.5 -56.5t-35 -80t-11.5 -94z" />
<glyph unicode="&#x26;" horiz-adv-x="1568" d="M61 479q0 86 28 161t78 133t121.5 99t160.5 58q-72 4 -125.5 29.5t-88 62.5t-53 80t-18.5 82q0 80 34.5 145.5t96 111.5t147.5 70.5t191 22.5q127 -4 198.5 -44t106.5 -77l74 96v-440q-35 150 -135.5 230.5t-231.5 80.5q-154 0 -213 -61.5t-51 -157.5q4 -45 32.5 -81 t78 -65.5t115 -50t141.5 -34.5q-109 -16 -188 -56t-131 -96.5t-75.5 -125t-21.5 -142.5q2 -102 42 -176t105.5 -121t152.5 -68.5t183 -21.5q78 0 156 20.5t139 61.5t99 100.5t38 136.5q0 47 -18.5 87t-46.5 57q-25 16 -64 16t-71 -27q-16 59 -2 123t47.5 126.5t76.5 125 t83 119.5t70 110.5t34 96.5q4 49 -9.5 84t-43 58.5t-70.5 33.5t-92 8q43 23 93 33t98 10t91 -9t74 -28q41 -25 60.5 -66.5t19.5 -87.5t-19.5 -92t-54.5 -83t-80 -79t-90 -85t-82 -87t-53 -83q-10 -23 -12 -46.5t10 -37.5q18 18 53 28.5t68 10.5q80 0 125 -44t62.5 -107.5 t8 -135.5t-35.5 -129q-55 -121 -147.5 -197.5t-203 -119.5t-230.5 -57.5t-232 -8.5q-104 6 -212 42t-195 101.5t-141.5 159.5t-54.5 217z" />
<glyph unicode="'" horiz-adv-x="385" d="M76 1407q0 51 34.5 86t84.5 35q47 0 80.5 -35t33.5 -86q0 -55 -13 -110.5t-28.5 -111t-30 -111.5t-16.5 -116q0 -12 -8 -18t-19.5 -6t-20.5 6t-9 16q-2 59 -16.5 116.5t-30 114t-28.5 111t-13 109.5z" />
<glyph unicode="(" horiz-adv-x="526" d="M61 778q0 154 56.5 284t147.5 237.5t203 195.5t222 158q-186 -195 -293.5 -407t-107.5 -468t107.5 -467.5t293.5 -406.5q-111 70 -222.5 158t-202.5 195.5t-147.5 237.5t-56.5 283z" />
<glyph unicode=")" horiz-adv-x="526" d="M-162 -96q186 195 294 406.5t108 467.5t-107.5 468t-294.5 407q111 -70 222.5 -158t201.5 -195.5t146.5 -237.5t56.5 -284t-56.5 -283.5t-146.5 -237t-201.5 -196t-222.5 -157.5z" />
<glyph unicode="*" horiz-adv-x="1009" d="M85 1254.5q-11 39.5 13 76.5q23 35 62 48.5t76 -9.5q37 -20 66.5 -49t58 -59.5t58.5 -62.5t64 -56q-6 43 -17 84t-23.5 82t-21.5 82t-9 84q0 41 29.5 70.5t70.5 29.5q43 -2 73.5 -30.5t30.5 -69.5q0 -43 -9 -83t-21.5 -81t-24.5 -81t-18 -83q35 25 64.5 55.5t58 61 t59.5 59.5t68 47q37 23 77.5 12.5t61.5 -47.5q23 -37 10.5 -77.5t-49.5 -63.5q-35 -20 -74 -31.5t-81 -20.5t-84 -19.5t-83 -26.5q41 -18 84 -28.5t84 -21t81 -21.5t75 -32q37 -23 48 -63.5t-9 -77.5q-23 -35 -64 -47t-75 10q-37 20 -68 48t-59.5 58.5t-58 62.5t-64.5 58 q6 -43 18 -85t24.5 -82.5t21.5 -81.5t9 -82t-30.5 -71t-71.5 -30q-41 2 -71.5 31t-30.5 70t9 82t21.5 81.5t24.5 81.5t18 84q-35 -27 -64.5 -58.5t-59 -62t-60.5 -59.5t-65 -47q-37 -23 -76 -11.5t-62 48.5q-23 35 -11.5 77t48.5 64q35 20 74 31.5t80 21t83 18.5t81 25 q-39 16 -81 27.5t-84 22t-82 23t-75 32.5q-37 23 -48 62.5z" />
<glyph unicode="+" horiz-adv-x="1126" d="M82 676v168h393v397h168v-397h401v-168h-401v-397h-168v397h-393z" />
<glyph unicode="," horiz-adv-x="419" d="M61 119q0 59 44.5 104t105.5 45q59 0 104 -45t45 -104q0 -72 -23.5 -126t-56 -92t-64.5 -58.5t-48 -24.5q10 10 20.5 27.5t18.5 37t10 42t-6 44.5q-61 0 -105.5 45t-44.5 105z" />
<glyph unicode="-" horiz-adv-x="921" d="M82 567v181h758v-181h-758z" />
<glyph unicode="." horiz-adv-x="419" d="M61 119q0 61 44.5 105t105.5 44t105 -44t44 -105t-44 -105.5t-105 -44.5t-105.5 44t-44.5 106z" />
<glyph unicode="/" horiz-adv-x="851" d="M-63 0l706 1360l-72 131h316l-707 -1360l72 -131h-315z" />
<glyph unicode="0" horiz-adv-x="1683" d="M70 745q0 156 56 299.5t158.5 252t245 173t312.5 64.5t312 -64.5t244.5 -173t159 -252t56.5 -299.5q0 -158 -56.5 -300t-159 -250.5t-244.5 -173t-312 -64.5t-312.5 64.5t-245 173t-158.5 251t-56 299.5zM319 745q0 -127 35 -241.5t101.5 -200.5t164 -137t222.5 -51 t222 51t163.5 137t101.5 200.5t35 241.5t-35 242t-101.5 201t-163.5 137t-222 51t-222.5 -51t-164 -137t-101.5 -201t-35 -242z" />
<glyph unicode="1" horiz-adv-x="524" d="M86 0l72 131v1186l-72 59l293 135v-1380l72 -131h-365z" />
<glyph unicode="2" horiz-adv-x="1206" d="M61 0v74q86 57 182.5 124.5t190.5 145.5t178 164t146 180q74 115 95 242t-17.5 232.5t-139 174t-268.5 68.5q-84 0 -166 -21.5t-174 -80.5l-16 -7l6 15q35 43 90 82t120.5 68.5t140.5 48t149 18.5q53 0 111.5 -7.5t115.5 -24.5t109.5 -46t95.5 -74q63 -68 91.5 -152.5 t28.5 -173.5t-27.5 -176.5t-74.5 -160.5q-51 -80 -121.5 -152t-151.5 -138.5t-165 -124.5t-164 -110h565l125 119v-307h-1055z" />
<glyph unicode="3" horiz-adv-x="1275" d="M35 291v14l10 -6q90 -100 214 -157.5t265 -61.5q90 0 167 20.5t134.5 67.5t89 120.5t31.5 180.5q0 92 -45 161.5t-115.5 117t-156.5 73t-170 25.5l-10 8l10 6q113 14 195.5 55t133 95.5t67.5 117t1 121.5q-18 59 -66.5 97t-113 56.5t-140 18.5t-148.5 -14t-137.5 -42 t-105.5 -65l-16 -4l6 15q109 123 246 173t272 50q86 0 165 -14.5t142.5 -49t105.5 -94t52 -147.5q8 -68 -9 -124t-55 -102.5t-91.5 -80t-116.5 -56.5q66 -10 132 -42.5t118.5 -87t85 -129.5t32.5 -169q0 -74 -19 -135t-51 -110.5t-73 -86t-86 -61.5q-59 -35 -130 -56.5 t-145.5 -30.5t-151.5 -5t-146 20q-61 12 -120 41t-109 70t-89 93t-59 114z" />
<glyph unicode="4" horiz-adv-x="1384" d="M20 492l723 1001h398l-74 -137v-754h299l-104 -240l-86 80h-109v-313l74 -129h-363l68 129v313h-797zM299 602h518v737z" />
<glyph unicode="5" horiz-adv-x="1269" d="M68 1491h1042v-266l-133 108h-625v-418q59 35 145.5 57.5t180.5 22.5q96 0 192.5 -25.5t172 -87t122.5 -161.5t47 -250q0 -117 -45 -212t-124.5 -161.5t-188.5 -103.5t-238 -37q-117 0 -211 34t-161.5 91t-109.5 132t-54 157l4 12l8 -12q37 -68 92.5 -119t121 -85 t138 -51.5t146.5 -17.5q111 0 186.5 36t123.5 92.5t69.5 129t21.5 146.5q0 55 -16.5 106t-50 96.5t-83.5 78t-118 51.5q-49 12 -125 14t-158 -10.5t-161.5 -38t-139.5 -68.5v629z" />
<glyph unicode="6" horiz-adv-x="1398" d="M78 784q0 80 18.5 167t55 170t93 158t132.5 131t173 90t214 34q205 0 326.5 -100.5t150.5 -278.5l-2 -12l-10 12q-35 76 -88.5 124t-114.5 74.5t-124.5 36t-115.5 7.5q-125 -4 -221 -56.5t-158.5 -145.5t-90 -225t-13.5 -294q18 72 64.5 133t112 106.5t144 69t164.5 21.5 q123 -4 222.5 -39t170 -101.5t108.5 -163t38 -223.5q0 -106 -43 -200.5t-121 -166t-184.5 -113.5t-233.5 -42q-129 0 -249.5 47t-213 147.5t-148.5 257t-56 375.5zM383 475q0 -76 27.5 -140.5t77 -112.5t116 -75.5t144.5 -27.5q76 0 141 27.5t114.5 75.5t77 112.5 t27.5 140.5t-27.5 142.5t-77 115.5t-115 78t-140.5 29q-78 0 -144.5 -29t-116 -78t-77 -115.5t-27.5 -142.5z" />
<glyph unicode="7" horiz-adv-x="1325" d="M61 1237v254h1237q-41 -39 -79.5 -79t-75.5 -81q-274 -317 -487.5 -702t-338.5 -801l-10 -14l-2 14q16 193 54 386.5t105.5 383.5t167 375.5t240.5 363.5h-698z" />
<glyph unicode="8" horiz-adv-x="1486" d="M70 504q0 86 28.5 168t84 150.5t133 118.5t176.5 75q-43 16 -79 37.5t-61 50.5q-31 33 -43 73t-9 80.5t20.5 79.5t48.5 70q59 59 158.5 93t215.5 34q117 0 216.5 -34t158.5 -93q31 -31 48.5 -70t20.5 -79.5t-9.5 -80.5t-42.5 -73q-25 -29 -61 -50.5t-79 -37.5 q98 -25 176 -75t133.5 -118.5t84 -150.5t28.5 -168q0 -131 -53 -232.5t-145.5 -171t-215 -106.5t-260.5 -37q-139 0 -261 37t-214 106.5t-145 171t-53 232.5zM297 514q0 -92 34 -166t94 -126t141 -79.5t177 -27.5q94 0 176 27.5t142.5 79.5t94.5 126t34 166t-34 170 t-94.5 136.5t-142 91t-176.5 32.5q-96 0 -177 -32.5t-141 -91t-94 -136.5t-34 -170zM518 1233q0 -35 18.5 -66.5t49 -55.5t71.5 -37t86 -13t86 13t72 37t49.5 55.5t18.5 66.5q0 70 -59.5 122t-166.5 52q-106 0 -165.5 -52t-59.5 -122z" />
<glyph unicode="9" horiz-adv-x="1359" d="M72 1022q0 100 37.5 193.5t110.5 165t178.5 113.5t240.5 40q123 0 238.5 -45t206 -142.5t144.5 -252t54 -371.5q0 -184 -51 -326.5t-140.5 -241t-211 -148.5t-261.5 -50q-109 0 -190.5 30.5t-139 84t-93 124t-50.5 150.5v16l13 -12q33 -74 83 -124t106 -79.5t114.5 -41 t111.5 -9.5q119 6 216.5 55.5t163 138.5t95 219t13.5 298q-53 -150 -183 -224.5t-311 -70.5q-117 4 -208 45t-155.5 109.5t-98 160t-33.5 195.5zM291 1020q0 -74 27.5 -137.5t74.5 -110.5t110.5 -73.5t135.5 -26.5q74 0 138.5 26.5t110.5 73.5t72.5 110.5t26.5 137.5 q0 72 -26.5 136.5t-72.5 112.5t-110.5 75.5t-138.5 27.5q-72 0 -135.5 -27.5t-110.5 -75.5t-74.5 -112.5t-27.5 -136.5z" />
<glyph unicode=":" horiz-adv-x="419" d="M61 119q0 61 44.5 105t105.5 44t105 -44t44 -105t-44 -105.5t-105 -44.5t-105.5 44t-44.5 106zM61 807q0 61 44.5 105t105.5 44t105 -44t44 -105t-44 -105.5t-105 -44.5t-105.5 44t-44.5 106z" />
<glyph unicode=";" horiz-adv-x="419" d="M61 119q0 59 44.5 104t105.5 45q59 0 103 -45t44 -104q0 -72 -24.5 -126t-55 -92t-62.5 -58.5t-48 -24.5q10 10 20.5 27.5t18.5 37t10 42t-6 44.5q-61 0 -105.5 45t-44.5 105zM61 807q0 61 44.5 105t105.5 44t105 -44t44 -105t-44 -105.5t-105 -44.5t-105.5 44t-44.5 106 z" />
<glyph unicode="&#x3c;" horiz-adv-x="860" d="M82 676v164l696 559v-232l-573 -409l573 -410v-231z" />
<glyph unicode="=" horiz-adv-x="983" d="M82 469v180h819v-180h-819zM82 772v180h819v-180h-819z" />
<glyph unicode="&#x3e;" horiz-adv-x="860" d="M82 117v231l573 410l-573 409v232l696 -559v-164z" />
<glyph unicode="?" horiz-adv-x="1290" d="M61 1034v475l91 -102q98 68 222 97.5t259 29.5q111 0 221.5 -27.5t199.5 -90t144 -163t55 -247.5q0 -141 -60 -235.5t-154.5 -148t-208 -66.5t-218.5 9v-194h-209v389q106 -43 217 -53.5t201 20.5t147.5 105.5t57.5 201.5q0 70 -28.5 130.5t-82 105.5t-127 69.5 t-163.5 24.5q-205 0 -341.5 -82t-222.5 -248zM360 119q0 59 45.5 104t104.5 45t104 -45t45 -104t-45 -104.5t-104 -45.5t-104.5 45t-45.5 105z" />
<glyph unicode="@" horiz-adv-x="1628" d="M70 748q0 150 55 280.5t154.5 229t234.5 154.5t295 56q162 0 295 -55t228 -148.5t146.5 -218.5t51.5 -264q0 -80 -20.5 -156.5t-69.5 -146.5q-41 -57 -103.5 -94t-134.5 -49t-143.5 5t-128.5 71q-72 -63 -139.5 -79t-126.5 -9q-152 16 -212.5 136t-29.5 312 q12 88 65.5 169t131 128t173 45t191.5 -78l-6 70h190l-120 -623q-8 -47 25.5 -70.5t84.5 -21.5t108.5 33t98.5 96q33 55 45 122t9 134.5t-18.5 132t-39.5 117.5q-35 74 -92.5 134.5t-130 102.5t-156.5 65.5t-172 23.5q-125 0 -235.5 -49.5t-193.5 -132.5t-131 -194.5 t-48 -236.5t46 -239.5t129 -201.5t196.5 -138t246.5 -51q131 0 240.5 37.5t181.5 107.5h119q-102 -117 -246.5 -176.5t-304.5 -59.5q-170 0 -306 57.5t-232.5 156t-148.5 231.5t-52 285zM623.5 574.5q7.5 -72.5 39 -115.5t89.5 -31q53 16 76.5 50t33.5 81l72 344q6 41 -1 78 t-52 47q-68 14 -119 -28t-85 -112.5t-47.5 -155.5t-6 -157.5z" />
<glyph unicode="A" horiz-adv-x="1576" d="M20 0l119 131l547 1360h199l553 -1360l118 -131h-450l84 131l-150 375h-551l-143 -375l84 -131h-410zM553 664h424l-215 557z" />
<glyph unicode="B" horiz-adv-x="1359" d="M61 0l72 131v1229l-72 131h304q129 33 249 36h25q107 1 195 -23q98 -26 166.5 -79t93.5 -127q14 -44 14 -86q0 -18 -2 -34q-8 -58 -35 -107t-64.5 -85t-74.5 -54q96 -18 167.5 -65.5t116 -114t62.5 -145.5q12 -55 12 -110q0 -25 -2 -49q-8 -80 -42 -158.5t-93 -139.5 q-55 -59 -136 -101.5t-183 -62.5q-89 -18 -193 -18h-31q-121 3 -258 32h-291zM352 190q72 -51 144.5 -70.5t142.5 -19.5q90 0 170 33t140.5 90.5t95 135t34.5 167.5q0 98 -47 165t-114.5 110t-143.5 65.5t-135 30.5q80 12 134 51t85 89q31 51 40 105q4 23 4 44q0 29 -7 55 q-16 68 -85 119t-210 51q-61 0 -127.5 -17.5t-120.5 -64.5v-1139z" />
<glyph unicode="C" horiz-adv-x="1562" d="M70 745q0 141 55 282.5t162.5 253.5t265.5 182.5t362 70.5q139 0 255 -40t200 -87l90 102v-448q-51 80 -113.5 139.5t-132 98t-143.5 58t-143 19.5q-147 0 -260 -56t-191 -146.5t-118 -203t-40 -225.5t40 -225t118 -202.5t190.5 -146.5t260.5 -56q70 0 143.5 18.5t143 57 t132 98t113.5 139.5v-448l-90 104q-84 -49 -199.5 -88t-255.5 -39q-205 0 -362.5 70.5t-265 182.5t-162.5 253t-55 282z" />
<glyph unicode="D" horiz-adv-x="1644" d="M61 0l72 131v1229l-72 131h301q80 23 157 30t147 7q209 0 377.5 -52.5t286.5 -151.5t181.5 -241.5t63.5 -322.5q0 -152 -47 -293t-144.5 -249.5t-245 -176.5t-350.5 -74q-92 0 -185 7.5t-185 25.5h-357zM352 211q80 -63 183.5 -87t199.5 -24q164 0 278.5 65.5t186.5 165 t104.5 216.5t32.5 221q0 86 -26.5 175t-80.5 169t-136 144q-82 62 -192 96q-103 32 -231 32h-15q-138 -2 -304 -53v-1120z" />
<glyph unicode="E" horiz-adv-x="1392" d="M61 0l72 131v1229l-72 131h1182v-266l-133 108h-758v-362h606l127 71v-303l-127 72h-606v-653h824l157 149v-307h-1272z" />
<glyph unicode="F" horiz-adv-x="1280" d="M61 0l72 131v1229l-72 131h1160v-266l-134 108h-735v-362h606l127 71v-303l-127 72h-606v-680l72 -131h-363z" />
<glyph unicode="G" horiz-adv-x="1634" d="M70 743q0 154 57 296.5t166.5 252t266.5 176t355 66.5q139 0 256 -40t199 -87l90 102v-450q-106 166 -248.5 241.5t-283.5 75.5q-145 0 -258 -53t-191 -141t-119 -203t-41 -236q0 -117 43.5 -229.5t123 -201.5t193.5 -143t255 -54q57 0 120.5 13t117 44t89 80t35.5 121 q0 14 -4 39.5t-15 53.5t-28.5 54.5t-42.5 44.5h375q-35 -31 -50 -73q-14 -40 -14 -84v-6q1 -46 16 -91t40 -78q-96 -141 -270.5 -208.5t-387.5 -67.5q-205 0 -362.5 69.5t-265 182.5t-162.5 253t-55 281z" />
<glyph unicode="H" horiz-adv-x="1536" d="M61 0l72 131v1229l-72 131h365l-72 -131v-404h828v404l-72 131h365l-72 -131v-1229l72 -131h-365l72 131v664h-828v-664l72 -131h-365z" />
<glyph unicode="I" horiz-adv-x="524" d="M80 0l72 131v1229l-72 131h364l-71 -131v-1229l71 -131h-364z" />
<glyph unicode="J" horiz-adv-x="1298" d="M61 -20v479q27 -84 77 -148.5t118 -107.5t147.5 -65.5t165.5 -22.5q109 0 181.5 29.5t115.5 84t60.5 128t17.5 159.5v844l-72 131h365l-72 -131v-856q0 -98 -25.5 -195.5t-90 -175.5t-176 -127t-283.5 -49q-49 0 -107.5 8t-117 23.5t-113.5 40t-100 55.5z" />
<glyph unicode="K" horiz-adv-x="1411" d="M61 0l72 131v1229l-72 131h365l-72 -131v-1229l72 -131h-365zM424 834l514 526l-2 131h418l-176 -131l-514 -526l581 -705l166 -129h-442l28 131z" />
<glyph unicode="L" horiz-adv-x="1288" d="M61 0l72 131v1229l-72 131h365l-72 -131v-1202h711l162 159v-317h-1166z" />
<glyph unicode="M" horiz-adv-x="2050" d="M0 0l119 131l188 1229l-86 131h318l462 -801l433 801h370l-86 -131l217 -1229l115 -131h-436l86 131l-187 1118l-512 -944l-534 903l-158 -1077l88 -131h-397z" />
<glyph unicode="N" horiz-adv-x="1562" d="M61 0l72 131v1229l-72 131h342l807 -1030v899l-71 131h364l-71 -131v-1507l-1078 1374v-1096l72 -131h-365z" />
<glyph unicode="O" horiz-adv-x="1806" d="M70 745q0 156 66.5 298.5t180 252t265 174t321.5 64.5t321.5 -64.5t265.5 -174t180.5 -252t66.5 -298.5q0 -158 -66.5 -300t-180.5 -250.5t-265.5 -173t-321.5 -64.5t-321.5 64.5t-265 174t-180 252t-66.5 297.5zM319 745q0 -129 44.5 -243.5t122 -200.5t184 -136 t233.5 -50t233.5 50t184.5 136t122 200.5t44 243.5t-44 244t-122 201t-184.5 136t-233.5 50t-233.5 -50t-184 -136t-122 -201t-44.5 -244z" />
<glyph unicode="P" horiz-adv-x="1380" d="M61 0l72 131v1229l-72 131h283q72 16 146.5 26.5t136.5 10.5h16q130 0 246 -30q123 -32 215 -98.5t146.5 -166t54.5 -232.5v-10q1 -151 -61 -269q-64 -122 -181 -192q-117 -72 -277 -80q-17 -1 -36 0q-146 0 -316 62q86 -17 162 -17q52 -1 100 7q119 20 203 79.5 t130 152.5t46 212q0 98 -38 178t-100.5 136.5t-144 87t-169.5 30.5q-72 0 -139.5 -14t-129.5 -55v-1178l72 -131h-365z" />
<glyph unicode="Q" horiz-adv-x="1806" d="M70 748q0 156 66.5 298t180 250.5t265 173t321.5 64.5t321.5 -64.5t265.5 -173t180.5 -251t66.5 -297.5q0 -115 -36 -221.5t-98.5 -198.5t-150.5 -166t-192 -123q129 -233 252 -285q37 -15 73 -15q78 0 144 79l24 -74q-123 -92 -256 -92t-250 89t-196 232 q-74 -12 -148 -12q-170 0 -321.5 64.5t-265 173t-180 251t-66.5 298.5zM322 748q0 -127 44 -240t121.5 -198t184 -135t231.5 -50t231.5 50t184.5 135t122 198t44 240t-44 239.5t-122 197.5t-184.5 135t-231.5 50t-231.5 -50t-184 -135t-121.5 -198t-44 -239z" />
<glyph unicode="R" horiz-adv-x="1384" d="M61 0l72 131v1229l-72 131h281q155 43 298 42q35 0 69 -2q174 -13 307 -84t212 -195t81 -289v-8q-1 -190 -99 -317q-100 -130 -266 -175q39 -176 105.5 -315.5t165 -232.5t231.5 -139q105 -36 237 -36q34 0 70 2q-66 -23 -131.5 -37t-130.5 -14h-11q-123 0 -239 45 q-121 47 -222 142t-178 237.5t-116 328.5q-66 2 -140.5 17.5t-152.5 48.5q62 -10 126 -10q46 0 94 5q114 13 209 62t156.5 138.5t61.5 220.5q0 61 -16 123.5t-47 117t-78 97.5t-109 67q-94 35 -210 35h-24q-130 -4 -241 -66v-1169l72 -131h-365z" />
<glyph unicode="S" horiz-adv-x="1353" d="M70 1079q-2 23 -2 46q0 87 37 154q47 85 133 142.5t197.5 85t228.5 27.5q66 0 122 -7t106 -20.5t98 -32t97 -40.5l74 75v-403q-51 86 -108.5 141.5t-120 86t-128 43t-128.5 12.5q-51 0 -117.5 -12.5t-127 -39t-102.5 -70.5t-42 -108q0 -70 57 -125t162 -71 q72 -12 155.5 -23.5t168.5 -31t165 -50.5t142.5 -80t103.5 -122t47 -175v-18q0 -124 -51 -215q-55 -98 -147.5 -163t-208 -96.5t-230.5 -31.5q-135 0 -256 37t-211 98l-104 -112v530q43 -86 98 -157.5t125 -124t155 -81t187 -28.5q90 0 165 23.5t128 66.5t82 102.5t29 130.5 q0 86 -48.5 143.5t-125 92.5t-172 55.5t-189.5 32.5q-61 8 -135 26.5t-139.5 54.5t-113.5 92t-56 140z" />
<glyph unicode="T" horiz-adv-x="1531" d="M61 1176v315h1409v-315l-137 157h-456v-1202l71 -131h-364l71 131v1202h-456z" />
<glyph unicode="U" horiz-adv-x="1566" d="M61 1491h365l-72 -131v-836q0 -78 23.5 -149.5t74 -125.5t128 -86t186.5 -32q111 0 193.5 28.5t139 81t85 124t28.5 159.5v836l-71 131h364l-71 -131v-858q0 -92 -38 -188.5t-118 -174.5t-207 -128t-305 -50t-299 48t-194.5 125t-106.5 174.5t-33 193.5v858z" />
<glyph unicode="V" horiz-adv-x="1546" d="M20 1491h463l-90 -131l414 -1108l399 1108l-82 131h402l-117 -131l-539 -1360h-180l-540 1360z" />
<glyph unicode="W" horiz-adv-x="2353" d="M20 1491h441l-90 -131l422 -1077l376 960l377 -960l418 1077l-90 131h459l-125 -131l-563 -1360h-181l-305 778l-295 -778h-168l-551 1360z" />
<glyph unicode="X" horiz-adv-x="1439" d="M20 0l125 131l461 688l-352 541l-145 131h411l-47 -131l252 -377l254 377l-72 131h441l-150 -131l-362 -545l462 -684l121 -131h-426l72 131l-342 514l-344 -514l72 -131h-431z" />
<glyph unicode="Y" horiz-adv-x="1624" d="M20 1491h510l-92 -131l400 -653l407 653l-102 131h461l-146 -131l-524 -807v-422l72 -131h-373l72 131v438l-531 791z" />
<glyph unicode="Z" horiz-adv-x="1368" d="M61 0l908 1333h-645l-136 -157v315h1131l-885 -1333h715l158 149v-307h-1246z" />
<glyph unicode="[" horiz-adv-x="2260" d="M82 227l61 111v1008l-61 51l250 114v-1173l61 -111h-311zM393 0l707 1360l-72 131h315l-706 -1360l72 -131h-316zM1208 250v12l11 -6q76 -86 180 -134t225 -50q76 0 141.5 17t113.5 57t75.5 102.5t27.5 152.5q0 78 -37.5 137.5t-98 99.5t-134.5 61.5t-143 21.5l-8 6l8 6 q96 12 165.5 47t112.5 81t57.5 99.5t0.5 102.5q-23 76 -99.5 110.5t-171 34.5t-186.5 -27.5t-145 -74.5l-15 -4l6 12q92 104 208 146.5t231 42.5q74 0 140 -12.5t120.5 -41t89.5 -79t45 -126.5q6 -57 -8.5 -105t-46 -86t-77.5 -67.5t-100 -48.5q55 -10 111.5 -37.5 t101.5 -72.5t73 -108.5t28 -143.5q0 -63 -16.5 -115.5t-43 -93.5t-62.5 -73t-73 -52q-102 -57 -234 -72.5t-253 13.5q-51 10 -100.5 34.5t-92.5 59.5t-75.5 79t-51.5 95z" />
<glyph unicode="\" horiz-adv-x="2838" d="M31 475v12l10 -6q76 -86 180.5 -134t224.5 -50q76 0 141.5 17.5t114 57.5t76 102.5t27.5 152.5q0 78 -38 137t-98.5 99t-134 61.5t-143.5 21.5l-8 6l8 6q96 12 166 47t113 81.5t57 99.5t0 102q-23 76 -99.5 111t-171 35t-186.5 -28t-145 -75l-14 -4l6 12 q92 104 207.5 147.5t230.5 43.5q74 0 140.5 -12.5t120.5 -42t89 -79.5t45 -126q6 -57 -8 -105.5t-46 -86.5t-78 -67.5t-99 -47.5q55 -10 111.5 -38t101.5 -73t72.5 -108.5t27.5 -143.5q0 -63 -16.5 -115.5t-43 -93.5t-62.5 -72.5t-72 -52.5q-102 -57 -234.5 -72.5 t-253.5 13.5q-51 10 -100 34.5t-92 59.5t-76 79t-51 95zM961 0l727 1360l-72 131h315l-727 -1360l72 -131h-315zM1620 418l614 850h338l-63 -117v-641h254l-88 -203l-74 68h-92v-266l63 -109h-309l57 109v266h-675zM1855 510h441v627z" />
<glyph unicode="]" horiz-adv-x="3010" d="M31 475v12l10 -6q76 -86 180.5 -134t224.5 -50q76 0 141.5 17.5t114 57.5t76 102.5t27.5 152.5q0 78 -38 137t-98.5 99t-134 61.5t-143.5 21.5l-8 6l8 6q96 12 166 47t113 81.5t57 99.5t0 102q-23 76 -99.5 111t-171 35t-186.5 -28t-145 -75l-14 -4l6 12 q92 104 207.5 147.5t230.5 43.5q74 0 140.5 -12.5t120.5 -42t89 -79.5t45 -126q6 -57 -8 -105.5t-46 -86.5t-78 -67.5t-99 -47.5q55 -10 111.5 -38t101.5 -73t72.5 -108.5t27.5 -143.5q0 -63 -16.5 -115.5t-43 -93.5t-62.5 -72.5t-72 -52.5q-102 -57 -234.5 -72.5 t-253.5 13.5q-51 10 -100 34.5t-92 59.5t-76 79t-51 95zM961 0l727 1360l-72 131h315l-727 -1360l72 -131h-315zM1784 428q0 74 24.5 143.5t70.5 127t112.5 100.5t150.5 65q-78 29 -119 74q-51 57 -44.5 131t59.5 127q49 51 134 80t185 29q98 0 183.5 -29t134.5 -80 q53 -53 59 -127t-45 -131q-41 -45 -119 -74q84 -23 150.5 -65.5t112.5 -100t71 -127t25 -143.5q0 -111 -45 -197t-123 -146t-182.5 -91t-221.5 -31t-221 31t-183 91t-124 146t-45 197zM1976 436q0 -78 29 -140.5t80 -106.5t120.5 -67.5t151.5 -23.5q80 0 149.5 23.5 t121 67.5t80 106.5t28.5 140.5t-28.5 145.5t-80 117t-121 77t-149.5 27.5q-82 0 -151.5 -27.5t-120.5 -77t-80 -117t-29 -145.5zM2165 1049q0 -31 15 -57.5t42 -46t61.5 -32t73.5 -12.5t74 12.5t60.5 32t41 46t15.5 57.5q0 59 -50.5 103t-140.5 44q-92 0 -142 -44t-50 -103z " />
<glyph unicode="^" horiz-adv-x="892" d="M145 1141l226 254h168l229 -254h-90l-223 127l-226 -127h-84z" />
<glyph unicode="_" horiz-adv-x="1187" d="M82 0h1024v-160h-1024v160z" />
<glyph unicode="`" horiz-adv-x="794" d="M119 1446q0 41 30.5 67.5t61.5 26.5q29 0 59.5 -18.5t75.5 -63.5l281 -284h-95l-325 167q-53 18 -70.5 44t-17.5 61z" />
<glyph unicode="a" horiz-adv-x="1310" d="M68 399q0 125 58 217.5t152 147.5q96 54 212 70q39 5 77 6q77 0 154 -21q-63 135 -201 185q-70 26 -157 26q-83 0 -181 -24q29 20 69 37.5t83 29.5t87 18.5t83 6.5q61 0 125.5 -13.5t123 -41t105.5 -69.5t76 -102l358 -743l109 -129h-311l-105 227q-29 -68 -78 -119 t-110.5 -84.5t-131 -50t-137.5 -16.5q-88 0 -171 29.5t-147.5 87t-103 139.5t-38.5 186zM301 418q0 -59 23.5 -112.5t64.5 -94.5t96.5 -65.5t120.5 -24.5q61 0 116.5 21.5t98.5 58.5t68.5 85t25.5 101l-129 270q-70 45 -170 45q-66 0 -123 -21.5t-100 -60t-67.5 -90 t-24.5 -112.5z" />
<glyph unicode="b" horiz-adv-x="1374" d="M35 1491h313v-565q53 86 153.5 132t213.5 46q125 0 231.5 -38t184 -111.5t121.5 -180.5t46 -244v-11q0 -111 -38 -210q-40 -104 -116.5 -182t-182 -124t-232.5 -46q-109 0 -196 37t-154 123q57 -51 123 -71q56 -17 123 -18q13 0 26 1q104 6 180 51t125.5 112.5t72 150.5 t22.5 167q0 121 -35 206t-92.5 137t-131 75.5t-149.5 23.5q-176 0 -295 -155v-797h-287l72 129v1247z" />
<glyph unicode="c" horiz-adv-x="1236" d="M76 524q0 113 44 217.5t125 185.5t195.5 129t255.5 48q111 0 199 -28.5t147 -55.5l74 76v-400q-29 63 -73 111.5t-97 81.5t-110.5 50t-110.5 17q-80 0 -150.5 -29.5t-124 -86t-85 -137t-31.5 -185.5q0 -96 29.5 -171t80 -127t119 -79.5t146.5 -27.5t146.5 24.5 t121.5 65.5t89 93t48 110l86 -72q-18 -90 -64 -161t-115 -119t-157 -72.5t-188 -24.5q-119 0 -227.5 39t-191.5 112.5t-132 178t-49 237.5z" />
<glyph unicode="d" horiz-adv-x="1349" d="M76 535q0 137 51 242.5t135 178t192.5 110.5t223.5 38q86 0 174 -25.5t149 -79.5v377l-98 115h314v-1362l71 -129h-287v78q-25 -29 -61.5 -51.5t-79.5 -38t-88 -23.5t-88 -8q-104 0 -211.5 34t-196 104.5t-144.5 179t-56 260.5zM334 545q0 -90 28.5 -171t83 -142.5 t129 -98.5t166.5 -37q72 0 142.5 28t117.5 75v669q-49 51 -118.5 73t-141.5 22q-88 0 -162.5 -33t-129 -89.5t-85 -132t-30.5 -163.5z" />
<glyph unicode="e" horiz-adv-x="1296" d="M76 510q0 117 40 224.5t116.5 189.5t190.5 131t259 49q156 0 258 -51.5t164.5 -131t91.5 -178t35 -190.5h-909q-1 -13 -1 -26q0 -72 19 -138q22 -78 68.5 -137t118 -96t167.5 -41q16 -1 33 -1q47 0 102 8q74 11 139.5 44t116 92t66.5 152l63 -50q-12 -80 -54 -152.5 t-109.5 -127.5t-157.5 -89t-199 -34q-152 0 -266.5 47t-193 124t-118.5 177.5t-40 204.5zM336 688h674q-10 70 -42 120t-77 84t-99.5 50t-109.5 16q-59 0 -116.5 -18t-103.5 -52t-80 -85t-46 -115z" />
<glyph unicode="f" horiz-adv-x="587" d="M20 854v207h148q-1 18 -1 34q0 219 97 335q103 126 340 126q57 0 109.5 -16t94.5 -43t72 -60.5t42 -68.5l2 -8l-9 4q-53 53 -122.5 74.5t-124.5 21.5q-145 0 -222 -92q-65 -78 -65 -244q0 -30 2 -63h143v-207l-77 82h-68v-807l72 -129h-359l72 129v807h-68z" />
<glyph unicode="g" horiz-adv-x="1370" d="M76 532q0 139 49 246t132 179.5t191.5 109.5t229.5 37q86 0 174 -23.5t149 -81.5v62h314l-98 -115v-870q0 -373 -130.5 -548t-390.5 -175q-137 0 -235.5 71.5t-134.5 194.5q55 -78 135 -118t170 -40q100 0 171.5 34t116 107.5t65.5 193.5q17 105 17 249v43 q-59 -76 -146 -103.5t-171 -27.5q-104 0 -211.5 34t-196 103.5t-144.5 178t-56 259.5zM338 543q0 -90 28.5 -171t81 -142.5t127 -97.5t166.5 -36q72 0 142.5 28t117.5 75v669q-49 51 -118.5 73t-141.5 22q-88 0 -161.5 -33t-128 -90.5t-84 -133t-29.5 -163.5z" />
<glyph unicode="h" horiz-adv-x="1310" d="M35 1491h313v-514q55 51 146.5 90t205.5 39q119 0 217.5 -34t169 -96.5t109.5 -153.5t39 -204q0 -80 -21.5 -155.5t-57.5 -143t-84 -125t-99 -100.5l106 -94h-389q55 41 109.5 108.5t95.5 145.5t66.5 160t25.5 153q0 86 -18.5 160t-59.5 128t-104.5 85t-151.5 31 q-98 0 -175 -33t-130 -80v-729l72 -129h-359l72 129v1247z" />
<glyph unicode="i" horiz-adv-x="481" d="M35 1061h313v-932l72 -129h-359l72 129v817zM86 1319q0 59 42 100t103 41q59 0 99.5 -41t40.5 -100q0 -61 -40 -103t-100 -42q-61 0 -103 41.5t-42 103.5z" />
<glyph unicode="j" horiz-adv-x="481" d="M-395 -313q72 -55 163 -79q51 -14 100 -14q37 0 73 8q82 19 137 83.5t55 181.5v1079l-98 115h313v-1176q0 -94 -30.5 -168.5t-85 -128t-129 -82t-164.5 -28.5q-59 0 -113.5 16.5t-98.5 45t-76 66.5t-46 81zM86 1319q0 59 42 100t103 41q59 0 99.5 -41t40.5 -100 q0 -61 -40 -103t-100 -42q-61 0 -103 41.5t-42 103.5z" />
<glyph unicode="k" horiz-adv-x="1122" d="M35 1491h313v-1362l72 -129h-359l72 129v1247zM383 614l389 365l-39 82h389l-127 -78l-377 -338l359 -516l135 -129h-383l21 94z" />
<glyph unicode="l" horiz-adv-x="487" d="M35 1491h313v-1362l72 -129h-359l72 129v1247z" />
<glyph unicode="m" horiz-adv-x="1927" d="M35 1061h313v-84q68 61 143.5 95t204.5 34q195 0 328 -88q117 88 295 88q119 0 216 -34t168 -96.5t109.5 -153.5t38.5 -204q0 -80 -22.5 -155.5t-59 -143t-85 -125t-99.5 -100.5l107 -94h-389q41 31 80.5 76t74.5 99t63.5 112.5t47.5 118.5q35 106 35 207.5t-37 181 t-115 128t-201 48.5q-41 0 -74.5 -6.5t-68.5 -18.5q55 -61 86 -143t31 -185q0 -80 -21.5 -155.5t-57.5 -143t-84 -125t-99 -100.5l106 -94h-379q86 63 155.5 165.5t108.5 219.5q36 109 36 216v17q-3 116 -62 205q-23 -29 -38.5 -61.5t-23.5 -67.5q6 94 37 168 q-41 51 -102.5 80t-147.5 29q-98 0 -175 -33t-130 -82v-727l72 -129h-359l72 129v817z" />
<glyph unicode="n" horiz-adv-x="1310" d="M35 1061h313v-84q59 53 147.5 91t204.5 38q119 0 217.5 -34t169 -96.5t109.5 -153.5t39 -204q0 -80 -21.5 -155.5t-57.5 -143t-84 -125t-99 -100.5l106 -94h-389q55 41 109.5 108.5t95.5 145.5t66.5 160t25.5 153q0 86 -18.5 160t-59.5 128t-104.5 85t-151.5 31 q-98 0 -175 -32t-130 -81v-729l72 -129h-359l72 129v817z" />
<glyph unicode="o" horiz-adv-x="1402" d="M76 530q0 117 52 220.5t138 182.5t199 125t233 46q121 0 233.5 -46t199 -125t138.5 -182.5t52 -220.5t-52 -221t-138.5 -183t-199 -124t-233.5 -45t-233.5 46t-198.5 125t-138 182.5t-52 219.5zM324 530q0 -92 28.5 -169.5t79.5 -135t120 -90.5t146 -33q78 0 146.5 33 t119 90.5t80 135t29.5 169.5t-29.5 170t-80 135.5t-119 90t-146.5 32.5t-146.5 -32.5t-119.5 -90t-79.5 -135t-28.5 -170.5z" />
<glyph unicode="p" horiz-adv-x="1349" d="M35 1061h313v-82q27 29 65 51.5t82 38.5t89 25.5t88 9.5q104 0 210.5 -26.5t193.5 -92t142.5 -176.5t55.5 -279q0 -137 -51.5 -242.5t-135 -178t-192.5 -109.5t-223 -37q-86 0 -174 18.5t-150 71.5v-362l72 -129h-359l72 129v1255zM348 184q49 -51 119 -72.5t141 -21.5 q88 0 163 33t129 89t85 132t31 164t-27.5 169t-81 142.5t-129.5 98t-170 36.5q-72 0 -142.5 -25.5t-117.5 -72.5v-672z" />
<glyph unicode="q" horiz-adv-x="1349" d="M76 524q0 162 55 272.5t142 179t193.5 98.5t211.5 30q43 0 88 -8.5t89 -23.5t82 -38.5t64 -54.5v82h314l-98 -115v-1255l71 -129h-358l71 129v362q-61 -53 -149 -71.5t-174 -18.5q-115 0 -223.5 37t-192.5 107.5t-135 175t-51 241.5zM334 508q0 -88 30.5 -164t85 -132 t129 -89t162.5 -33q72 0 141.5 21.5t118.5 72.5v672q-47 47 -117.5 72.5t-142.5 25.5q-92 0 -166.5 -36.5t-129 -98t-83 -142.5t-28.5 -169z" />
<glyph unicode="r" horiz-adv-x="956" d="M35 1061h313v-100q41 57 110.5 100t186.5 43q33 0 89.5 -15.5t99.5 -56.5l86 70v-348q-50 88 -134 135q-81 45 -169 45h-7q-72 -2 -143.5 -34t-118.5 -97v-674l72 -129h-359l72 129v817z" />
<glyph unicode="s" horiz-adv-x="1011" d="M72 -39v381q35 -63 85 -110.5t105 -78t113.5 -45t109.5 -14.5q59 0 111.5 14.5t89.5 43.5q36 30 54 77q11 30 12 68q0 22 -4 47q-10 61 -55.5 98t-111 61.5t-140 44t-143.5 45t-123 64.5t-75 103q-11 35 -11 72q0 22 4 46q11 62 52 112t114 82t177 32q94 0 156.5 -24.5 t112.5 -51.5l90 72v-322q-25 43 -67 76t-90 56.5t-95 34.5t-82 11q-92 0 -130 -33.5t-38 -74.5q0 -45 41 -75t110 -48q76 -20 166 -46t169 -66t135.5 -99.5t64.5 -151.5q2 -22 2 -43q0 -85 -33 -147q-41 -78 -109.5 -126t-153.5 -68q-77 -19 -147 -19h-14q-125 2 -218 26.5 t-146 59.5z" />
<glyph unicode="t" horiz-adv-x="587" d="M20 854v207h150v315l-98 115h305v-430h149v-207l-77 82h-68v-733q0 -47 16.5 -81t46.5 -52q26 -16 63 -15h8q42 2 91 29q-53 -63 -111.5 -91t-115.5 -28q-88 0 -150.5 50.5t-62.5 144.5v776h-68z" />
<glyph unicode="u" horiz-adv-x="1306" d="M76 442q0 80 21.5 156t57 143.5t83 125t100.5 100.5l-107 94h379q-55 -41 -109.5 -108.5t-95 -145.5t-66.5 -160t-26 -153q0 -86 18.5 -160t59.5 -128t103.5 -85t152.5 -31q98 0 175 32t130 81v729l-71 129h286v-932l78 -129h-293v84q-59 -53 -147 -91t-205 -38 q-119 0 -215 34t-164.5 96t-106.5 152.5t-38 204.5z" />
<glyph unicode="v" horiz-adv-x="1220" d="M0 1061h410l-64 -115l283 -729l276 729l-71 115h387l-113 -115l-406 -946h-182l-411 946z" />
<glyph unicode="w" horiz-adv-x="1724" d="M0 1061h416l-70 -115l264 -729l262 762l265 -762l254 729l-80 115h413l-108 -115l-377 -946h-203l-164 516l-170 -516h-217l-389 946z" />
<glyph unicode="x" horiz-adv-x="1167" d="M23 0l110 113l340 456l-278 379l-138 113h398l-41 -113l170 -233l170 233l-62 113h414l-137 -113l-279 -377l342 -456l113 -115h-393l55 115l-225 307l-226 -309l60 -113h-393z" />
<glyph unicode="y" horiz-adv-x="1300" d="M76 442q0 80 21.5 156t57 143.5t83 125t100.5 100.5l-107 94h379q-55 -41 -109.5 -108.5t-95 -145.5t-66.5 -160t-26 -153q0 -86 18.5 -160t59.5 -128t103.5 -85t152.5 -31q98 0 175 32t130 81v729l-71 129h286v-1071q0 -158 -38.5 -280t-108.5 -205t-169 -127t-218 -44 q-66 0 -125 18.5t-107.5 53.5t-84 84t-52.5 109q55 -78 126 -115t169 -41q14 -1 27 -1q179 0 269 128q97 137 97 430v84q-59 -53 -147 -91t-205 -38q-119 0 -215 34t-164.5 96t-106.5 152.5t-38 204.5z" />
<glyph unicode="z" horiz-adv-x="1054" d="M45 0l653 907h-491l-94 -104v258h911l-633 -907h490l112 106v-260h-948z" />
<glyph unicode="{" horiz-adv-x="2392" d="M82 227l61 111v1008l-61 51l250 114v-1173l61 -111h-311zM393 0l686 1360l-71 131h315l-686 -1360l72 -131h-316zM1165 428q0 74 24.5 143.5t71 127t113 100.5t150.5 65q-78 29 -119 74q-51 57 -45 131t59 127q49 51 134 80t186 29q98 0 183 -29t134 -80 q53 -53 59.5 -127t-44.5 -131q-41 -45 -119 -74q84 -23 150.5 -65.5t112.5 -100t70.5 -127t24.5 -143.5q0 -111 -45 -197t-123 -146t-182.5 -91t-220.5 -31q-117 0 -221.5 31t-183.5 91t-124 146t-45 197zM1358 436q0 -78 28.5 -140.5t80 -106.5t121 -67.5t151.5 -23.5 q80 0 149.5 23.5t120.5 67.5t80 106.5t29 140.5t-29 145.5t-80 117t-120.5 77t-149.5 27.5q-82 0 -151.5 -27.5t-121 -77t-80 -117t-28.5 -145.5zM1546 1049q0 -31 15.5 -57.5t42 -46t61.5 -32t74 -12.5t73.5 12.5t60 32t41 46t15.5 57.5q0 59 -50 103t-140 44 q-92 0 -142.5 -44t-50.5 -103z" />
<glyph unicode="|" horiz-adv-x="2260" d="M82 227l61 111v1008l-61 51l250 114v-1173l61 -111h-311zM393 0l707 1360l-72 131h315l-706 -1360l72 -131h-316zM1278 0v63q72 49 155 106.5t162.5 123t151.5 139.5t123 154q63 98 80.5 204.5t-15 196.5t-117.5 148.5t-229 58.5q-66 0 -141.5 -23.5t-147.5 -66.5l-14 -4 l6 12q29 37 74 71t101.5 59.5t120 40.5t128.5 15q45 0 95.5 -6t99.5 -20.5t93 -39t81 -63.5q53 -57 77.5 -128.5t23.5 -147.5t-23.5 -150.5t-63.5 -136.5q-43 -68 -103.5 -129t-129 -117.5t-140 -106.5t-139.5 -93h481l107 102v-262h-897z" />
<glyph unicode="}" horiz-adv-x="2271" d="M82 227l61 111v1008l-61 51l250 114v-1173l61 -111h-311zM393 0l727 1360l-71 131h315l-727 -1360l72 -131h-316zM1053 418l614 850h338l-63 -117v-641h253l-88 -203l-73 68h-92v-266l63 -109h-309l57 109v266h-676zM1288 510h441v627z" />
<glyph unicode="~" horiz-adv-x="892" d="M96 1473q27 59 59.5 105t61.5 64q33 18 76 25.5t84 -0.5q18 -4 40.5 -14.5t46 -24.5t45 -28.5t38.5 -24.5q20 -6 48 -13.5t50 5.5q8 2 25.5 21.5t29.5 41.5q4 10 17.5 11t27 -4t23.5 -12t8 -13q-25 -61 -59.5 -104.5t-65.5 -65.5q-33 -18 -74.5 -25.5t-80.5 -1.5 q-27 4 -54.5 21.5t-54.5 36t-52.5 33t-49.5 14.5q-80 10 -119 -68q-10 -10 -23.5 -12t-25 1t-18.5 11t-3 21z" />
<glyph unicode="&#xa1;" horiz-adv-x="497" d="M59 -102l72 120l37 996h160l37 -996l71 -120h-377zM98 1270q0 59 44 104t106 45q59 0 103 -45t44 -104t-44 -104.5t-103 -45.5q-61 0 -105.5 45t-44.5 105z" />
<glyph unicode="&#xa2;" horiz-adv-x="1028" d="M70 807q0 94 36.5 181t105.5 154.5t166 107.5t216 40q92 0 167 -23.5t122 -43.5l63 63v-338q-25 55 -61.5 96t-81.5 70t-92 43t-93 14q-66 0 -126 -25.5t-105 -72.5t-71.5 -114.5t-26.5 -151.5t26.5 -152.5t71.5 -115.5t105.5 -73t125.5 -26q45 0 92.5 14.5t92.5 43 t82 69.5t61 97v-336l-63 61q-47 -18 -122 -42.5t-167 -24.5q-119 0 -216 39.5t-166 107.5t-105.5 156t-36.5 182zM449 27l137 256l133 -256h-270z" />
<glyph unicode="&#xa3;" horiz-adv-x="1267" d="M61 0q41 47 78 93t64.5 93t43 98.5t15.5 108.5v297h-51l-129 -69v303l129 -74h51v121q0 123 24.5 226t83 178t157 117t247.5 42q61 0 105.5 -8t80 -24.5t67.5 -42t69 -60.5l90 108v-469q-35 70 -70 132.5t-80 108.5t-104.5 72.5t-143.5 26.5q-96 0 -150 -30.5t-82 -85 t-35 -129t-7 -162.5v-121h209l129 74v-303l-129 69h-209v-254q0 -78 -37 -145.5t-80 -134.5h629l160 159v-315h-1125z" />
<glyph unicode="&#xa4;" horiz-adv-x="1292" d="M41 418v266l106 -53h58q-10 119 0 227h-58l-106 -51v260l106 -47h78q43 254 172 384t351 130q109 0 201.5 -30.5t170.5 -96.5l90 104v-448q-43 70 -87 127t-93 99t-106.5 65.5t-126.5 23.5q-68 0 -120 -26.5t-91 -74.5t-66.5 -113.5t-44.5 -143.5h416l125 67v-301 l-125 72h-436q-4 -53 -5 -110.5t5 -116.5h436l125 74v-308l-125 74h-416q33 -160 111 -259t211 -99q70 0 127 23.5t106 64.5t93 99t87 128v-451l-90 105q-78 -66 -171 -95.5t-201 -29.5q-221 0 -350.5 129t-172.5 385h-78z" />
<glyph unicode="&#xa5;" horiz-adv-x="1626" d="M20 1491h510l-90 -131l402 -655l405 655l-102 131h461l-146 -131l-354 -545h117l125 70v-303l-125 73h-222l-65 -102v-125h287l125 72v-305l-125 71h-287v-137l70 -129h-371l74 129v137h-303l-125 -71v305l125 -72h303v141l-62 86h-241l-125 -73v303l125 -70h133 l-363 545z" />
<glyph unicode="&#xa6;" horiz-adv-x="1028" d="M70 745q0 86 30.5 166t88 144.5t138.5 108.5t183 59v96l-61 108h270l-55 -108v-94q70 -10 126 -28.5t93 -35.5l63 64v-338q-25 55 -61.5 96t-81.5 69.5t-92 43t-93 14.5q-66 0 -126 -25.5t-105 -72.5t-71.5 -115t-26.5 -152t26.5 -152.5t71.5 -115.5t105.5 -72.5 t125.5 -25.5q45 0 92.5 14.5t92.5 43t82 69.5t61 96v-336l-63 62q-37 -16 -93.5 -35t-125.5 -29v-84l55 -108h-270l61 108v86q-102 14 -183 58.5t-138.5 109t-88 145t-30.5 166.5z" />
<glyph unicode="&#xa7;" d="M68 731q0 150 56 282t154.5 230t230.5 155.5t282 57.5t281.5 -57.5t230 -155.5t156 -230t57.5 -282t-57.5 -282t-156 -230t-230 -155.5t-281.5 -57.5t-282 57.5t-230.5 155.5t-154.5 230.5t-56 281.5zM164 731q0 -129 49 -242.5t135 -199.5t200 -135.5t243 -49.5 q131 0 244.5 49.5t197.5 135.5t133 199.5t49 242.5t-49 242.5t-133 198.5t-197.5 134.5t-244.5 49.5q-129 0 -243 -49.5t-200 -134.5t-135 -198.5t-49 -242.5zM207 731q0 119 46 224.5t126 184.5t185.5 124t226.5 45q119 0 225 -45t185 -124t125 -184.5t46 -224.5 q0 -121 -46 -227.5t-125 -185t-185 -125t-225 -46.5q-121 0 -226.5 46.5t-185.5 125t-126 185t-46 227.5zM330 664l112 -177q346 -80 699 0l110 177h-921zM451 1063l151 -189q4 -4 15.5 -0.5t23.5 9.5t20.5 12t8.5 8q-29 57 -47.5 118.5t-53.5 111.5q-6 8 -26.5 -0.5 t-42 -22.5t-38 -28.5t-11.5 -18.5zM463 457q20 -35 51 -74t73 -70.5t92.5 -53t111.5 -21.5q59 0 110 21.5t92 53t73 70.5t52 74q-164 -43 -326.5 -42t-328.5 42zM715 731h155l-77 187zM918 903q-4 -2 4 -8t19 -12t23.5 -9.5t18.5 0.5l147 189q4 4 -11 18.5t-36.5 28.5 t-42 22.5t-26.5 0.5q-39 -49 -55.5 -110.5t-40.5 -119.5zM1290 102v23h84v-23h-31v-77h-22v77h-31zM1384 25v100h31l19 -78l18 78h29v-100h-19v77l-20 -77h-19l-20 77v-77h-19z" />
<glyph unicode="&#xa8;" horiz-adv-x="892" d="M100 1288q0 59 44 103.5t104 44.5q59 0 103 -44.5t44 -103.5t-44 -103t-103 -44t-103.5 44t-44.5 103zM514 1288q0 59 44 103.5t104 44.5q59 0 103 -44.5t44 -103.5t-44 -103t-103 -44t-103.5 44t-44.5 103z" />
<glyph unicode="&#xa9;" horiz-adv-x="1683" d="M82 721q0 156 59.5 295t163 241.5t241.5 163t296 60.5t296 -60.5t241.5 -163t163 -241.5t59.5 -295q0 -158 -59.5 -296t-163 -241.5t-242 -164t-295.5 -60.5q-158 0 -296 60.5t-241.5 164t-163 241.5t-59.5 296zM184 721q0 -135 52.5 -255t141.5 -209t209 -141.5 t255 -52.5t255 52.5t209 141.5t141 209t52 255t-52 253t-141 207t-209 140t-255 51t-255 -51t-209 -140t-141.5 -207t-52.5 -253zM328 721q0 113 44 206t118.5 159.5t174 103.5t207.5 37q78 0 152 -21.5t141 -60.5l58 4v-248q-55 88 -144.5 133t-197.5 45 q-78 0 -142.5 -26.5t-111.5 -73.5t-74 -112.5t-27 -145.5q4 -164 97.5 -263.5t257.5 -99.5q109 0 198.5 47.5t143.5 129.5v-246l-58 4q-66 -39 -140.5 -60.5t-152.5 -21.5q-109 0 -208 37t-173.5 104.5t-118.5 160.5t-44 208z" />
<glyph unicode="&#xaa;" horiz-adv-x="835" d="M82 780q57 61 104 118.5t87 118t75 123t72 134.5q37 -72 71.5 -134.5t74.5 -123t86 -117.5t106 -119q-59 -61 -105.5 -118.5t-86.5 -118t-74.5 -124t-71.5 -132.5q-37 70 -72 133t-75 123.5t-87 118t-104 118.5z" />
<glyph unicode="&#xab;" horiz-adv-x="935" d="M102 1114q178 -25 372 -23.5t360 23.5q-74 -127 -127.5 -235.5t-94.5 -217t-75.5 -227.5t-69.5 -264q-35 145 -68.5 264t-75.5 227.5t-94.5 217t-126.5 235.5z" />
<glyph unicode="&#xac;" horiz-adv-x="983" d="M-4 473q0 10 6 25.5t16 31.5q23 45 58 96.5t70.5 97.5t68.5 81t55 51q12 8 35 -37t46.5 -112.5t44 -140t30.5 -117.5q61 248 161.5 472t239.5 435q6 14 29 31.5t45.5 30t41 17.5t18.5 -3q0 -6 -3.5 -14.5t-7.5 -12.5q-74 -150 -136 -312.5t-112.5 -327.5t-89.5 -324.5 t-65 -301.5q-4 -18 -22.5 -35.5t-43 -31t-49 -21.5t-41.5 -8q-16 0 -20 8q-23 59 -55.5 129t-65.5 132.5t-61.5 109.5t-43.5 63q-12 14 -36.5 10.5t-49 -13t-44 -14.5t-19.5 5z" />
<glyph unicode="&#xad;" horiz-adv-x="1564" d="M125 682v180h1341v-180h-1341z" />
<glyph unicode="&#xae;" horiz-adv-x="1685" d="M82 721q0 156 60.5 295t164 241.5t241.5 163t296 60.5q156 0 295 -60.5t241.5 -163t163 -241.5t60.5 -295q0 -158 -60.5 -296t-163 -241.5t-242 -164t-294.5 -60.5q-158 0 -296 60.5t-241.5 164t-164 241.5t-60.5 296zM186 721q0 -135 52.5 -255t141.5 -209t209 -141.5 t255 -52.5q133 0 248.5 50.5t207.5 136.5q-174 4 -301 87t-186 245q-23 4 -45.5 8t-44.5 14v-260l43 -78h-291l43 78v748l-43 77h170q86 27 180 27q78 0 150 -20.5t127 -60.5t88 -101.5t33 -141.5q0 -109 -52.5 -178t-138.5 -98q10 -29 23.5 -55.5t29.5 -53.5 q84 -129 254 -194q76 86 118 195.5t42 232.5q0 135 -51 253t-140 207t-209 140t-255 51t-255 -51t-209 -140t-141.5 -207t-52.5 -253zM723 616q6 0 12 -2t17 -2q49 0 96 13.5t85 41t60.5 70t22.5 97.5q0 111 -64.5 169t-169.5 54h-29.5t-29.5 -4v-437z" />
<glyph unicode="&#xaf;" d="M68 731q0 150 56 282t154.5 230t230.5 155.5t282 57.5t281.5 -57.5t230 -155.5t156 -230t57.5 -282t-57.5 -282t-156 -230t-230 -155.5t-281.5 -57.5t-282 57.5t-230.5 155.5t-154.5 230.5t-56 281.5zM164 731q0 -129 49 -242.5t135 -199.5t200 -135.5t243 -49.5 q131 0 244.5 49.5t197.5 135.5t133 199.5t49 242.5t-49 242.5t-133 198.5t-197.5 134.5t-244.5 49.5q-129 0 -243 -49.5t-200 -134.5t-135 -198.5t-49 -242.5zM207 731q0 119 46 224.5t126 184.5t185.5 124t226.5 45q119 0 225 -45t185 -124t125 -184.5t46 -224.5 q0 -121 -46 -227.5t-125 -185t-185 -125t-225 -46.5q-121 0 -226.5 46.5t-185.5 125t-126 185t-46 227.5zM330 664l112 -177q346 -80 699 0l110 177h-921zM451 1063l151 -189q4 -4 15.5 -0.5t23.5 9.5t20.5 12t8.5 8q-29 57 -47.5 118.5t-53.5 111.5q-6 8 -26.5 -0.5 t-42 -22.5t-38 -28.5t-11.5 -18.5zM463 457q20 -35 51 -74t73 -70.5t92.5 -53t111.5 -21.5q59 0 110 21.5t92 53t73 70.5t52 74q-164 -43 -326.5 -42t-328.5 42zM715 731h155l-77 187zM918 903q-4 -2 4 -8t19 -12t23.5 -9.5t18.5 0.5l147 189q4 4 -11 18.5t-36.5 28.5 t-42 22.5t-26.5 0.5q-39 -49 -55.5 -110.5t-40.5 -119.5zM1290 102v23h84v-23h-31v-77h-22v77h-31zM1384 25v100h31l19 -78l18 78h29v-100h-19v77l-20 -77h-19l-20 77v-77h-19z" />
<glyph unicode="&#xb0;" horiz-adv-x="577" d="M102 1348q0 39 15.5 74.5t43 63t62.5 43t76 15.5q39 0 75 -15.5t63.5 -43t43 -63t15.5 -74.5q0 -41 -15.5 -76t-43 -61.5t-63.5 -42t-75 -15.5q-41 0 -76 15.5t-62.5 42t-43 61.5t-15.5 76zM207 1348q0 -39 26.5 -66t65.5 -27q41 0 67.5 27t26.5 66q0 41 -26.5 67.5 t-67.5 26.5q-39 0 -65.5 -26.5t-26.5 -67.5z" />
<glyph unicode="&#xb1;" horiz-adv-x="1345" d="M102 180v142h498v366h-498v139h498v512h143v-512h500v-139h-500v-366h500v-142h-1141z" />
<glyph unicode="&#xb2;" d="M68 731q0 150 56 282t154.5 230t230.5 155.5t282 57.5t281.5 -57.5t230 -155.5t156 -230t57.5 -282t-57.5 -282t-156 -230t-230 -155.5t-281.5 -57.5t-282 57.5t-230.5 155.5t-154.5 230.5t-56 281.5zM164 731q0 -129 49 -242.5t135 -199.5t200 -135.5t243 -49.5 q131 0 244.5 49.5t197.5 135.5t133 199.5t49 242.5t-49 242.5t-133 198.5t-197.5 134.5t-244.5 49.5q-129 0 -243 -49.5t-200 -134.5t-135 -198.5t-49 -242.5zM207 731q0 119 46 224.5t126 184.5t185.5 124t226.5 45q119 0 225 -45t185 -124t125 -184.5t46 -224.5 q0 -121 -46 -227.5t-125 -185t-185 -125t-225 -46.5q-121 0 -226.5 46.5t-185.5 125t-126 185t-46 227.5zM330 664l112 -177q346 -80 699 0l110 177h-921zM451 1063l151 -189q4 -4 15.5 -0.5t23.5 9.5t20.5 12t8.5 8q-29 57 -47.5 118.5t-53.5 111.5q-6 8 -26.5 -0.5 t-42 -22.5t-38 -28.5t-11.5 -18.5zM463 457q20 -35 51 -74t73 -70.5t92.5 -53t111.5 -21.5q59 0 110 21.5t92 53t73 70.5t52 74q-164 -43 -326.5 -42t-328.5 42zM715 731h155l-77 187zM918 903q-4 -2 4 -8t19 -12t23.5 -9.5t18.5 0.5l147 189q4 4 -11 18.5t-36.5 28.5 t-42 22.5t-26.5 0.5q-39 -49 -55.5 -110.5t-40.5 -119.5zM1290 102v23h84v-23h-31v-77h-22v77h-31zM1384 25v100h31l19 -78l18 78h29v-100h-19v77l-20 -77h-19l-20 77v-77h-19z" />
<glyph unicode="&#xb3;" d="M68 731q0 150 56 282t154.5 230t230.5 155.5t282 57.5t281.5 -57.5t230 -155.5t156 -230t57.5 -282t-57.5 -282t-156 -230t-230 -155.5t-281.5 -57.5t-282 57.5t-230.5 155.5t-154.5 230.5t-56 281.5zM164 731q0 -129 49 -242.5t135 -199.5t200 -135.5t243 -49.5 q131 0 244.5 49.5t197.5 135.5t133 199.5t49 242.5t-49 242.5t-133 198.5t-197.5 134.5t-244.5 49.5q-129 0 -243 -49.5t-200 -134.5t-135 -198.5t-49 -242.5zM207 731q0 119 46 224.5t126 184.5t185.5 124t226.5 45q119 0 225 -45t185 -124t125 -184.5t46 -224.5 q0 -121 -46 -227.5t-125 -185t-185 -125t-225 -46.5q-121 0 -226.5 46.5t-185.5 125t-126 185t-46 227.5zM330 664l112 -177q346 -80 699 0l110 177h-921zM451 1063l151 -189q4 -4 15.5 -0.5t23.5 9.5t20.5 12t8.5 8q-29 57 -47.5 118.5t-53.5 111.5q-6 8 -26.5 -0.5 t-42 -22.5t-38 -28.5t-11.5 -18.5zM463 457q20 -35 51 -74t73 -70.5t92.5 -53t111.5 -21.5q59 0 110 21.5t92 53t73 70.5t52 74q-164 -43 -326.5 -42t-328.5 42zM715 731h155l-77 187zM918 903q-4 -2 4 -8t19 -12t23.5 -9.5t18.5 0.5l147 189q4 4 -11 18.5t-36.5 28.5 t-42 22.5t-26.5 0.5q-39 -49 -55.5 -110.5t-40.5 -119.5zM1290 102v23h84v-23h-31v-77h-22v77h-31zM1384 25v100h31l19 -78l18 78h29v-100h-19v77l-20 -77h-19l-20 77v-77h-19z" />
<glyph unicode="&#xb4;" horiz-adv-x="794" d="M152 1174l278 284q45 45 77 63.5t60 18.5q31 0 61.5 -26.5t30.5 -67.5q0 -35 -18 -60.5t-70 -44.5l-327 -167h-92z" />
<glyph unicode="&#xb6;" d="M68 731q0 150 56 282t154.5 230t230.5 155.5t282 57.5t281.5 -57.5t230 -155.5t156 -230t57.5 -282t-57.5 -282t-156 -230t-230 -155.5t-281.5 -57.5t-282 57.5t-230.5 155.5t-154.5 230.5t-56 281.5zM164 731q0 -129 49 -242.5t135 -199.5t200 -135.5t243 -49.5 q131 0 244.5 49.5t197.5 135.5t133 199.5t49 242.5t-49 242.5t-133 198.5t-197.5 134.5t-244.5 49.5q-129 0 -243 -49.5t-200 -134.5t-135 -198.5t-49 -242.5zM207 731q0 119 46 224.5t126 184.5t185.5 124t226.5 45q119 0 225 -45t185 -124t125 -184.5t46 -224.5 q0 -121 -46 -227.5t-125 -185t-185 -125t-225 -46.5q-121 0 -226.5 46.5t-185.5 125t-126 185t-46 227.5zM330 664l112 -177q346 -80 699 0l110 177h-921zM451 1063l151 -189q4 -4 15.5 -0.5t23.5 9.5t20.5 12t8.5 8q-29 57 -47.5 118.5t-53.5 111.5q-6 8 -26.5 -0.5 t-42 -22.5t-38 -28.5t-11.5 -18.5zM463 457q20 -35 51 -74t73 -70.5t92.5 -53t111.5 -21.5q59 0 110 21.5t92 53t73 70.5t52 74q-164 -43 -326.5 -42t-328.5 42zM715 731h155l-77 187zM918 903q-4 -2 4 -8t19 -12t23.5 -9.5t18.5 0.5l147 189q4 4 -11 18.5t-36.5 28.5 t-42 22.5t-26.5 0.5q-39 -49 -55.5 -110.5t-40.5 -119.5zM1290 102v23h84v-23h-31v-77h-22v77h-31zM1384 25v100h31l19 -78l18 78h29v-100h-19v77l-20 -77h-19l-20 77v-77h-19z" />
<glyph unicode="&#xb7;" d="M68 731q0 150 56 282t154.5 230t230.5 155.5t282 57.5t281.5 -57.5t230 -155.5t156 -230t57.5 -282t-57.5 -282t-156 -230t-230 -155.5t-281.5 -57.5t-282 57.5t-230.5 155.5t-154.5 230.5t-56 281.5zM164 731q0 -129 49 -242.5t135 -199.5t200 -135.5t243 -49.5 q131 0 244.5 49.5t197.5 135.5t133 199.5t49 242.5t-49 242.5t-133 198.5t-197.5 134.5t-244.5 49.5q-129 0 -243 -49.5t-200 -134.5t-135 -198.5t-49 -242.5zM207 731q0 119 46 224.5t126 184.5t185.5 124t226.5 45q119 0 225 -45t185 -124t125 -184.5t46 -224.5 q0 -121 -46 -227.5t-125 -185t-185 -125t-225 -46.5q-121 0 -226.5 46.5t-185.5 125t-126 185t-46 227.5zM330 664l112 -177q346 -80 699 0l110 177h-921zM451 1063l151 -189q4 -4 15.5 -0.5t23.5 9.5t20.5 12t8.5 8q-29 57 -47.5 118.5t-53.5 111.5q-6 8 -26.5 -0.5 t-42 -22.5t-38 -28.5t-11.5 -18.5zM463 457q20 -35 51 -74t73 -70.5t92.5 -53t111.5 -21.5q59 0 110 21.5t92 53t73 70.5t52 74q-164 -43 -326.5 -42t-328.5 42zM715 731h155l-77 187zM918 903q-4 -2 4 -8t19 -12t23.5 -9.5t18.5 0.5l147 189q4 4 -11 18.5t-36.5 28.5 t-42 22.5t-26.5 0.5q-39 -49 -55.5 -110.5t-40.5 -119.5zM1290 102v23h84v-23h-31v-77h-22v77h-31zM1384 25v100h31l19 -78l18 78h29v-100h-19v77l-20 -77h-19l-20 77v-77h-19z" />
<glyph unicode="&#xb8;" horiz-adv-x="892" d="M69 -399.5q9 24.5 25.5 47t32.5 37t23 4.5q12 -23 40.5 -46.5t64.5 -44t75 -32.5t73 -12q57 0 89 25.5t32 76.5q0 43 -20.5 67.5t-51 35t-64.5 12.5t-60 2v227h78v-131q49 0 118.5 -8t134 -29.5t109.5 -60t45 -95.5t-42 -95t-101.5 -60.5t-123 -32.5t-108.5 -10 q-49 0 -104 6t-106.5 18.5t-92.5 28.5t-65 37q-10 8 -1 32.5z" />
<glyph unicode="&#xb9;" horiz-adv-x="2983" d="M57 1493h887v-227l-115 92h-530v-354q51 31 125 49t151 18q82 0 164 -22.5t146.5 -73.5t104.5 -137t40 -211q0 -100 -38 -181t-105.5 -138.5t-160.5 -88.5t-202 -31q-98 0 -178 29t-138 78t-94 112.5t-46 133.5l2 12l10 -12q66 -117 181.5 -174.5t240.5 -57.5 q92 0 157.5 30t105.5 79t58.5 110.5t18.5 122.5q0 94 -55.5 173t-172.5 110q-43 10 -106.5 11t-133 -9t-138 -31.5t-117.5 -58.5v534zM991 0l674 1360l-72 131h316l-674 -1360l72 -131h-316zM1757 428q0 74 24.5 143.5t70.5 127t113 100.5t151 65q-78 29 -119 74 q-51 57 -45 131t59 127q49 51 134 80t186 29q98 0 183 -29t134 -80q53 -53 59.5 -127t-45.5 -131q-41 -45 -118 -74q84 -23 150.5 -65.5t112.5 -100t70.5 -127t24.5 -143.5q0 -111 -45 -197t-123 -146t-182.5 -91t-220.5 -31q-117 0 -221.5 31t-183.5 91t-124 146t-45 197z M1950 436q0 -78 28.5 -140.5t79.5 -106.5t121 -67.5t152 -23.5q80 0 149.5 23.5t120.5 67.5t80 106.5t29 140.5t-29 145.5t-80 117t-121 77t-149 27.5q-82 0 -152 -27.5t-121 -77t-79.5 -117t-28.5 -145.5zM2138 1049q0 -31 15.5 -57.5t42 -46t61.5 -32t74 -12.5t73.5 12.5 t60 32t41 46t15.5 57.5q0 59 -50 103t-140 44q-92 0 -142.5 -44t-50.5 -103z" />
<glyph unicode="&#xba;" horiz-adv-x="2684" d="M82 1278v215h1053q-35 -33 -68 -66.5t-66 -68.5q-233 -268 -413 -596t-285 -682l-10 -14l-2 14q14 164 46 328.5t88 326.5t141 319.5t206 309.5h-594zM610 0l766 1360l-71 131h315l-766 -1360l72 -131h-316zM1458 428q0 74 24.5 143.5t70.5 127t113 100.5t151 65 q-78 29 -119 74q-51 57 -45 131t59 127q49 51 134 80t186 29q98 0 183 -29t134 -80q53 -53 59.5 -127t-45.5 -131q-41 -45 -118 -74q84 -23 150.5 -65.5t112.5 -100t70.5 -127t24.5 -143.5q0 -111 -45 -197t-123 -146t-182.5 -91t-220.5 -31q-117 0 -221.5 31t-183.5 91 t-124 146t-45 197zM1651 436q0 -78 28.5 -140.5t79.5 -106.5t121 -67.5t152 -23.5q80 0 149.5 23.5t120.5 67.5t79.5 106.5t28.5 140.5t-28.5 145.5t-79.5 117t-121 77t-149 27.5q-82 0 -152 -27.5t-121 -77t-79.5 -117t-28.5 -145.5zM1839 1049q0 -31 15.5 -57.5t42 -46 t61.5 -32t74 -12.5t73.5 12.5t60 32t41 46t15.5 57.5q0 59 -50 103t-140 44q-92 0 -142.5 -44t-50.5 -103z" />
<glyph unicode="&#xbb;" horiz-adv-x="3911" d="M82 225l61 111v1007l-61 52l250 114v-1173l61 -111h-311zM481 1493h887v-227l-115 92h-530v-354q51 31 125 49t151 18q82 0 164 -22.5t146.5 -73.5t104.5 -137t40 -211q0 -100 -38 -181t-105.5 -138.5t-160.5 -88.5t-202 -31q-98 0 -178 29t-138.5 78t-94 112.5 t-45.5 133.5l2 12l10 -12q66 -117 181.5 -174.5t240.5 -57.5q92 0 157.5 30t105.5 79t58.5 110.5t18.5 122.5q0 94 -55.5 173t-172.5 110q-43 10 -106.5 11t-133 -9t-138 -31.5t-117.5 -58.5v534zM1372 0l707 1360l-72 131h315l-706 -1360l72 -131h-316zM2337 0l61 111v1007 l-61 51l250 115v-1173l61 -111h-311zM2767 668q0 100 34.5 212.5t107.5 207t182.5 156t259.5 61.5q174 0 278.5 -87.5t126.5 -234.5l-2 -12l-10 12q-33 66 -78 105.5t-96.5 62.5t-103.5 30t-97 7q-104 -4 -186 -48t-135.5 -124t-77 -191.5t-11.5 -249.5q14 61 54.5 112.5 t95.5 89.5t122.5 58.5t139.5 18.5q104 -4 188 -33.5t144.5 -85t93.5 -138.5t33 -189q0 -90 -37 -171t-102.5 -141.5t-156.5 -96.5t-200 -36t-211 40t-181 125t-127 218t-48 322zM3027 403q0 -63 23.5 -118.5t65.5 -96.5t98.5 -64.5t121.5 -23.5q63 0 119.5 23.5t98.5 64.5 t65.5 96.5t23.5 118.5q0 66 -23.5 122.5t-65.5 98.5t-98 66.5t-120 24.5q-66 0 -122 -24.5t-98 -66.5t-65.5 -98.5t-23.5 -122.5z" />
<glyph unicode="&#xbc;" horiz-adv-x="2271" d="M82 227l61 111v1008l-61 51l250 114v-1173l61 -111h-311zM393 0l727 1360l-71 131h315l-727 -1360l72 -131h-316zM1053 418l614 850h338l-63 -117v-641h253l-88 -203l-73 68h-92v-266l63 -109h-309l57 109v266h-676zM1288 510h441v627z" />
<glyph unicode="&#xbd;" horiz-adv-x="2260" d="M82 227l61 111v1008l-61 51l250 114v-1173l61 -111h-311zM393 0l707 1360l-72 131h315l-706 -1360l72 -131h-316zM1278 0v63q72 49 155 106.5t162.5 123t151.5 139.5t123 154q63 98 80.5 204.5t-15 196.5t-117.5 148.5t-229 58.5q-66 0 -141.5 -23.5t-147.5 -66.5l-14 -4 l6 12q29 37 74 71t101.5 59.5t120 40.5t128.5 15q45 0 95.5 -6t99.5 -20.5t93 -39t81 -63.5q53 -57 77.5 -128.5t23.5 -147.5t-23.5 -150.5t-63.5 -136.5q-43 -68 -103.5 -129t-129 -117.5t-140 -106.5t-139.5 -93h481l107 102v-262h-897z" />
<glyph unicode="&#xbe;" horiz-adv-x="2838" d="M31 475v12l10 -6q76 -86 180.5 -134t224.5 -50q76 0 141.5 17.5t114 57.5t76 102.5t27.5 152.5q0 78 -38 137t-98.5 99t-134 61.5t-143.5 21.5l-8 6l8 6q96 12 166 47t113 81.5t57 99.5t0 102q-23 76 -99.5 111t-171 35t-186.5 -28t-145 -75l-14 -4l6 12 q92 104 207.5 147.5t230.5 43.5q74 0 140.5 -12.5t120.5 -42t89 -79.5t45 -126q6 -57 -8 -105.5t-46 -86.5t-78 -67.5t-99 -47.5q55 -10 111.5 -38t101.5 -73t72.5 -108.5t27.5 -143.5q0 -63 -16.5 -115.5t-43 -93.5t-62.5 -72.5t-72 -52.5q-102 -57 -234.5 -72.5 t-253.5 13.5q-51 10 -100 34.5t-92 59.5t-76 79t-51 95zM961 0l727 1360l-72 131h315l-727 -1360l72 -131h-315zM1620 418l614 850h338l-63 -117v-641h254l-88 -203l-74 68h-92v-266l63 -109h-309l57 109v266h-675zM1855 510h441v627z" />
<glyph unicode="&#xbf;" horiz-adv-x="1290" d="M45 416q0 141 60.5 235t154.5 147.5t208 66t218 -8.5v195h209v-389q-106 43 -217 52t-201 -21.5t-147.5 -105.5t-57.5 -200q0 -72 29 -131t82 -104.5t127 -70t164 -24.5q205 0 341 82t222 248v-475l-90 102q-98 -68 -222 -97.5t-259 -29.5q-111 0 -221.5 28t-199.5 90.5 t-144.5 162.5t-55.5 248zM639 1303q0 59 45 104t104 45t104.5 -45t45.5 -104t-45 -104.5t-105 -45.5q-59 0 -104 45t-45 105z" />
<glyph unicode="&#xc0;" horiz-adv-x="1576" d="M20 0l119 131l547 1360h199l553 -1360l118 -131h-450l84 131l-150 375h-551l-143 -375l84 -131h-410zM328 1866q0 41 30.5 67.5t61.5 26.5q29 0 59.5 -18.5t75.5 -63.5l281 -285h-95l-325 168q-53 18 -70.5 44t-17.5 61zM553 664h424l-215 557z" />
<glyph unicode="&#xc1;" horiz-adv-x="1576" d="M20 0l119 131l547 1360h199l553 -1360l118 -131h-450l84 131l-150 375h-551l-143 -375l84 -131h-410zM553 664h424l-215 557zM748 1593l278 285q45 45 77 63.5t60 18.5q31 0 61.5 -26.5t30.5 -67.5q0 -35 -18 -60.5t-70 -44.5l-327 -168h-92z" />
<glyph unicode="&#xc2;" horiz-adv-x="1576" d="M20 0l119 131l547 1360h199l553 -1360l118 -131h-450l84 131l-150 375h-551l-143 -375l84 -131h-410zM477 1573l225 254h168l230 -254h-90l-224 127l-225 -127h-84zM553 664h424l-215 557z" />
<glyph unicode="&#xc3;" horiz-adv-x="1576" d="M20 0l119 131l547 1360h199l553 -1360l118 -131h-450l84 131l-150 375h-551l-143 -375l84 -131h-410zM471 1628q27 59 59.5 105.5t61.5 64.5q33 18 76 25.5t84 -0.5q18 -4 40.5 -14.5t46 -25t45 -28.5t38.5 -24q20 -6 47.5 -13.5t50.5 4.5q8 2 25.5 21.5t29.5 42.5 q4 10 17.5 11t27 -4t23.5 -12.5t8 -13.5q-25 -61 -59.5 -104t-65.5 -66q-33 -18 -75 -25t-81 -1q-27 4 -54.5 21.5t-54 36t-52 32.5t-50.5 14q-80 10 -118 -67q-10 -10 -23.5 -12.5t-25 0.5t-18.5 11.5t-3 20.5zM553 664h424l-215 557z" />
<glyph unicode="&#xc4;" horiz-adv-x="1576" d="M20 0l119 131l547 1360h199l553 -1360l118 -131h-450l84 131l-150 375h-551l-143 -375l84 -131h-410zM432 1720q0 59 44 103.5t104 44.5q59 0 103 -44.5t44 -103.5t-44 -103t-103 -44t-103.5 44t-44.5 103zM553 664h424l-215 557zM846 1720q0 59 44 103.5t103 44.5 t103.5 -44.5t44.5 -103.5t-44 -103t-104 -44q-59 0 -103 44t-44 103z" />
<glyph unicode="&#xc5;" horiz-adv-x="1576" d="M20 0l119 131l547 1360h199l553 -1360l118 -131h-450l84 131l-150 375h-551l-143 -375l84 -131h-410zM553 664h424l-215 557zM596 1759q0 78 55.5 133.5t132.5 55.5q78 0 133.5 -55.5t55.5 -133.5t-55.5 -132t-133.5 -54t-133 54t-55 132zM696 1759q0 -37 26 -62.5 t62 -25.5q39 0 64.5 25.5t25.5 62.5q0 39 -25.5 64.5t-64.5 25.5q-37 0 -62.5 -25.5t-25.5 -64.5z" />
<glyph unicode="&#xc6;" horiz-adv-x="2492" d="M0 0l172 131l946 1208l-41 152h1264v-266l-133 108h-748v-362h596l127 71v-303l-127 72h-596v-653h813l158 149v-307h-1346l148 131v375h-561l-293 -375l31 -131h-410zM799 664h434v557z" />
<glyph unicode="&#xc7;" horiz-adv-x="1562" d="M70 745q0 141 55 282.5t162.5 253.5t265.5 182.5t362 70.5q139 0 255 -40t200 -87l90 102v-448q-51 80 -113.5 139.5t-132 98t-143.5 58t-143 19.5q-147 0 -260 -56t-191 -146.5t-118 -203t-40 -225.5t40 -225t118 -202.5t190.5 -146.5t260.5 -56q70 0 143.5 18.5t143 57 t132 98t113.5 139.5v-448l-90 104q-78 -47 -185.5 -84t-236.5 -43v-109q49 0 119 -8t134.5 -29.5t109.5 -59.5t45 -95t-42 -95t-101.5 -60.5t-123 -33t-108.5 -10.5q-49 0 -104.5 6.5t-106.5 18.5t-92 28.5t-66 36.5q-10 8 -0.5 33t25.5 47.5t32.5 36.5t22.5 4 q12 -23 41 -46t65 -43.5t74.5 -33t73.5 -12.5q57 0 89 25.5t32 76.5q0 43 -20.5 68t-51 35t-64.5 12t-61 2v205q-195 8 -344 81t-250.5 184.5t-153.5 248.5t-52 274z" />
<glyph unicode="&#xc8;" horiz-adv-x="1392" d="M61 0l72 131v1229l-72 131h1182v-266l-133 108h-758v-362h606l127 71v-303l-127 72h-606v-653h824l157 149v-307h-1272zM260 1866q0 41 31 67.5t61 26.5q29 0 59.5 -18.5t75.5 -63.5l281 -285h-94l-326 168q-53 18 -70.5 44t-17.5 61z" />
<glyph unicode="&#xc9;" horiz-adv-x="1392" d="M61 0l72 131v1229l-72 131h1182v-266l-133 108h-758v-362h606l127 71v-303l-127 72h-606v-653h824l157 149v-307h-1272zM641 1593l279 285q45 45 76.5 63.5t60.5 18.5q31 0 61.5 -26.5t30.5 -67.5q0 -35 -18.5 -60.5t-69.5 -44.5l-328 -168h-92z" />
<glyph unicode="&#xca;" horiz-adv-x="1392" d="M61 0l72 131v1229l-72 131h1182v-266l-133 108h-758v-362h606l127 71v-303l-127 72h-606v-653h824l157 149v-307h-1272zM420 1593l225 254h168l229 -254h-90l-223 127l-225 -127h-84z" />
<glyph unicode="&#xcb;" horiz-adv-x="1392" d="M61 0l72 131v1229l-72 131h1182v-266l-133 108h-758v-362h606l127 71v-303l-127 72h-606v-653h824l157 149v-307h-1272zM360 1720q0 59 44.5 103.5t103.5 44.5t103 -44.5t44 -103.5t-44 -103t-103 -44t-103.5 44t-44.5 103zM774 1720q0 59 44 103.5t104 44.5 q59 0 103 -44.5t44 -103.5t-44 -103t-103 -44t-103.5 44t-44.5 103z" />
<glyph unicode="&#xcc;" horiz-adv-x="524" d="M-213 1866q0 41 30.5 67.5t61.5 26.5q29 0 59.5 -18.5t75.5 -63.5l281 -285h-94l-326 168q-53 18 -70.5 44t-17.5 61zM80 0l72 131v1229l-72 131h364l-71 -131v-1229l71 -131h-364z" />
<glyph unicode="&#xcd;" horiz-adv-x="524" d="M80 0l72 131v1229l-72 131h364l-71 -131v-1229l71 -131h-364zM223 1593l279 285q45 45 76.5 63.5t60.5 18.5q31 0 61.5 -26.5t30.5 -67.5q0 -35 -18.5 -60.5t-69.5 -44.5l-328 -168h-92z" />
<glyph unicode="&#xce;" horiz-adv-x="524" d="M-47 1573l225 254h168l229 -254h-90l-223 127l-225 -127h-84zM80 0l72 131v1229l-72 131h364l-71 -131v-1229l71 -131h-364z" />
<glyph unicode="&#xcf;" horiz-adv-x="524" d="M-94 1720q0 59 44 103.5t103 44.5t103.5 -44.5t44.5 -103.5t-44 -103t-104 -44q-59 0 -103 44t-44 103zM80 0l72 131v1229l-72 131h364l-71 -131v-1229l71 -131h-364zM319 1720q0 59 44.5 103.5t103.5 44.5t103 -44.5t44 -103.5t-44 -103t-103 -44t-103.5 44t-44.5 103z " />
<glyph unicode="&#xd0;" horiz-adv-x="1024" d="M82 643v139h334v228h-334v139h334v342h143v-342h342v-139h-342v-228h342v-139h-819z" />
<glyph unicode="&#xd1;" horiz-adv-x="1562" d="M61 0l72 131v1229l-72 131h342l807 -1030v899l-71 131h364l-71 -131v-1507l-1078 1374v-1096l72 -131h-365zM492 1628q27 59 59.5 105.5t60.5 64.5q33 18 76 25.5t84 -0.5q18 -4 41 -14.5t46.5 -25t45 -28.5t37.5 -24q20 -6 48 -13.5t50 4.5q8 2 25.5 21.5t30.5 42.5 q4 10 17 11t26.5 -4t23.5 -12.5t8 -13.5q-25 -61 -59.5 -104t-64.5 -66q-33 -18 -75 -25t-81 -1q-27 4 -54.5 21.5t-54 36t-52 32.5t-50.5 14q-80 10 -119 -67q-10 -10 -23.5 -12.5t-24.5 0.5t-18.5 11.5t-2.5 20.5z" />
<glyph unicode="&#xd2;" horiz-adv-x="1806" d="M70 745q0 156 66.5 298.5t180 252t265 174t321.5 64.5t321.5 -64.5t265.5 -174t180.5 -252t66.5 -298.5q0 -158 -66.5 -300t-180.5 -250.5t-265.5 -173t-321.5 -64.5t-321.5 64.5t-265 174t-180 252t-66.5 297.5zM319 745q0 -129 44.5 -243.5t122 -200.5t184 -136 t233.5 -50t233.5 50t184.5 136t122 200.5t44 243.5t-44 244t-122 201t-184.5 136t-233.5 50t-233.5 -50t-184 -136t-122 -201t-44.5 -244zM428 1868q0 41 30.5 67.5t61.5 26.5q29 0 59.5 -18.5t75.5 -63.5l281 -285h-94l-326 168q-53 18 -70.5 44t-17.5 61z" />
<glyph unicode="&#xd3;" horiz-adv-x="1806" d="M70 745q0 156 66.5 298.5t180 252t265 174t321.5 64.5t321.5 -64.5t265.5 -174t180.5 -252t66.5 -298.5q0 -158 -66.5 -300t-180.5 -250.5t-265.5 -173t-321.5 -64.5t-321.5 64.5t-265 174t-180 252t-66.5 297.5zM319 745q0 -129 44.5 -243.5t122 -200.5t184 -136 t233.5 -50t233.5 50t184.5 136t122 200.5t44 243.5t-44 244t-122 201t-184.5 136t-233.5 50t-233.5 -50t-184 -136t-122 -201t-44.5 -244zM852 1595l278 285q45 45 77 63.5t61 18.5q31 0 61.5 -26.5t30.5 -67.5q0 -35 -18.5 -60.5t-69.5 -44.5l-328 -168h-92z" />
<glyph unicode="&#xd4;" horiz-adv-x="1806" d="M70 745q0 156 66.5 298.5t180 252t265 174t321.5 64.5t321.5 -64.5t265.5 -174t180.5 -252t66.5 -298.5q0 -158 -66.5 -300t-180.5 -250.5t-265.5 -173t-321.5 -64.5t-321.5 64.5t-265 174t-180 252t-66.5 297.5zM319 745q0 -129 44.5 -243.5t122 -200.5t184 -136 t233.5 -50t233.5 50t184.5 136t122 200.5t44 243.5t-44 244t-122 201t-184.5 136t-233.5 50t-233.5 -50t-184 -136t-122 -201t-44.5 -244zM592 1573l225 254h168l229 -254h-90l-223 127l-225 -127h-84z" />
<glyph unicode="&#xd5;" horiz-adv-x="1806" d="M70 745q0 156 66.5 298.5t180 252t265 174t321.5 64.5t321.5 -64.5t265.5 -174t180.5 -252t66.5 -298.5q0 -158 -66.5 -300t-180.5 -250.5t-265.5 -173t-321.5 -64.5t-321.5 64.5t-265 174t-180 252t-66.5 297.5zM319 745q0 -129 44.5 -243.5t122 -200.5t184 -136 t233.5 -50t233.5 50t184.5 136t122 200.5t44 243.5t-44 244t-122 201t-184.5 136t-233.5 50t-233.5 -50t-184 -136t-122 -201t-44.5 -244zM594 1649q27 59 59.5 105t61.5 65q33 18 76 25t83 -1q18 -4 41 -14t46.5 -24.5t45 -29t37.5 -24.5q20 -6 48 -13t51 5q8 2 25.5 21.5 t29.5 41.5q4 10 17.5 11.5t26.5 -4t23.5 -12.5t8.5 -13q-25 -61 -59.5 -104.5t-65.5 -65.5q-33 -18 -75 -25.5t-81 -1.5q-27 4 -54.5 21.5t-54 36t-52 33t-50.5 14.5q-80 10 -118 -68q-10 -10 -23.5 -12t-25 1t-18.5 11t-3 21z" />
<glyph unicode="&#xd6;" horiz-adv-x="1806" d="M70 745q0 156 66.5 298.5t180 252t265 174t321.5 64.5t321.5 -64.5t265.5 -174t180.5 -252t66.5 -298.5q0 -158 -66.5 -300t-180.5 -250.5t-265.5 -173t-321.5 -64.5t-321.5 64.5t-265 174t-180 252t-66.5 297.5zM319 745q0 -129 44.5 -243.5t122 -200.5t184 -136 t233.5 -50t233.5 50t184.5 136t122 200.5t44 243.5t-44 244t-122 201t-184.5 136t-233.5 50t-233.5 -50t-184 -136t-122 -201t-44.5 -244zM551 1720q0 59 44 103.5t103 44.5t103.5 -44.5t44.5 -103.5t-44 -103t-104 -44q-59 0 -103 44t-44 103zM965 1720q0 59 44 103.5 t103 44.5t103.5 -44.5t44.5 -103.5t-44.5 -103t-103.5 -44t-103 44t-44 103z" />
<glyph unicode="&#xd7;" horiz-adv-x="1085" d="M80 403l366 361l-366 364l106 107l363 -367l362 365l107 -105l-365 -364l365 -361l-105 -104l-364 360l-365 -362z" />
<glyph unicode="&#xd8;" horiz-adv-x="2752" d="M70 745q0 156 66.5 298.5t180 252t265 174t321.5 64.5q82 0 165 -12.5t160 -38t146.5 -67.5t124.5 -103v178h1102v-266l-133 108h-748v-362h596l127 71v-303l-127 72h-596v-653h813l158 149v-307h-1192v178q-55 -61 -124.5 -103t-146.5 -67.5t-160 -38t-165 -12.5 q-170 0 -321.5 64.5t-265 174t-180 252t-66.5 297.5zM319 745q0 -129 44.5 -243.5t122 -200.5t184 -136t233.5 -50t233.5 50t184.5 136t122 200.5t44 243.5t-44 244t-122 201t-184.5 136t-233.5 50t-233.5 -50t-184 -136t-122 -201t-44.5 -244z" />
<glyph unicode="&#xd9;" horiz-adv-x="1566" d="M61 1491h365l-72 -131v-836q0 -78 23.5 -149.5t74 -125.5t128 -86t186.5 -32q111 0 193.5 28.5t139 81t85 124t28.5 159.5v836l-71 131h364l-71 -131v-858q0 -92 -38 -188.5t-118 -174.5t-207 -128t-305 -50t-299 48t-194.5 125t-106.5 174.5t-33 193.5v858zM389 1845 q0 41 31 67.5t61 26.5q29 0 59.5 -18t75.5 -63l281 -285h-94l-326 168q-53 18 -70.5 43.5t-17.5 60.5z" />
<glyph unicode="&#xda;" horiz-adv-x="1566" d="M61 1491h365l-72 -131v-836q0 -78 23.5 -149.5t74 -125.5t128 -86t186.5 -32q111 0 193.5 28.5t139 81t85 124t28.5 159.5v836l-71 131h364l-71 -131v-858q0 -92 -38 -188.5t-118 -174.5t-207 -128t-305 -50t-299 48t-194.5 125t-106.5 174.5t-33 193.5v858zM743 1573 l279 285q45 45 76.5 63t60.5 18q31 0 61.5 -26.5t30.5 -67.5q0 -35 -18.5 -60.5t-69.5 -43.5l-327 -168h-93z" />
<glyph unicode="&#xdb;" horiz-adv-x="1566" d="M61 1491h365l-72 -131v-836q0 -78 23.5 -149.5t74 -125.5t128 -86t186.5 -32q111 0 193.5 28.5t139 81t85 124t28.5 159.5v836l-71 131h364l-71 -131v-858q0 -92 -38 -188.5t-118 -174.5t-207 -128t-305 -50t-299 48t-194.5 125t-106.5 174.5t-33 193.5v858zM475 1573 l225 254h168l230 -254h-90l-224 127l-225 -127h-84z" />
<glyph unicode="&#xdc;" horiz-adv-x="1566" d="M61 1491h365l-72 -131v-836q0 -78 23.5 -149.5t74 -125.5t128 -86t186.5 -32q111 0 193.5 28.5t139 81t85 124t28.5 159.5v836l-71 131h364l-71 -131v-858q0 -92 -38 -188.5t-118 -174.5t-207 -128t-305 -50t-299 48t-194.5 125t-106.5 174.5t-33 193.5v858zM440 1720 q0 59 44 103.5t104 44.5q59 0 103 -44.5t44 -103.5t-44 -103t-103 -44t-103.5 44t-44.5 103zM854 1720q0 59 44 103.5t103 44.5t103.5 -44.5t44.5 -103.5t-44 -103t-104 -44q-59 0 -103 44t-44 103z" />
<glyph unicode="&#xdd;" horiz-adv-x="1624" d="M20 1491h510l-92 -131l400 -653l407 653l-102 131h461l-146 -131l-524 -807v-422l72 -131h-373l72 131v438l-531 791zM803 1573l278 285q45 45 77 63t61 18q31 0 61.5 -26.5t30.5 -67.5q0 -35 -18.5 -60.5t-69.5 -43.5l-328 -168h-92z" />
<glyph unicode="&#xde;" horiz-adv-x="1011" d="M72 -39v381q35 -63 85 -110.5t105 -78t113.5 -45t109.5 -14.5q59 0 111.5 14.5t89.5 44t54.5 76.5t7.5 115q-10 61 -55.5 98t-111 61.5t-140 44t-143.5 45t-123 64.5t-75 103q-18 57 -7 118.5t52 111.5t114 82t177 32q94 0 156.5 -24.5t112.5 -51.5l90 72v-322 q-25 43 -67 76t-90 56.5t-95 34.5t-82 11q-92 0 -130 -33.5t-38 -74.5q0 -45 41 -75t110 -48q76 -20 166 -46t169 -66t135.5 -99.5t64.5 -151.5q10 -113 -31 -190.5t-109.5 -125.5t-153.5 -68.5t-161 -18.5q-125 2 -218 26.5t-146 59.5zM186 1440h84l226 -127l223 127h90 l-229 -254h-168z" />
<glyph unicode="&#xdf;" horiz-adv-x="1353" d="M70 1079q-12 115 35 200t133 142.5t197.5 85t228.5 27.5q66 0 122 -7t106 -20.5t98 -32t97 -40.5l74 75v-403q-51 86 -108.5 141.5t-120 86t-128 43t-128.5 12.5q-51 0 -117.5 -12.5t-127 -39t-102.5 -70.5t-42 -108q0 -70 57 -125t162 -71q72 -12 155.5 -23.5t168.5 -31 t165 -50.5t142.5 -80t103.5 -122t47 -175q4 -135 -51 -233t-147.5 -163t-208 -96.5t-230.5 -31.5q-135 0 -256 37t-211 98l-104 -112v530q43 -86 98 -157.5t125 -124t155 -81t187 -28.5q90 0 165 23.5t128 66.5t82 102.5t29 130.5q0 86 -48.5 143.5t-125 92.5t-172 55.5 t-189.5 32.5q-61 8 -135 26.5t-139.5 54.5t-113.5 92t-56 140zM360 1870h84l226 -127l223 127h90l-229 -254h-168z" />
<glyph unicode="&#xe0;" horiz-adv-x="1310" d="M68 399q0 125 58 217.5t152.5 147.5t211 70.5t231.5 -15.5q-63 135 -201.5 185.5t-337.5 1.5q29 20 69 37.5t83 29.5t87 18.5t83 6.5q61 0 125.5 -13.5t123 -41t105.5 -69.5t76 -102l358 -743l109 -129h-311l-105 227q-29 -68 -78 -119t-110.5 -84.5t-131 -50 t-137.5 -16.5q-88 0 -171 29.5t-147.5 87t-103 139.5t-38.5 186zM205 1458q0 41 30.5 67.5t61.5 26.5q29 0 59.5 -18t75.5 -64l281 -284h-95l-325 168q-53 18 -70.5 43.5t-17.5 60.5zM301 418q0 -59 23.5 -112.5t64.5 -94.5t96.5 -65.5t120.5 -24.5q61 0 116.5 21.5 t98.5 58.5t68.5 85t25.5 101l-129 270q-70 45 -170 45q-66 0 -123 -21.5t-100 -60t-67.5 -90t-24.5 -112.5z" />
<glyph unicode="&#xe1;" horiz-adv-x="1310" d="M68 399q0 125 58 217.5t152.5 147.5t211 70.5t231.5 -15.5q-63 135 -201.5 185.5t-337.5 1.5q29 20 69 37.5t83 29.5t87 18.5t83 6.5q61 0 125.5 -13.5t123 -41t105.5 -69.5t76 -102l358 -743l109 -129h-311l-105 227q-29 -68 -78 -119t-110.5 -84.5t-131 -50 t-137.5 -16.5q-88 0 -171 29.5t-147.5 87t-103 139.5t-38.5 186zM301 418q0 -59 23.5 -112.5t64.5 -94.5t96.5 -65.5t120.5 -24.5q61 0 116.5 21.5t98.5 58.5t68.5 85t25.5 101l-129 270q-70 45 -170 45q-66 0 -123 -21.5t-100 -60t-67.5 -90t-24.5 -112.5zM532 1186 l279 284q45 45 77 63.5t60 18.5q31 0 61.5 -26.5t30.5 -67.5q0 -35 -18 -60.5t-70 -43.5l-327 -168h-93z" />
<glyph unicode="&#xe2;" horiz-adv-x="1310" d="M68 399q0 125 58 217.5t152.5 147.5t211 70.5t231.5 -15.5q-63 135 -201.5 185.5t-337.5 1.5q29 20 69 37.5t83 29.5t87 18.5t83 6.5q61 0 125.5 -13.5t123 -41t105.5 -69.5t76 -102l358 -743l109 -129h-311l-105 227q-29 -68 -78 -119t-110.5 -84.5t-131 -50 t-137.5 -16.5q-88 0 -171 29.5t-147.5 87t-103 139.5t-38.5 186zM225 1186l226 254h167l230 -254h-90l-223 127l-226 -127h-84zM301 418q0 -59 23.5 -112.5t64.5 -94.5t96.5 -65.5t120.5 -24.5q61 0 116.5 21.5t98.5 58.5t68.5 85t25.5 101l-129 270q-70 45 -170 45 q-66 0 -123 -21.5t-100 -60t-67.5 -90t-24.5 -112.5z" />
<glyph unicode="&#xe3;" horiz-adv-x="1310" d="M68 399q0 125 58 217.5t152.5 147.5t211 70.5t231.5 -15.5q-63 135 -201.5 185.5t-337.5 1.5q29 20 69 37.5t83 29.5t87 18.5t83 6.5q61 0 125.5 -13.5t123 -41t105.5 -69.5t76 -102l358 -743l109 -129h-311l-105 227q-29 -68 -78 -119t-110.5 -84.5t-131 -50 t-137.5 -16.5q-88 0 -171 29.5t-147.5 87t-103 139.5t-38.5 186zM221 1245q27 59 59.5 105.5t61.5 64.5q33 18 76 25.5t84 -0.5q18 -4 40.5 -14.5t46 -25t45 -28.5t38.5 -24q20 -6 48 -13.5t50 4.5q8 2 25.5 21.5t29.5 42.5q4 10 17.5 11t27 -4t23.5 -12.5t8 -13.5 q-25 -61 -59.5 -104t-65.5 -66q-33 -18 -75 -25t-80 -1q-27 4 -54.5 21.5t-54.5 36t-52.5 32.5t-49.5 14q-80 10 -119 -67q-10 -10 -23.5 -12.5t-25 1t-18.5 11.5t-3 20zM301 418q0 -59 23.5 -112.5t64.5 -94.5t96.5 -65.5t120.5 -24.5q61 0 116.5 21.5t98.5 58.5t68.5 85 t25.5 101l-129 270q-70 45 -170 45q-66 0 -123 -21.5t-100 -60t-67.5 -90t-24.5 -112.5z" />
<glyph unicode="&#xe4;" horiz-adv-x="1310" d="M68 399q0 125 58 217.5t152.5 147.5t211 70.5t231.5 -15.5q-63 135 -201.5 185.5t-337.5 1.5q29 20 69 37.5t83 29.5t87 18.5t83 6.5q61 0 125.5 -13.5t123 -41t105.5 -69.5t76 -102l358 -743l109 -129h-311l-105 227q-29 -68 -78 -119t-110.5 -84.5t-131 -50 t-137.5 -16.5q-88 0 -171 29.5t-147.5 87t-103 139.5t-38.5 186zM178 1333q0 59 44 103.5t104 44.5q59 0 103 -44.5t44 -103.5t-44 -103t-103 -44t-103.5 44t-44.5 103zM301 418q0 -59 23.5 -112.5t64.5 -94.5t96.5 -65.5t120.5 -24.5q61 0 116.5 21.5t98.5 58.5t68.5 85 t25.5 101l-129 270q-70 45 -170 45q-66 0 -123 -21.5t-100 -60t-67.5 -90t-24.5 -112.5zM592 1333q0 59 44 103.5t103 44.5t103.5 -44.5t44.5 -103.5t-44 -103t-104 -44q-59 0 -103 44t-44 103z" />
<glyph unicode="&#xe5;" horiz-adv-x="1310" d="M68 399q0 125 58 217.5t152.5 147.5t211 70.5t231.5 -15.5q-63 135 -201.5 185.5t-337.5 1.5q29 20 69 37.5t83 29.5t87 18.5t83 6.5q61 0 125.5 -13.5t123 -41t105.5 -69.5t76 -102l358 -743l109 -129h-311l-105 227q-29 -68 -78 -119t-110.5 -84.5t-131 -50 t-137.5 -16.5q-88 0 -171 29.5t-147.5 87t-103 139.5t-38.5 186zM301 418q0 -59 23.5 -112.5t64.5 -94.5t96.5 -65.5t120.5 -24.5q61 0 116.5 21.5t98.5 58.5t68.5 85t25.5 101l-129 270q-70 45 -170 45q-66 0 -123 -21.5t-100 -60t-67.5 -90t-24.5 -112.5zM379 1331 q0 59 43 102.5t102 43.5t102.5 -43.5t43.5 -102.5t-43 -102t-103 -43q-59 0 -102 43t-43 102zM457 1331q0 -29 19.5 -48t47.5 -19q29 0 49.5 19t20.5 48t-20.5 49.5t-49.5 20.5t-48 -20.5t-19 -49.5z" />
<glyph unicode="&#xe6;" horiz-adv-x="2248" d="M76 535q0 137 51 242.5t135 178t192.5 110.5t223.5 38q86 0 176 -35t147 -94v86h216v-92q76 63 176 99t225 36q156 0 258 -51.5t164.5 -131t91.5 -178t35 -190.5h-910q-4 -86 18.5 -164t69 -137t118 -96t167.5 -41q61 -4 135 7t139.5 44t116 92t66.5 152l63 -50 q-12 -80 -54 -152.5t-109.5 -127.5t-157.5 -89t-199 -34q-115 0 -227.5 27.5t-185.5 74.5v-59h-216v78q-25 -29 -61.5 -51.5t-79.5 -38t-88 -23.5t-88 -8q-104 0 -211.5 34t-196 104.5t-144.5 179t-56 260.5zM334 545q0 -90 28.5 -171t83 -142.5t129 -98.5t166.5 -37 q72 0 142.5 28t117.5 75v659q-47 55 -117.5 80t-142.5 25q-88 0 -162.5 -33t-129 -89.5t-85 -132t-30.5 -163.5zM1272 688h674q-10 70 -42 120t-77 84t-99.5 50t-109.5 16q-59 0 -116.5 -18t-103.5 -52t-80 -85t-46 -115z" />
<glyph unicode="&#xe7;" horiz-adv-x="1236" d="M76 524q0 113 44 217.5t125 185.5t195.5 129t255.5 48q111 0 199 -28.5t147 -55.5l74 76v-400q-29 63 -73 111.5t-97 81.5t-110.5 50t-110.5 17q-80 0 -150.5 -29.5t-124 -86t-85 -137t-31.5 -185.5q0 -96 29.5 -171t80 -127t119 -79.5t146.5 -27.5t146.5 24.5 t121.5 65.5t89 93t48 110l86 -72q-35 -176 -169 -273.5t-329 -103.5v-88q49 0 119 -8t134.5 -29.5t109.5 -59.5t45 -96q0 -57 -42 -95t-101.5 -60.5t-123 -32.5t-108.5 -10q-49 0 -104.5 6t-106.5 18.5t-92 28.5t-65 37q-10 8 -1 32.5t25.5 47t32.5 37t22 4.5 q12 -23 41 -46.5t65 -44t75 -32.5t73 -12q57 0 89 25.5t32 76.5q0 43 -20.5 67.5t-51 35t-64.5 12.5t-60 2v186q-111 8 -211.5 51t-175 115t-118.5 173t-44 226z" />
<glyph unicode="&#xe8;" horiz-adv-x="1296" d="M76 510q0 117 40 224.5t116.5 189.5t190.5 131t259 49q156 0 258 -51.5t164.5 -131t91.5 -178t35 -190.5h-909q-4 -86 18 -164t68.5 -137t118 -96t167.5 -41q61 -4 135 7t139.5 44t116 92t66.5 152l63 -50q-12 -80 -54 -152.5t-109.5 -127.5t-157.5 -89t-199 -34 q-152 0 -266.5 47t-193 124t-118.5 177.5t-40 204.5zM205 1458q0 41 30.5 67.5t61.5 26.5q29 0 59.5 -18t75.5 -64l281 -284h-95l-325 168q-53 18 -70.5 43.5t-17.5 60.5zM336 688h674q-10 70 -42 120t-77 84t-99.5 50t-109.5 16q-59 0 -116.5 -18t-103.5 -52t-80 -85 t-46 -115z" />
<glyph unicode="&#xe9;" horiz-adv-x="1296" d="M76 510q0 117 40 224.5t116.5 189.5t190.5 131t259 49q156 0 258 -51.5t164.5 -131t91.5 -178t35 -190.5h-909q-4 -86 18 -164t68.5 -137t118 -96t167.5 -41q61 -4 135 7t139.5 44t116 92t66.5 152l63 -50q-12 -80 -54 -152.5t-109.5 -127.5t-157.5 -89t-199 -34 q-152 0 -266.5 47t-193 124t-118.5 177.5t-40 204.5zM336 688h674q-10 70 -42 120t-77 84t-99.5 50t-109.5 16q-59 0 -116.5 -18t-103.5 -52t-80 -85t-46 -115zM647 1186l279 284q45 45 76.5 63.5t60.5 18.5q31 0 61.5 -26.5t30.5 -67.5q0 -35 -18.5 -60.5t-69.5 -43.5 l-328 -168h-92z" />
<glyph unicode="&#xea;" horiz-adv-x="1296" d="M76 510q0 117 40 224.5t116.5 189.5t190.5 131t259 49q156 0 258 -51.5t164.5 -131t91.5 -178t35 -190.5h-909q-4 -86 18 -164t68.5 -137t118 -96t167.5 -41q61 -4 135 7t139.5 44t116 92t66.5 152l63 -50q-12 -80 -54 -152.5t-109.5 -127.5t-157.5 -89t-199 -34 q-152 0 -266.5 47t-193 124t-118.5 177.5t-40 204.5zM336 688h674q-10 70 -42 120t-77 84t-99.5 50t-109.5 16q-59 0 -116.5 -18t-103.5 -52t-80 -85t-46 -115zM377 1186l225 254h168l229 -254h-90l-223 127l-225 -127h-84z" />
<glyph unicode="&#xeb;" horiz-adv-x="1296" d="M76 510q0 117 40 224.5t116.5 189.5t190.5 131t259 49q156 0 258 -51.5t164.5 -131t91.5 -178t35 -190.5h-909q-4 -86 18 -164t68.5 -137t118 -96t167.5 -41q61 -4 135 7t139.5 44t116 92t66.5 152l63 -50q-12 -80 -54 -152.5t-109.5 -127.5t-157.5 -89t-199 -34 q-152 0 -266.5 47t-193 124t-118.5 177.5t-40 204.5zM328 1333q0 59 44 103.5t103 44.5t103.5 -44.5t44.5 -103.5t-44 -103t-104 -44q-59 0 -103 44t-44 103zM336 688h674q-10 70 -42 120t-77 84t-99.5 50t-109.5 16q-59 0 -116.5 -18t-103.5 -52t-80 -85t-46 -115z M741 1333q0 59 44 103.5t104 44.5q59 0 103 -44.5t44 -103.5t-44 -103t-103 -44t-103.5 44t-44.5 103z" />
<glyph unicode="&#xec;" horiz-adv-x="481" d="M-240 1458q0 41 31 67.5t62 26.5q29 0 59.5 -18t75.5 -64l280 -284h-94l-326 168q-53 18 -70.5 43.5t-17.5 60.5zM35 1061h313v-932l72 -129h-359l72 129v817z" />
<glyph unicode="&#xed;" horiz-adv-x="481" d="M35 1061h313v-932l72 -129h-359l72 129v817zM190 1186l279 284q45 45 77 63.5t60 18.5q31 0 61.5 -26.5t30.5 -67.5q0 -35 -18 -60.5t-70 -43.5l-327 -168h-93z" />
<glyph unicode="&#xee;" horiz-adv-x="481" d="M-96 1186l225 254h168l229 -254h-90l-223 127l-225 -127h-84zM35 1061h313v-932l72 -129h-359l72 129v817z" />
<glyph unicode="&#xef;" horiz-adv-x="481" d="M-119 1333q0 59 44 103.5t104 44.5q59 0 103 -44.5t44 -103.5t-44 -103t-103 -44t-103.5 44t-44.5 103zM35 1061l98 -115v-817l-72 -129h359l-72 129v932h-313zM295 1333q0 59 44 103.5t103 44.5t103.5 -44.5t44.5 -103.5t-44 -103t-104 -44q-59 0 -103 44t-44 103z" />
<glyph unicode="&#xf0;" d="M68 731q0 150 56 282t154.5 230t230.5 155.5t282 57.5t281.5 -57.5t230 -155.5t156 -230t57.5 -282t-57.5 -282t-156 -230t-230.5 -155.5t-281 -57.5q-150 0 -282 57.5t-230.5 155.5t-154.5 230.5t-56 281.5zM164 731q0 -129 49 -242.5t135 -199.5t200 -135.5t243 -49.5 q131 0 244.5 49.5t197.5 135.5t133 199.5t49 242.5t-49 242.5t-133 198.5t-197.5 134.5t-244.5 49.5q-129 0 -243 -49.5t-200 -134.5t-135 -198.5t-49 -242.5zM207 731q0 119 46 224.5t126 184.5t185.5 124t226.5 45q119 0 225 -45t185 -124t125 -184.5t46 -224.5 q0 -121 -46 -227.5t-125 -185t-185.5 -125t-224.5 -46.5q-121 0 -226.5 46.5t-185.5 125t-126 185t-46 227.5zM330 664l112 -177q346 -80 699 0l110 177h-921zM451 1063l151 -189q4 -4 15.5 -0.5t23.5 9.5t20.5 12t8.5 8q-29 57 -47.5 118.5t-53.5 111.5q-6 8 -26.5 -0.5 t-42 -22.5t-38 -28.5t-11.5 -18.5zM463 457q20 -35 51 -74t73 -70.5t92 -53t112 -21.5q59 0 110 21.5t92 53t73 70.5t52 74q-164 -43 -326.5 -42t-328.5 42zM715 731h155l-77 187zM918 903q-4 -2 4 -8t19 -12t23.5 -9.5t18.5 0.5l147 189q4 4 -11 18.5t-36.5 28.5t-42 22.5 t-26.5 0.5q-39 -49 -55.5 -110.5t-40.5 -119.5zM1290 102v23h84v-23h-31v-77h-22v77h-31zM1384 25v100h31l19 -78l18 78h29v-100h-19v77l-20 -77h-19l-20 77v-77h-19z" />
<glyph unicode="&#xf1;" horiz-adv-x="1310" d="M35 1061h313v-84q59 53 147.5 91t204.5 38q119 0 217.5 -34t169 -96.5t109.5 -153.5t39 -204q0 -80 -21.5 -155.5t-57.5 -143t-84 -125t-99 -100.5l106 -94h-389q55 41 109.5 108.5t95.5 145.5t66.5 160t25.5 153q0 86 -18.5 160t-59.5 128t-104.5 85t-151.5 31 q-98 0 -175 -32t-130 -81v-729l72 -129h-359l72 129v817zM377 1245q27 59 59.5 105.5t61.5 64.5q33 18 75.5 25.5t83.5 -0.5q18 -4 41 -14.5t46.5 -25t45 -28.5t37.5 -24q20 -6 48 -13.5t51 4.5q8 2 25.5 21.5t29.5 42.5q4 10 17.5 11t26.5 -4t23.5 -12.5t8.5 -13.5 q-25 -61 -59.5 -104t-65.5 -66q-33 -18 -75 -25t-81 -1q-27 4 -54.5 21.5t-54 36t-52 32.5t-50.5 14q-80 10 -119 -67q-10 -10 -23 -12.5t-24.5 1t-18.5 11.5t-3 20z" />
<glyph unicode="&#xf2;" horiz-adv-x="1402" d="M76 530q0 117 52 220.5t138 182.5t199 125t233 46q121 0 233.5 -46t199 -125t138.5 -182.5t52 -220.5t-52 -221t-138.5 -183t-199 -124t-233.5 -45t-233.5 46t-198.5 125t-138 182.5t-52 219.5zM236 1458q0 41 30.5 67.5t61.5 26.5q29 0 59.5 -18t75.5 -64l280 -284h-94 l-325 168q-53 18 -70.5 43.5t-17.5 60.5zM324 530q0 -92 28.5 -169.5t79.5 -135t120 -90.5t146 -33q78 0 146.5 33t119 90.5t80 135t29.5 169.5t-29.5 170t-80 135.5t-119 90t-146.5 32.5t-146.5 -32.5t-119.5 -90t-79.5 -135t-28.5 -170.5z" />
<glyph unicode="&#xf3;" horiz-adv-x="1402" d="M76 530q0 117 52 220.5t138 182.5t199 125t233 46q121 0 233.5 -46t199 -125t138.5 -182.5t52 -220.5t-52 -221t-138.5 -183t-199 -124t-233.5 -45t-233.5 46t-198.5 125t-138 182.5t-52 219.5zM324 530q0 -92 28.5 -169.5t79.5 -135t120 -90.5t146 -33q78 0 146.5 33 t119 90.5t80 135t29.5 169.5t-29.5 170t-80 135.5t-119 90t-146.5 32.5t-146.5 -32.5t-119.5 -90t-79.5 -135t-28.5 -170.5zM670 1186l278 284q45 45 77 63.5t60 18.5q31 0 62 -26.5t31 -67.5q0 -35 -18.5 -60.5t-69.5 -43.5l-328 -168h-92z" />
<glyph unicode="&#xf4;" horiz-adv-x="1402" d="M76 530q0 117 52 220.5t138 182.5t199 125t233 46q121 0 233.5 -46t199 -125t138.5 -182.5t52 -220.5t-52 -221t-138.5 -183t-199 -124t-233.5 -45t-233.5 46t-198.5 125t-138 182.5t-52 219.5zM324 530q0 -92 28.5 -169.5t79.5 -135t120 -90.5t146 -33q78 0 146.5 33 t119 90.5t80 135t29.5 169.5t-29.5 170t-80 135.5t-119 90t-146.5 32.5t-146.5 -32.5t-119.5 -90t-79.5 -135t-28.5 -170.5zM385 1186l225 254h168l230 -254h-90l-224 127l-225 -127h-84z" />
<glyph unicode="&#xf5;" horiz-adv-x="1402" d="M76 530q0 117 52 220.5t138 182.5t199 125t233 46q121 0 233.5 -46t199 -125t138.5 -182.5t52 -220.5t-52 -221t-138.5 -183t-199 -124t-233.5 -45t-233.5 46t-198.5 125t-138 182.5t-52 219.5zM324 530q0 -92 28.5 -169.5t79.5 -135t120 -90.5t146 -33q78 0 146.5 33 t119 90.5t80 135t29.5 169.5t-29.5 170t-80 135.5t-119 90t-146.5 32.5t-146.5 -32.5t-119.5 -90t-79.5 -135t-28.5 -170.5zM375 1245q27 59 59.5 105.5t61.5 64.5q33 18 75.5 25.5t83.5 -0.5q18 -4 41 -14.5t46.5 -25t45 -28.5t37.5 -24q20 -6 48 -13.5t51 4.5 q8 2 25.5 21.5t29.5 42.5q4 10 17.5 11t26.5 -4t23.5 -12.5t8.5 -13.5q-25 -61 -59.5 -104t-65.5 -66q-33 -18 -75 -25t-81 -1q-27 4 -54.5 21.5t-54 36t-52 32.5t-50.5 14q-80 10 -119 -67q-10 -10 -23 -12.5t-24.5 1t-18.5 11.5t-3 20z" />
<glyph unicode="&#xf6;" horiz-adv-x="1402" d="M76 530q0 117 52 220.5t138 182.5t199 125t233 46q121 0 233.5 -46t199 -125t138.5 -182.5t52 -220.5t-52 -221t-138.5 -183t-199 -124t-233.5 -45t-233.5 46t-198.5 125t-138 182.5t-52 219.5zM324 530q0 -92 28.5 -169.5t79.5 -135t120 -90.5t146 -33q78 0 146.5 33 t119 90.5t80 135t29.5 169.5t-29.5 170t-80 135.5t-119 90t-146.5 32.5t-146.5 -32.5t-119.5 -90t-79.5 -135t-28.5 -170.5zM342 1333q0 59 44 103.5t103 44.5t103.5 -44.5t44.5 -103.5t-44 -103t-104 -44q-59 0 -103 44t-44 103zM756 1333q0 59 44 103.5t103 44.5 t103.5 -44.5t44.5 -103.5t-44 -103t-104 -44q-59 0 -103 44t-44 103z" />
<glyph unicode="&#xf7;" horiz-adv-x="1363" d="M145 694v129h1069v-129h-1069zM537 418q0 59 42 102t101 43t101 -43t42 -102t-42 -103.5t-101 -44.5t-101 44t-42 104zM537 1100q0 59 42 102t101 43t101 -43t42 -102t-42 -101.5t-101 -42.5t-101 42t-42 102z" />
<glyph unicode="&#xf8;" horiz-adv-x="2324" d="M76 530q0 117 52 220.5t138 182.5t199 125t233 46q147 0 278.5 -65.5t219.5 -174.5q76 109 201 174.5t297 65.5q156 0 258 -51.5t164.5 -131t91.5 -178t35 -190.5h-910q-4 -86 18.5 -164t68.5 -137t118 -96t168 -41q61 -4 135 7t139.5 44t115.5 92t67 152l63 -50 q-12 -80 -54 -152.5t-109.5 -127.5t-157.5 -89t-199 -34q-180 0 -308 64.5t-206 168.5q-88 -106 -218 -169.5t-276 -63.5q-121 0 -233.5 46t-198.5 125t-138 182.5t-52 219.5zM324 530q0 -92 28.5 -169.5t79.5 -135t120 -90.5t146 -33q78 0 146.5 33t119 90.5t80 135 t29.5 169.5t-29.5 170t-80 135.5t-119 90t-146.5 32.5t-146.5 -32.5t-119.5 -90t-79.5 -135t-28.5 -170.5zM1350 688h673q-10 70 -41.5 120t-76.5 84t-99.5 50t-109.5 16q-59 0 -116.5 -18t-103.5 -52t-80 -85t-46 -115z" />
<glyph unicode="&#xf9;" horiz-adv-x="1306" d="M76 442q0 80 21.5 156t57 143.5t83 125t100.5 100.5l-107 94h379q-55 -41 -109.5 -108.5t-95 -145.5t-66.5 -160t-26 -153q0 -86 18.5 -160t59.5 -128t103.5 -85t152.5 -31q98 0 175 32t130 81v729l-71 129h286v-932l78 -129h-293v84q-59 -53 -147 -91t-205 -38 q-119 0 -215 34t-164.5 96t-106.5 152.5t-38 204.5zM248 1458q0 41 30.5 67.5t61.5 26.5q29 0 59.5 -18t75.5 -64l281 -284h-94l-326 168q-53 18 -70.5 43.5t-17.5 60.5z" />
<glyph unicode="&#xfa;" horiz-adv-x="1306" d="M76 442q0 80 21.5 156t57 143.5t83 125t100.5 100.5l-107 94h379q-55 -41 -109.5 -108.5t-95 -145.5t-66.5 -160t-26 -153q0 -86 18.5 -160t59.5 -128t103.5 -85t152.5 -31q98 0 175 32t130 81v729l-71 129h286v-932l78 -129h-293v84q-59 -53 -147 -91t-205 -38 q-119 0 -215 34t-164.5 96t-106.5 152.5t-38 204.5zM709 1186l278 284q45 45 77 63.5t60 18.5q31 0 62 -26.5t31 -67.5q0 -35 -18.5 -60.5t-70.5 -43.5l-327 -168h-92z" />
<glyph unicode="&#xfb;" horiz-adv-x="1306" d="M76 442q0 80 21.5 156t57 143.5t83 125t100.5 100.5l-107 94h379q-55 -41 -109.5 -108.5t-95 -145.5t-66.5 -160t-26 -153q0 -86 18.5 -160t59.5 -128t103.5 -85t152.5 -31q98 0 175 32t130 81v729l-71 129h286v-932l78 -129h-293v84q-59 -53 -147 -91t-205 -38 q-119 0 -215 34t-164.5 96t-106.5 152.5t-38 204.5zM410 1186l225 254h168l229 -254h-90l-223 127l-225 -127h-84z" />
<glyph unicode="&#xfc;" horiz-adv-x="1306" d="M76 442q0 80 21.5 156t57 143.5t83 125t100.5 100.5l-107 94h379q-55 -41 -109.5 -108.5t-95 -145.5t-66.5 -160t-26 -153q0 -86 18.5 -160t59.5 -128t103.5 -85t152.5 -31q98 0 175 32t130 81v729l-71 129h286v-932l78 -129h-293v84q-59 -53 -147 -91t-205 -38 q-119 0 -215 34t-164.5 96t-106.5 152.5t-38 204.5zM414 1333q0 59 44 103.5t103 44.5t103.5 -44.5t44.5 -103.5t-44 -103t-104 -44q-59 0 -103 44t-44 103zM827 1333q0 59 44 103.5t104 44.5q59 0 103 -44.5t44 -103.5t-44 -103t-103 -44t-103.5 44t-44.5 103z" />
<glyph unicode="&#xfd;" horiz-adv-x="1300" d="M76 442q0 80 21.5 156t57 143.5t83 125t100.5 100.5l-107 94h379q-55 -41 -109.5 -108.5t-95 -145.5t-66.5 -160t-26 -153q0 -86 18.5 -160t59.5 -128t103.5 -85t152.5 -31q98 0 175 32t130 81v729l-71 129h286v-1071q0 -158 -38.5 -280t-108.5 -205t-169 -127t-218 -44 q-66 0 -125 18.5t-107.5 53.5t-84 84t-52.5 109q55 -78 126 -115t169 -41q199 -10 296 127t97 430v84q-59 -53 -147 -91t-205 -38q-119 0 -215 34t-164.5 96t-106.5 152.5t-38 204.5zM698 1186l279 284q45 45 76.5 63.5t60.5 18.5q31 0 61.5 -26.5t30.5 -67.5 q0 -35 -18.5 -60.5t-69.5 -43.5l-327 -168h-93z" />
<glyph unicode="&#xfe;" horiz-adv-x="1300" d="M76 442q0 80 21.5 156t57 143.5t83 125t100.5 100.5l-107 94h379q-55 -41 -109.5 -108.5t-95 -145.5t-66.5 -160t-26 -153q0 -86 18.5 -160t59.5 -128t103.5 -85t152.5 -31q98 0 175 32t130 81v729l-71 129h286v-1071q0 -158 -38.5 -280t-108.5 -205t-169 -127t-218 -44 q-66 0 -125 18.5t-107.5 53.5t-84 84t-52.5 109q55 -78 126 -115t169 -41q199 -10 296 127t97 430v84q-59 -53 -147 -91t-205 -38q-119 0 -215 34t-164.5 96t-106.5 152.5t-38 204.5zM381 1333q0 59 44 103.5t103 44.5t103.5 -44.5t44.5 -103.5t-44 -103t-104 -44 q-59 0 -103 44t-44 103zM795 1333q0 59 44 103.5t103 44.5t103.5 -44.5t44.5 -103.5t-44.5 -103t-103.5 -44t-103 44t-44 103z" />
<glyph unicode="&#xff;" horiz-adv-x="1624" d="M20 1491h510l-92 -131l400 -653l407 653l-102 131h461l-146 -131l-524 -807v-422l72 -131h-373l72 131v438l-531 791zM467 1720q0 59 44 103.5t103 44.5t103.5 -44.5t44.5 -103.5t-44 -103t-104 -44q-59 0 -103 44t-44 103zM881 1720q0 59 44 103.5t103 44.5t103.5 -44.5 t44.5 -103.5t-44.5 -103t-103.5 -44t-103 44t-44 103z" />
<glyph unicode="&#x152;" horiz-adv-x="419" d="M61 401q0 61 44.5 105.5t105.5 44.5t105 -44.5t44 -105.5t-44 -105t-105 -44t-105.5 44t-44.5 105zM61 1090q0 61 44.5 105t105.5 44t105 -44t44 -105t-44 -105.5t-105 -44.5t-105.5 44t-44.5 106z" />
<glyph unicode="&#x153;" horiz-adv-x="1099" d="M80 14v506v508h377v117l563 -625l-563 -624v118h-377z" />
<glyph unicode="&#x178;" d="M68 731q0 150 56 282t154.5 230t230.5 155.5t282 57.5t281.5 -57.5t230 -155.5t156 -230t57.5 -282t-57.5 -282t-156 -230t-230 -155.5t-281.5 -57.5t-282 57.5t-230.5 155.5t-154.5 230.5t-56 281.5zM164 731q0 -129 49 -242.5t135 -199.5t200 -135.5t243 -49.5 q131 0 244.5 49.5t197.5 135.5t133 199.5t49 242.5t-49 242.5t-133 198.5t-197.5 134.5t-244.5 49.5q-129 0 -243 -49.5t-200 -134.5t-135 -198.5t-49 -242.5zM207 731q0 119 46 224.5t126 184.5t185.5 124t226.5 45q119 0 225 -45t185 -124t125 -184.5t46 -224.5 q0 -121 -46 -227.5t-125 -185t-185 -125t-225 -46.5q-121 0 -226.5 46.5t-185.5 125t-126 185t-46 227.5zM330 664l112 -177q346 -80 699 0l110 177h-921zM451 1063l151 -189q4 -4 15.5 -0.5t23.5 9.5t20.5 12t8.5 8q-29 57 -47.5 118.5t-53.5 111.5q-6 8 -26.5 -0.5 t-42 -22.5t-38 -28.5t-11.5 -18.5zM463 457q20 -35 51 -74t73 -70.5t92.5 -53t111.5 -21.5q59 0 110 21.5t92 53t73 70.5t52 74q-164 -43 -326.5 -42t-328.5 42zM715 731h155l-77 187zM918 903q-4 -2 4 -8t19 -12t23.5 -9.5t18.5 0.5l147 189q4 4 -11 18.5t-36.5 28.5 t-42 22.5t-26.5 0.5q-39 -49 -55.5 -110.5t-40.5 -119.5zM1290 102v23h84v-23h-31v-77h-22v77h-31zM1384 25v100h31l19 -78l18 78h29v-100h-19v77l-20 -77h-19l-20 77v-77h-19z" />
<glyph unicode="&#x2c6;" horiz-adv-x="3856" d="M82 893q0 100 35 213t107.5 207t182 155.5t259.5 61.5q174 0 278.5 -87t126.5 -235l-2 -12l-10 12q-33 66 -78 106t-96 62.5t-103.5 29.5t-97.5 7q-104 -4 -186 -48t-135.5 -124t-77 -191.5t-11.5 -248.5q14 61 54.5 112.5t95.5 89t122.5 58t139.5 18.5q104 -4 188 -33.5 t144.5 -85t93.5 -138.5t33 -189q0 -90 -37 -171t-102.5 -141.5t-156.5 -96.5t-200 -36t-211 40t-181 125t-127 218.5t-48 321.5zM342 629q0 -63 23.5 -118.5t65.5 -96.5t98.5 -64.5t121.5 -23.5q63 0 119.5 23.5t98.5 64.5t65.5 96.5t23.5 118.5q0 66 -23.5 122t-65.5 98 t-98 66.5t-120 24.5q-66 0 -122 -24.5t-98 -66.5t-65.5 -98.5t-23.5 -121.5zM1069 0l707 1360l-72 131h315l-706 -1360l71 -131h-315zM2032 0l61 111v1007l-61 51l249 115v-1173l62 -111h-311zM2462 633q0 133 48 255t135 214t207 147.5t265 55.5t266 -55.5t208 -147.5 t135 -214t48 -255t-48 -254t-135 -213t-208 -147.5t-266 -55.5t-265 55.5t-207 147.5t-135 213t-48 254zM2675 633q0 -109 29.5 -205t86 -170t138.5 -117t188 -43t189 43t139.5 117t86 170t29.5 205t-29.5 206t-86 170.5t-139 116.5t-189.5 43q-106 0 -188 -43 t-138.5 -116.5t-86 -171t-29.5 -205.5z" />
<glyph unicode="&#x2dc;" d="M68 731q0 150 56 282t154.5 230t230.5 155.5t282 57.5t281.5 -57.5t230 -155.5t156 -230t57.5 -282t-57.5 -282t-156 -230t-230 -155.5t-281.5 -57.5t-282 57.5t-230.5 155.5t-154.5 230.5t-56 281.5zM164 731q0 -129 49 -242.5t135 -199.5t200 -135.5t243 -49.5 q131 0 244.5 49.5t197.5 135.5t133 199.5t49 242.5t-49 242.5t-133 198.5t-197.5 134.5t-244.5 49.5q-129 0 -243 -49.5t-200 -134.5t-135 -198.5t-49 -242.5zM207 731q0 119 46 224.5t126 184.5t185.5 124t226.5 45q119 0 225 -45t185 -124t125 -184.5t46 -224.5 q0 -121 -46 -227.5t-125 -185t-185 -125t-225 -46.5q-121 0 -226.5 46.5t-185.5 125t-126 185t-46 227.5zM330 664l112 -177q346 -80 699 0l110 177h-921zM451 1063l151 -189q4 -4 15.5 -0.5t23.5 9.5t20.5 12t8.5 8q-29 57 -47.5 118.5t-53.5 111.5q-6 8 -26.5 -0.5 t-42 -22.5t-38 -28.5t-11.5 -18.5zM463 457q20 -35 51 -74t73 -70.5t92.5 -53t111.5 -21.5q59 0 110 21.5t92 53t73 70.5t52 74q-164 -43 -326.5 -42t-328.5 42zM715 731h155l-77 187zM918 903q-4 -2 4 -8t19 -12t23.5 -9.5t18.5 0.5l147 189q4 4 -11 18.5t-36.5 28.5 t-42 22.5t-26.5 0.5q-39 -49 -55.5 -110.5t-40.5 -119.5zM1290 102v23h84v-23h-31v-77h-22v77h-31zM1384 25v100h31l19 -78l18 78h29v-100h-19v77l-20 -77h-19l-20 77v-77h-19z" />
<glyph unicode="&#x2000;" horiz-adv-x="981" />
<glyph unicode="&#x2001;" horiz-adv-x="1962" />
<glyph unicode="&#x2002;" horiz-adv-x="981" />
<glyph unicode="&#x2003;" horiz-adv-x="1962" />
<glyph unicode="&#x2004;" horiz-adv-x="654" />
<glyph unicode="&#x2005;" horiz-adv-x="490" />
<glyph unicode="&#x2006;" horiz-adv-x="327" />
<glyph unicode="&#x2007;" horiz-adv-x="327" />
<glyph unicode="&#x2008;" horiz-adv-x="245" />
<glyph unicode="&#x2009;" horiz-adv-x="392" />
<glyph unicode="&#x200a;" horiz-adv-x="109" />
<glyph unicode="&#x2010;" horiz-adv-x="921" d="M82 567v181h758v-181h-758z" />
<glyph unicode="&#x2011;" horiz-adv-x="921" d="M82 567v181h758v-181h-758z" />
<glyph unicode="&#x2012;" horiz-adv-x="921" d="M82 567v181h758v-181h-758z" />
<glyph unicode="&#x2013;" d="M68 731q0 150 56 282t154.5 230t230.5 155.5t282 57.5t281.5 -57.5t230 -155.5t156 -230t57.5 -282t-57.5 -282t-156 -230t-230 -155.5t-281.5 -57.5t-282 57.5t-230.5 155.5t-154.5 230.5t-56 281.5zM164 731q0 -129 49 -242.5t135 -199.5t200 -135.5t243 -49.5 q131 0 244.5 49.5t197.5 135.5t133 199.5t49 242.5t-49 242.5t-133 198.5t-197.5 134.5t-244.5 49.5q-129 0 -243 -49.5t-200 -134.5t-135 -198.5t-49 -242.5zM207 731q0 119 46 224.5t126 184.5t185.5 124t226.5 45q119 0 225 -45t185 -124t125 -184.5t46 -224.5 q0 -121 -46 -227.5t-125 -185t-185 -125t-225 -46.5q-121 0 -226.5 46.5t-185.5 125t-126 185t-46 227.5zM330 664l112 -177q346 -80 699 0l110 177h-921zM451 1063l151 -189q4 -4 15.5 -0.5t23.5 9.5t20.5 12t8.5 8q-29 57 -47.5 118.5t-53.5 111.5q-6 8 -26.5 -0.5 t-42 -22.5t-38 -28.5t-11.5 -18.5zM463 457q20 -35 51 -74t73 -70.5t92.5 -53t111.5 -21.5q59 0 110 21.5t92 53t73 70.5t52 74q-164 -43 -326.5 -42t-328.5 42zM715 731h155l-77 187zM918 903q-4 -2 4 -8t19 -12t23.5 -9.5t18.5 0.5l147 189q4 4 -11 18.5t-36.5 28.5 t-42 22.5t-26.5 0.5q-39 -49 -55.5 -110.5t-40.5 -119.5zM1290 102v23h84v-23h-31v-77h-22v77h-31zM1384 25v100h31l19 -78l18 78h29v-100h-19v77l-20 -77h-19l-20 77v-77h-19z" />
<glyph unicode="&#x2014;" d="M68 731q0 150 56 282t154.5 230t230.5 155.5t282 57.5t281.5 -57.5t230 -155.5t156 -230t57.5 -282t-57.5 -282t-156 -230t-230 -155.5t-281.5 -57.5t-282 57.5t-230.5 155.5t-154.5 230.5t-56 281.5zM164 731q0 -129 49 -242.5t135 -199.5t200 -135.5t243 -49.5 q131 0 244.5 49.5t197.5 135.5t133 199.5t49 242.5t-49 242.5t-133 198.5t-197.5 134.5t-244.5 49.5q-129 0 -243 -49.5t-200 -134.5t-135 -198.5t-49 -242.5zM207 731q0 119 46 224.5t126 184.5t185.5 124t226.5 45q119 0 225 -45t185 -124t125 -184.5t46 -224.5 q0 -121 -46 -227.5t-125 -185t-185 -125t-225 -46.5q-121 0 -226.5 46.5t-185.5 125t-126 185t-46 227.5zM330 664l112 -177q346 -80 699 0l110 177h-921zM451 1063l151 -189q4 -4 15.5 -0.5t23.5 9.5t20.5 12t8.5 8q-29 57 -47.5 118.5t-53.5 111.5q-6 8 -26.5 -0.5 t-42 -22.5t-38 -28.5t-11.5 -18.5zM463 457q20 -35 51 -74t73 -70.5t92.5 -53t111.5 -21.5q59 0 110 21.5t92 53t73 70.5t52 74q-164 -43 -326.5 -42t-328.5 42zM715 731h155l-77 187zM918 903q-4 -2 4 -8t19 -12t23.5 -9.5t18.5 0.5l147 189q4 4 -11 18.5t-36.5 28.5 t-42 22.5t-26.5 0.5q-39 -49 -55.5 -110.5t-40.5 -119.5zM1290 102v23h84v-23h-31v-77h-22v77h-31zM1384 25v100h31l19 -78l18 78h29v-100h-19v77l-20 -77h-19l-20 77v-77h-19z" />
<glyph unicode="&#x2018;" horiz-adv-x="419" d="M61 1278q0 72 24 126t56.5 92t64.5 58.5t48 24.5q-10 -10 -20.5 -27.5t-18.5 -37t-10 -42t6 -45.5q61 0 105 -45t44 -104t-44 -104.5t-105 -45.5q-59 0 -104.5 45.5t-45.5 104.5z" />
<glyph unicode="&#x2019;" horiz-adv-x="419" d="M61 1401q0 59 44.5 104t105.5 45q59 0 104 -45t45 -104q0 -72 -23.5 -126t-56 -92t-64.5 -58.5t-48 -24.5q10 10 20.5 27.5t18.5 37t10 42t-6 44.5q-61 0 -105.5 45t-44.5 105z" />
<glyph unicode="&#x201a;" horiz-adv-x="962" d="M82 618v283l108 -51h582l109 51v-283l-109 52h-582z" />
<glyph unicode="&#x201c;" horiz-adv-x="843" d="M61 1278q0 72 24 126t56.5 92t64.5 58.5t48 24.5q-10 -10 -20.5 -27.5t-18.5 -37t-10 -42t6 -45.5q61 0 105 -45t44 -104t-44 -104.5t-105 -45.5q-59 0 -104.5 45.5t-45.5 104.5zM483 1278q0 72 23.5 126t56.5 92t64.5 58.5t48.5 24.5q-10 -10 -20.5 -27.5t-18.5 -37 t-10 -42t6 -45.5q61 0 105 -45t44 -104t-44 -104.5t-105 -45.5q-59 0 -104.5 45.5t-45.5 104.5z" />
<glyph unicode="&#x201d;" horiz-adv-x="843" d="M61 1401q0 59 44.5 104t105.5 45q59 0 104 -45t45 -104q0 -72 -23.5 -126t-56 -92t-64.5 -58.5t-48 -24.5q10 10 20.5 27.5t18.5 37t10 42t-6 44.5q-61 0 -105.5 45t-44.5 105zM483 1401q0 59 44 104t106 45q59 0 104 -45t45 -104q0 -72 -23.5 -126t-56 -92t-64.5 -58.5 t-48 -24.5q10 10 20.5 27.5t18.5 37t10 42t-6 44.5q-61 0 -105.5 45t-44.5 105z" />
<glyph unicode="&#x201e;" horiz-adv-x="3778" d="M82 225v64q72 49 154.5 106.5t162.5 123t152 139t123 153.5q63 98 80.5 204.5t-15 197t-117.5 148.5t-229 58q-66 0 -141.5 -23.5t-147.5 -66.5l-14 -4l6 12q29 37 74 71t101.5 59.5t120 41t128.5 15.5q45 0 95.5 -6.5t99.5 -20.5t93 -38.5t81 -63.5q53 -57 77.5 -129 t23.5 -148t-23.5 -150.5t-63.5 -136.5q-43 -68 -103.5 -129t-129 -117.5t-140 -106.5t-139.5 -93h481l107 102v-262h-897zM997 0l707 1360l-72 131h316l-707 -1360l72 -131h-316zM1954 0l61 111v1007l-61 51l250 115v-1173l61 -111h-311zM2384 633q0 133 48 255t135 214 t207 147.5t265 55.5t266 -55.5t208 -147.5t135.5 -214t48.5 -255t-48.5 -254t-135.5 -213t-207.5 -147.5t-266.5 -55.5q-145 0 -265 55.5t-207 147.5t-135 213t-48 254zM2597 633q0 -109 29.5 -205t86 -170t138.5 -117t188 -43t189.5 43t139.5 117t86 170t30 205t-30 206 t-86 170.5t-139 116.5t-190 43q-106 0 -188 -43t-138.5 -116.5t-86 -171t-29.5 -205.5z" />
<glyph unicode="&#x2022;" horiz-adv-x="667" d="M115 700q0 45 17.5 86t48 71t70.5 47.5t87 17.5q45 0 86 -17.5t70.5 -47.5t47 -71t17.5 -86q0 -47 -17.5 -87t-47 -70.5t-70.5 -48t-86 -17.5q-47 0 -87 17.5t-70.5 48t-48 70.5t-17.5 87z" />
<glyph unicode="&#x2026;" horiz-adv-x="3737" d="M31 475v12l10 -6q76 -86 180.5 -134t224.5 -50q76 0 141.5 17.5t114 57.5t76 102.5t27.5 152.5q0 78 -38 137t-98.5 99t-134 61.5t-143.5 21.5l-8 6l8 6q96 12 166 47t113 81.5t57 99.5t0 102q-23 76 -99.5 111t-171 35t-186.5 -28t-145 -75l-14 -4l6 12 q92 104 207.5 147.5t230.5 43.5q74 0 140.5 -12.5t120.5 -42t89 -79.5t45 -126q6 -57 -8 -105.5t-46 -86.5t-78 -67.5t-99 -47.5q55 -10 111.5 -38t101.5 -73t72.5 -108.5t27.5 -143.5q0 -63 -16.5 -115.5t-43 -93.5t-62.5 -72.5t-72 -52.5q-102 -57 -234.5 -72.5 t-253.5 13.5q-51 10 -100 34.5t-92 59.5t-76 79t-51 95zM950 0l707 1360l-72 131h316l-707 -1360l72 -131h-316zM1913 0l61 111v1007l-61 51l250 115v-1173l61 -111h-311zM2343 633q0 133 48 255t135 214t207 147.5t265 55.5t266 -55.5t208 -147.5t135.5 -214t48.5 -255 t-48.5 -254t-135.5 -213t-207.5 -147.5t-266.5 -55.5q-145 0 -265 55.5t-207 147.5t-135 213t-48 254zM2556 633q0 -109 29.5 -205t86 -170t138.5 -117t188 -43t189.5 43t139.5 117t86 170t30 205t-30 206t-86 170.5t-139 116.5t-190 43q-106 0 -188 -43t-138.5 -116.5 t-86 -171t-29.5 -205.5z" />
<glyph unicode="&#x202f;" horiz-adv-x="392" />
<glyph unicode="&#x2039;" horiz-adv-x="3766" d="M61 1094q0 86 33 165.5t94.5 140t150.5 96.5t204 34q104 0 202.5 -39t175 -122t123 -213t46.5 -316q0 -158 -44.5 -279t-120 -204t-178 -126t-221.5 -43q-92 0 -161.5 27t-118.5 72t-80 105.5t-43 127.5l2 15l10 -13q29 -63 71 -105t90 -66.5t97 -35t94 -8.5 q100 6 183.5 47t138.5 118t80.5 186.5t11.5 252.5q-45 -127 -155.5 -190.5t-264.5 -58.5q-98 2 -176 37.5t-132 94t-83 135.5t-29 165zM246 1092q0 -61 23.5 -115.5t63.5 -94.5t94 -62.5t116 -22.5q63 0 117.5 22.5t94.5 62.5t62.5 94.5t22.5 115.5t-22.5 115.5t-62.5 96.5 t-94.5 65.5t-117.5 23.5q-61 0 -115.5 -23.5t-94.5 -65.5t-63.5 -96.5t-23.5 -115.5zM979 0l707 1360l-72 131h315l-706 -1360l71 -131h-315zM1942 0l61 111v1007l-61 51l249 115v-1173l62 -111h-311zM2372 633q0 133 48 255t135 214t207 147.5t265 55.5t266 -55.5 t208 -147.5t135 -214t48 -255t-48 -254t-135 -213t-208 -147.5t-266 -55.5t-265 55.5t-207 147.5t-135 213t-48 254zM2585 633q0 -109 29.5 -205t86 -170t138 -117t188.5 -43q106 0 189 43t139.5 117t86 170t29.5 205t-29.5 206t-86 170.5t-139.5 116.5t-189 43t-188 -43 t-138.5 -116.5t-86 -171t-29.5 -205.5z" />
<glyph unicode="&#x203a;" horiz-adv-x="1263" d="M80 143v600v596h450v150l656 -746l-656 -747v147h-450z" />
<glyph unicode="&#x205f;" horiz-adv-x="490" />
<glyph unicode="&#x20ac;" horiz-adv-x="1292" d="M41 418v266l106 -53h58q-10 119 0 227h-58l-106 -51v260l106 -47h78q43 254 172 384t351 130q109 0 201.5 -30.5t170.5 -96.5l90 104v-448q-43 70 -87 127t-93 99t-106.5 65.5t-126.5 23.5q-68 0 -120 -26.5t-91 -74.5t-66.5 -113.5t-44.5 -143.5h416l125 67v-301 l-125 72h-436q-4 -53 -5 -110.5t5 -116.5h436l125 74v-308l-125 74h-416q33 -160 111 -259t211 -99q70 0 127 23.5t106 64.5t93 99t87 128v-451l-90 105q-78 -66 -171 -95.5t-201 -29.5q-221 0 -350.5 129t-172.5 385h-78z" />
<glyph unicode="&#x2122;" horiz-adv-x="2086" d="M82 1227v264h872v-264l-125 94h-206v-518l67 -129h-346l70 129v518h-207zM942 674l78 129l59 592l-55 96h238l194 -346l180 346h277l-55 -96l69 -592l78 -129h-307l51 129l-39 373l-258 -502l-252 452l-35 -323l58 -129h-281z" />
<glyph unicode="&#x25fc;" horiz-adv-x="1064" d="M0 0v1065h1065v-1065h-1065z" />
</font>
</defs>
</svg>
